STARTFONT 2.1
FONT HAN-GB2312
SIZE 10 72 72
FONTBOUNDINGBOX 10 10 0 0
STARTPROPERTIES 1
BITCOUNT 8
ENDPROPERTIES
CHARS 6989
STARTCHAR  00A4
ENCODING  164
SWIDTH  1000 0
DWIDTH  10 0
BBX  5 8 2 -1
BITMAP
0000000000
A0A0F0A0A0
8080008080
E0000000E0
E0000000E0
8080008080
A0A0F0A0A0
0000000000
ENDCHAR
STARTCHAR  00A7
ENCODING  167
SWIDTH  1000 0
DWIDTH  10 0
BBX  5 8 2 -1
BITMAP
0040A08010
00C0104060
00C0600000
00A0FFE030
00FF006080
00E0FFFF20
1040108060
0080A0A030
ENDCHAR
STARTCHAR  00A8
ENCODING  168
SWIDTH  1000 0
DWIDTH  10 0
BBX  4 1 3 7
BITMAP
6080A020
ENDCHAR
STARTCHAR  00B0
ENCODING  176
SWIDTH  1000 0
DWIDTH  10 0
BBX  2 3 1 4
BITMAP
C040
6060
C040
ENDCHAR
STARTCHAR  00B1
ENCODING  177
SWIDTH  1000 0
DWIDTH  10 0
BBX  5 8 2 -1
BITMAP
0000100000
0000E00000
0000E00000
E0F0FFF0E0
0000E00000
0000E00000
0000400000
E0F0F0F0E0
ENDCHAR
STARTCHAR  00B7
ENCODING  183
SWIDTH  1000 0
DWIDTH  10 0
BBX  2 2 4 2
BITMAP
A080
E0A0
ENDCHAR
STARTCHAR  00D7
ENCODING  215
SWIDTH  1000 0
DWIDTH  10 0
BBX  6 7 2 -1
BITMAP
402000004020
40E01030E020
0060E0E03000
0010FFF00000
00C06080A000
60800000A030
000000000000
ENDCHAR
STARTCHAR  00F7
ENCODING  247
SWIDTH  1000 0
DWIDTH  10 0
BBX  7 5 1 0
BITMAP
000000A0000000
00000000000000
10F0F0F0F0F010
00000000000000
000000A0000000
ENDCHAR
STARTCHAR  02C7
ENCODING  711
SWIDTH  1000 0
DWIDTH  10 0
BBX  4 2 3 6
BITMAP
20608010
00C0A000
ENDCHAR
STARTCHAR  2014
ENCODING  8212
SWIDTH  1000 0
DWIDTH  10 0
BBX  10 1 0 3
BITMAP
A0F0F0F0F0F0F0F0F0C0
ENDCHAR
STARTCHAR  2018
ENCODING  8216
SWIDTH  1000 0
DWIDTH  10 0
BBX  2 3 6 4
BITMAP
2040
8060
3010
ENDCHAR
STARTCHAR  2019
ENCODING  8217
SWIDTH  1000 0
DWIDTH  10 0
BBX  2 3 2 4
BITMAP
4020
C020
4000
ENDCHAR
STARTCHAR  201C
ENCODING  8220
SWIDTH  1000 0
DWIDTH  10 0
BBX  4 3 5 4
BITMAP
00606000
00C0A040
00404020
ENDCHAR
STARTCHAR  201D
ENCODING  8221
SWIDTH  1000 0
DWIDTH  10 0
BBX  4 3 0 4
BITMAP
00606020
00E0C010
00404000
ENDCHAR
STARTCHAR  2026
ENCODING  8230
SWIDTH  1000 0
DWIDTH  6 0
BBX  6 1 0 2
BITMAP
40808040A010
ENDCHAR
STARTCHAR  2030
ENCODING  8240
SWIDTH  1000 0
DWIDTH  11 0
BBX  7 9 2 -2
BITMAP
A0A00080000000
E0E020A0000000
E0E06040000000
A0A0A000000000
0010FFF060C0A0
0060FF10E010E0
00A0E010E010E0
00A080F080C0A0
00000000000000
ENDCHAR
STARTCHAR  2032
ENCODING  8242
SWIDTH  1000 0
DWIDTH  5 0
BBX  3 3 0 4
BITMAP
002060
00A060
10C000
ENDCHAR
STARTCHAR  2033
ENCODING  8243
SWIDTH  1000 0
DWIDTH  5 0
BBX  5 3 0 4
BITMAP
0020606020
00A060E010
10C0406000
ENDCHAR
STARTCHAR  2103
ENCODING  8451
SWIDTH  1000 0
DWIDTH  10 0
BBX  7 7 1 -1
BITMAP
A0C030A0C06000
80E0E03010A060
00806000001010
00C03000000000
00A04000000000
0030E010004040
000060E0E0A010
ENDCHAR
STARTCHAR  2116
ENCODING  8470
SWIDTH  1000 0
DWIDTH  5 0
BBX  0 0 0 0
BITMAP
ENDCHAR
STARTCHAR  2160
ENCODING  8544
SWIDTH  1000 0
DWIDTH  10 0
BBX  3 8 3 -1
BITMAP
A0FFA0
00E000
00E000
00E000
00E000
00E000
00E000
A0FFA0
ENDCHAR
STARTCHAR  2161
ENCODING  8545
SWIDTH  1000 0
DWIDTH  11 0
BBX  7 8 2 -1
BITMAP
10F0FFF0FFF010
0000E000E00000
0000E000E00000
0000E000E00000
0000E000E00000
0000E000E00000
0000E000E00000
10F0FFF0FFF010
ENDCHAR
STARTCHAR  2162
ENCODING  8546
SWIDTH  1000 0
DWIDTH  11 0
BBX  7 9 2 -2
BITMAP
A0FFFFFFFFFFA0
60FFA0FFA0FF60
00E000E000E000
00E000E000E000
00E000E000E000
00E000E000E000
00E000E000E000
A0FFF0FFF0FFA0
00000000000000
ENDCHAR
STARTCHAR  2163
ENCODING  8547
SWIDTH  1000 0
DWIDTH  10 0
BBX  9 9 1 -2
BITMAP
A0FFC0F0000010FF00
00E000A04000408000
00E000608000804000
00E00020A000C01000
00E00000C000C00000
00E00000A040A00000
00E0000060C0600000
A0FFA00020FF100000
000000000000000000
ENDCHAR
STARTCHAR  2164
ENCODING  8548
SWIDTH  1000 0
DWIDTH  10 0
BBX  6 8 2 -1
BITMAP
E060000060E0
40A00000A040
00E00000E000
00C02020C000
008060608000
0030A0A03000
0000E0E00000
0000C0A00000
ENDCHAR
STARTCHAR  2165
ENCODING  8549
SWIDTH  1000 0
DWIDTH  10 0
BBX  9 9 0 -2
BITMAP
00FF100000F0C0FFA0
0080400030A000E000
00408000606000E000
0010C000A02000E000
0000C000C00000E000
0000A040A00000E000
000060C0600000E000
000010FF3000A0FFA0
000000000000000000
ENDCHAR
STARTCHAR  2166
ENCODING  8550
SWIDTH  1000 0
DWIDTH  10 0
BBX  9 9 0 -2
BITMAP
00F00000E0C0FFFFA0
00C02010C000E0E000
00804030A000E0E000
004080606000E0E000
0020A0A03000E0E000
0000C0C00000E0E000
0000C0E00000E0E000
0000A0E000A0FFFFA0
000000000000000000
ENDCHAR
STARTCHAR  2167
ENCODING  8551
SWIDTH  1000 0
DWIDTH  9 0
BBX  9 9 0 -2
BITMAP
A04000A0C0FFFFFF80
606000E000E0E0E000
30A000C000E0E0E000
00C030A000E0E0E000
00C0606000E0E0E000
00A0A04000E0E0E000
0080FF1000E0E0E000
0040FF0080FFFFFF80
000000000000000000
ENDCHAR
STARTCHAR  2168
ENCODING  8552
SWIDTH  1000 0
DWIDTH  10 0
BBX  8 9 1 -2
BITMAP
A0FFA0E01000A060
00E000808020E000
00E00010E0A06000
00E0000080FF0000
00E00000A0FF0000
00E00010E0806000
00E000806010E000
A0FFC0E010008060
0000003000001020
ENDCHAR
STARTCHAR  2169
ENCODING  8553
SWIDTH  1000 0
DWIDTH  10 0
BBX  7 8 1 -1
BITMAP
00C040000060A0
0020E01020E010
000060A0C04000
000000FFF00000
000020F0E01000
0000C04060A000
0060800000A060
00A010000010A0
ENDCHAR
STARTCHAR  216A
ENCODING  8554
SWIDTH  1000 0
DWIDTH  10 0
BBX  8 9 1 -2
BITMAP
60A00010E0A0FFA0
00E020808000E000
0060A0E01000E000
0000FF800000E000
0000FFA00000E000
006080E01000E000
00E010608000E000
60800010E0C0FFA0
2010000030000000
ENDCHAR
STARTCHAR  216B
ENCODING  8555
SWIDTH  1000 0
DWIDTH  10 0
BBX  9 9 0 -2
BITMAP
10E00000C0A0FFFF80
00806030C000E0E000
0020E0A04000E0E000
0000C0FF0000E0E000
0000C0FF0000E0E000
0020C0A04000E0E000
00A04030C000E0E000
20E00000A0A0FFFF80
002000002010000000
ENDCHAR
STARTCHAR  2170
ENCODING  8560
SWIDTH  1000 0
DWIDTH  10 0
BBX  1 7 4 0
BITMAP
E0
00
E0
E0
E0
E0
E0
ENDCHAR
STARTCHAR  2171
ENCODING  8561
SWIDTH  1000 0
DWIDTH  11 0
BBX  3 7 4 0
BITMAP
E000E0
000000
E000E0
E000E0
E000E0
E000E0
E000E0
ENDCHAR
STARTCHAR  2172
ENCODING  8562
SWIDTH  1000 0
DWIDTH  11 0
BBX  5 7 3 0
BITMAP
E000E000E0
0000000000
E000E000E0
E000E000E0
E000E000E0
E000E000E0
E000E000E0
ENDCHAR
STARTCHAR  2173
ENCODING  8563
SWIDTH  1000 0
DWIDTH  10 0
BBX  6 8 2 -1
BITMAP
E00000000000
000000000000
E0A060006080
E030C000C010
E000E030C000
E00080E06000
E00020FF1000
000000000000
ENDCHAR
STARTCHAR  2174
ENCODING  8564
SWIDTH  1000 0
DWIDTH  10 0
BBX  5 5 2 -1
BITMAP
60800040A0
10E000A040
00A030E000
0060E08000
0010FF3000
ENDCHAR
STARTCHAR  2175
ENCODING  8565
SWIDTH  1000 0
DWIDTH  10 0
BBX  6 7 1 0
BITMAP
0000000000E0
000000000000
8060006080E0
20C000C020E0
00C030C000E0
0060E08000E0
0010FF2000E0
ENDCHAR
STARTCHAR  2176
ENCODING  8566
SWIDTH  1000 0
DWIDTH  9 0
BBX  7 7 0 0
BITMAP
0000000000E0E0
00000000000000
40A0006080E0E0
00E010C020E0E0
008060E000E0E0
0040F08000E0E0
0000FF3000E0E0
ENDCHAR
STARTCHAR  2177
ENCODING  8567
SWIDTH  1000 0
DWIDTH  10 0
BBX  7 8 1 -1
BITMAP
00000000E0E0E0
00000000000000
C02030A0E0E0E0
60608060E0E0E0
20A0C010E0E0E0
00E0E000E0E0E0
00C0A000E0E0E0
00000000000000
ENDCHAR
STARTCHAR  2178
ENCODING  8568
SWIDTH  1000 0
DWIDTH  10 0
BBX  6 8 2 -1
BITMAP
E00000000000
000000000000
E040A010E000
E000C0E08000
E00060FF1000
E000E0A0A000
E0408000A010
000000000000
ENDCHAR
STARTCHAR  2179
ENCODING  8569
SWIDTH  1000 0
DWIDTH  10 0
BBX  4 5 3 -1
BITMAP
C03040A0
30E0E020
00FFE000
60C0E030
A0103080
ENDCHAR
STARTCHAR  221E
ENCODING  8734
SWIDTH  1000 0
DWIDTH  10 0
BBX  8 3 1 1
BITMAP
30C0A03030A0C030
C02020FFFF2020C0
60E0C08080C0E060
ENDCHAR
STARTCHAR  2234
ENCODING  8756
SWIDTH  1000 0
DWIDTH  10 0
BBX  6 5 2 0
BITMAP
000010E00000
000000100000
000000000000
001000000010
10E0000010E0
ENDCHAR
STARTCHAR  2235
ENCODING  8757
SWIDTH  1000 0
DWIDTH  10 0
BBX  6 5 2 0
BITMAP
10E0000010E0
001000000010
000000000000
000000100000
000010E00000
ENDCHAR
STARTCHAR  2460
ENCODING  9312
SWIDTH  1000 0
DWIDTH  9 0
BBX  7 8 1 -1
BITMAP
0040E0F0E04000
30E0400040E030
A04040F00040A0
E00020E00000E0
E00000E00000E0
A04000E00040A0
30E040E040E030
0040E0F0E04000
ENDCHAR
STARTCHAR  2461
ENCODING  9313
SWIDTH  1000 0
DWIDTH  9 0
BBX  7 8 1 -1
BITMAP
0040E0F0E04000
30E080F0A0E030
A0408010E040A0
E0001020C000E0
E00000A01000E0
A04080400040A0
30E0FFF0FFE030
0040E0F0E04000
ENDCHAR
STARTCHAR  2462
ENCODING  9314
SWIDTH  1000 0
DWIDTH  9 0
BBX  7 8 1 -1
BITMAP
0040E0F0E04000
30E0606060E030
A0403000E040A0
E00000FFE000E0
E00010004000E0
A04080406040A0
30E0406040E030
0040E0F0E04000
ENDCHAR
STARTCHAR  2463
ENCODING  9315
SWIDTH  1000 0
DWIDTH  9 0
BBX  7 8 1 -1
BITMAP
0040E0F0E04000
30E04040FFE030
A04000A0E040A0
E0004060E000E0
E000A010E000E0
A040F0F0FF80A0
30E04000FFE030
0040E0F0E04000
ENDCHAR
STARTCHAR  2464
ENCODING  9316
SWIDTH  1000 0
DWIDTH  9 0
BBX  7 8 1 -1
BITMAP
0040E0F0E04000
30E080F0C0E030
A04080100040A0
E000A0A08000E0
E00010008020E0
A0408030A060A0
30E0406060E030
0040E0F0E04000
ENDCHAR
STARTCHAR  2465
ENCODING  9317
SWIDTH  1000 0
DWIDTH  9 0
BBX  7 8 1 -1
BITMAP
0040E0F0E04000
30E0403040E030
A04000800040A0
E00080FF4000E0
E000F0300000E0
A040A0300040A0
30E080E080E030
0040E0F0E04000
ENDCHAR
STARTCHAR  2466
ENCODING  9318
SWIDTH  1000 0
DWIDTH  9 0
BBX  7 8 1 -1
BITMAP
0040E0F0E04000
30E0E0F0E0E030
A04000106040A0
E00000403000E0
E00000800000E0
A04000800040A0
30E0403040E030
0040E0F0E04000
ENDCHAR
STARTCHAR  2467
ENCODING  9319
SWIDTH  1000 0
DWIDTH  9 0
BBX  7 8 1 -1
BITMAP
0040E0F0E04000
30E0C0F0C0E030
A040E020E040A0
E000E0FFE000E0
E000E020E000E0
A040E020E040A0
30E0A0F0A0E030
0040E0F0E04000
ENDCHAR
STARTCHAR  2468
ENCODING  9320
SWIDTH  1000 0
DWIDTH  9 0
BBX  7 8 1 -1
BITMAP
0040E0F0E04000
30E080E080E030
A040A0401040A0
E000A0404000E0
E00040FFA000E0
A04000801040A0
30E0406040E030
0040E0F0E04000
ENDCHAR
STARTCHAR  2469
ENCODING  9321
SWIDTH  1000 0
DWIDTH  9 0
BBX  7 8 1 -1
BITMAP
0040E0F0E04000
30FFFF40FFFF30
A0A0E0C040FFA0
E000E0E000E0E0
E000E0E000E0E0
A040E0C040FFA0
30E0FF60FFFF30
0040E0F0E04000
ENDCHAR
STARTCHAR  2474
ENCODING  9332
SWIDTH  1000 0
DWIDTH  10 0
BBX  9 8 1 -1
BITMAP
004000000000003000
10A00060F00000C000
40600060E00000A020
60400000E000008040
60400000E000006040
60600000E000008030
20800000E00000A000
008000000000008000
ENDCHAR
STARTCHAR  2475
ENCODING  9333
SWIDTH  1000 0
DWIDTH  10 0
BBX  9 8 1 -1
BITMAP
001000000000001000
10A000A0E06010A000
4060408010E000C000
6040001030C000A010
80300020C020008020
604020C0200000A010
408060F0F0F000C000
008000000000108000
ENDCHAR
STARTCHAR  2476
ENCODING  9334
SWIDTH  1000 0
DWIDTH  10 0
BBX  8 8 1 -1
BITMAP
1020000000002010
606020E0E0306060
A0203020408010A0
A00000E0FF4000A0
A000000030A000A0
A010802020A010A0
606030E0E0304080
1040000000003020
ENDCHAR
STARTCHAR  2477
ENCODING  9335
SWIDTH  1000 0
DWIDTH  10 0
BBX  9 8 0 -1
BITMAP
004010000000003020
00C0000040F0004060
00A00010E0E00010A0
10A0008060E00000C0
208020C000E00000A0
10A060F0F0FF8000A0
00C0000000E0004080
006010000000004020
ENDCHAR
STARTCHAR  2478
ENCODING  9336
SWIDTH  1000 0
DWIDTH  10 0
BBX  8 8 1 -1
BITMAP
2040000000003010
604010F0F0406060
A0103080000010A0
A00060E0A01000A0
A0002030408000A0
A0106020308010A0
604030C0C0204060
1030000000003010
ENDCHAR
STARTCHAR  2479
ENCODING  9337
SWIDTH  1000 0
DWIDTH  10 0
BBX  9 8 0 -1
BITMAP
002000000000001000
00A010008030008020
00C00010C000004060
10A000E0FFC0102080
208000FF60206010A0
10A000F06020602080
00C00060F0C0106060
006010000000006010
ENDCHAR
STARTCHAR  247A
ENCODING  9338
SWIDTH  1000 0
DWIDTH  10 0
BBX  8 8 1 -1
BITMAP
1060000000003020
606080F0F0604080
80200000803000A0
A0000000A00000A0
A0000010A00000A0
80200060600000A0
4060006010004080
0030000000002020
ENDCHAR
STARTCHAR  247B
ENCODING  9339
SWIDTH  1000 0
DWIDTH  10 0
BBX  9 8 1 -1
BITMAP
004000000000004000
20A00080F08000C000
606000E020E000A010
803000FFFFE0008030
8030604020E0008040
6040604020E000A020
20A000A0F06000C000
004000000000104000
ENDCHAR
STARTCHAR  247C
ENCODING  9340
SWIDTH  1000 0
DWIDTH  9 0
BBX  9 8 0 -1
BITMAP
004010000000104000
00C00060F06000C000
00A000F0602000A010
20A000F06080008020
20800060FFF0008020
10A00000803000A010
00C00000A00000C000
004010000000104000
ENDCHAR
STARTCHAR  247D
ENCODING  9341
SWIDTH  1000 0
DWIDTH  10 0
BBX  9 8 0 -1
BITMAP
00402000000010A010
00A060E040F040A060
00C080E0C040C03080
00A000E0E000E000A0
00A000E0E000E000A0
00C000E0C040C04080
00A010E040F040C040
003010000000106000
ENDCHAR
STARTCHAR  247E
ENCODING  9342
SWIDTH  1000 0
DWIDTH  10 0
BBX  8 8 1 -1
BITMAP
1080000000004030
406060F060F03080
804060E060E000A0
802000E000E000C0
802000E000E000A0
604000E000E010A0
308000E000E04060
0040000000002010
ENDCHAR
STARTCHAR  247F
ENCODING  9343
SWIDTH  1000 0
DWIDTH  10 0
BBX  8 8 1 -1
BITMAP
3040200010100030
80A0F030C0C08080
A040E0602000E0A0
A000E0000060A0C0
A000E00060C010A0
A010E040E02010A0
6040C0A0E0E0E060
1030000000000010
ENDCHAR
STARTCHAR  2480
ENCODING  9344
SWIDTH  1000 0
DWIDTH  10 0
BBX  9 8 0 -1
BITMAP
003010000000003000
00A060F060E0C08040
00A060E04010806080
00A000E000FFFF20A0
00A000E000008060A0
00A000E0A000608080
00A010E060E0C06040
004010000000004000
ENDCHAR
STARTCHAR  2481
ENCODING  9345
SWIDTH  1000 0
DWIDTH  10 0
BBX  8 8 1 -1
BITMAP
3020000000002000
8080F00040F06060
A060E000A0E01080
A000E04080E000A0
A000E0A010E000A0
A000E0F0F0FF80A0
8010E00000E04060
3020000000004010
ENDCHAR
STARTCHAR  2482
ENCODING  9346
SWIDTH  1000 0
DWIDTH  10 0
BBX  9 8 0 -1
BITMAP
004020000000004000
00A060E040F0C0A000
00A080E08030008030
00A000E0A0C0406040
00A000E04030C06040
00A000E06000A08030
00A010E060C080A000
003010000000004000
ENDCHAR
STARTCHAR  2483
ENCODING  9347
SWIDTH  1000 0
DWIDTH  10 0
BBX  9 8 0 -1
BITMAP
004020000000008010
00A060F000A0006060
00A060E010A0002080
00A000E0E0FF8000A0
00A000E0FF108000A0
00A000E0C010803080
00A010E060F0808040
003010000000006000
ENDCHAR
STARTCHAR  2484
ENCODING  9348
SWIDTH  1000 0
DWIDTH  10 0
BBX  9 8 0 -1
BITMAP
006020000000006020
00A040E0A0F0F08060
00A060E00000A020A0
00A000E00000C000A0
00A000E000308000A0
00A000E00080302080
00A010E000A0006040
002000000000002000
ENDCHAR
STARTCHAR  2485
ENCODING  9349
SWIDTH  1000 0
DWIDTH  10 0
BBX  9 8 0 -1
BITMAP
004010000000006010
00A040E060F0808060
00A060E0C020E02080
00A000E0A0FFFF10A0
00A000E0E0203080A0
00A000E0E02040A080
00A010E060E0C08060
003010000000006010
ENDCHAR
STARTCHAR  2486
ENCODING  9350
SWIDTH  1000 0
DWIDTH  10 0
BBX  9 8 0 -1
BITMAP
003010000000006000
00A040F060F080A040
00A080E0E020603080
00A000E0E020C01080
00A000E060FFFF0080
00A000E00080402080
00A010E000A0008040
003010000000006000
ENDCHAR
STARTCHAR  2487
ENCODING  9351
SWIDTH  1000 0
DWIDTH  10 0
BBX  10 8 0 -1
BITMAP
00300000000000203000
00A060F08040F080A000
1080C010C0C040C0A000
30601000C0E000E08000
406000A040E000E08010
2080806000C040C08000
00A0E0F0F060F060A000
00600000000000304000
ENDCHAR
STARTCHAR  2488
ENCODING  9352
SWIDTH  1000 0
DWIDTH  10 0
BBX  5 8 2 -1
BITMAP
0060F00000
10E0E00000
0000E00000
0000E00000
0000E00000
0000E00000
0000E00000
0000E010A0
ENDCHAR
STARTCHAR  2489
ENCODING  9353
SWIDTH  1000 0
DWIDTH  10 0
BBX  7 8 1 -1
BITMAP
0060F0E0300000
20E01040C00000
40600000E00000
00000060A00000
000030E0100000
0020E020000000
10E03000000000
60FFF0F0F030A0
ENDCHAR
STARTCHAR  248A
ENCODING  9354
SWIDTH  1000 0
DWIDTH  10 0
BBX  6 8 2 -1
BITMAP
00A0F0E02000
30800040C000
00000040C000
0040FFFF4000
00000060E000
20000000E000
80600010C000
10A0C0C030C0
ENDCHAR
STARTCHAR  248B
ENCODING  9355
SWIDTH  1000 0
DWIDTH  10 0
BBX  8 8 1 -1
BITMAP
000060F000000000
0010E0E000000000
008060E000000000
20C000E000000000
A04000E000000000
E0F0F0FFE0000000
000000E000000000
000000E00000A010
ENDCHAR
STARTCHAR  248C
ENCODING  9356
SWIDTH  1000 0
DWIDTH  10 0
BBX  7 8 2 -1
BITMAP
00C0F0F0600000
00E00000000000
10C00000000000
40E0E0A0100000
20803080800000
00000010C00000
80400030A00000
10A080A010A020
ENDCHAR
STARTCHAR  248D
ENCODING  9357
SWIDTH  1000 0
DWIDTH  11 0
BBX  7 8 2 -1
BITMAP
00008020000000
0020E000000000
00A06000000000
40FFF0C0200000
FFA00060A00000
E0000000E00000
C0600060A00000
20C0F0C020C000
ENDCHAR
STARTCHAR  248E
ENCODING  9358
SWIDTH  1000 0
DWIDTH  10 0
BBX  6 9 2 -2
BITMAP
C0F0F0FF4000
000000C01000
000010C00000
000060800000
0000A0300000
0000C0000000
0020A0000000
00606000A020
000000000000
ENDCHAR
STARTCHAR  248F
ENCODING  9359
SWIDTH  1000 0
DWIDTH  10 0
BBX  7 8 1 -1
BITMAP
00A0F0A0000000
40E00080400000
40E01080400000
20FFFFFF200000
A0600060A00000
E0000000E00000
C0600060C00000
20C0F0C02020A0
ENDCHAR
STARTCHAR  2490
ENCODING  9360
SWIDTH  1000 0
DWIDTH  11 0
BBX  6 9 2 -2
BITMAP
20C0F0C02000
C0600060C000
E0000000E000
A06000A0FF00
20C0F0FF6000
000030C00000
0000A0400000
0030E0008030
000020000000
ENDCHAR
STARTCHAR  2491
ENCODING  9361
SWIDTH  1000 0
DWIDTH  10 0
BBX  9 8 0 -1
BITMAP
0060F000A0F0A00000
20E0E080A000A08000
0010E0C0200020C000
0000E0E0000000E000
0000E0E0000000E000
0000E0C0200020C000
0000E080A000A06000
0000E000A0F0A04080
ENDCHAR
STARTCHAR  2492
ENCODING  9362
SWIDTH  1000 0
DWIDTH  10 0
BBX  8 8 0 -1
BITMAP
0060F00080F00000
20E0E030E0E00000
0010E00010E00000
0000E00000E00000
0000E00000E00000
0000E00000E00000
0000E00000E00000
0000E00000E020A0
ENDCHAR
STARTCHAR  2493
ENCODING  9363
SWIDTH  1000 0
DWIDTH  10 0
BBX  11 8 -1 -1
BITMAP
0060F00060F0E030000000
20E0E020E01040C0000000
0010E040600000E0000000
0000E000000040C0000000
0000E0000030E020000000
0000E00020E03000000000
0000E010E0300000000000
0000E060FFF0F0F020A020
ENDCHAR
STARTCHAR  2494
ENCODING  9364
SWIDTH  1000 0
DWIDTH  10 0
BBX  10 9 0 -1
BITMAP
00000000000000000000
0060F010C0F0A0000000
20E0E0406000A0600000
0000E0000000A0600000
0000E00080FFFF100000
0000E000000080800000
0000E010000010C00000
0000E0A0200030A00000
0000E020C0A0A010A020
ENDCHAR
STARTCHAR  2495
ENCODING  9365
SWIDTH  1000 0
DWIDTH  10 0
BBX  10 8 0 -1
BITMAP
0060F0000040F0000000
20E0E00000C0E0000000
0010E00030A0E0000000
0000E000A020E0000000
0000E020A000E0000000
0000E0A04000E0000000
0000E0E0F0F0FFE00000
0000E0000000E000A010
ENDCHAR
STARTCHAR  2496
ENCODING  9366
SWIDTH  1000 0
DWIDTH  10 0
BBX  10 8 0 -1
BITMAP
0060F000A0F0F0800000
20E0E000E00000000000
0010E010C00000000000
0000E030F0E0A0100000
0000E010802080A00000
0000E000000000C00000
0000E080600020A00000
0000E010A0A0A020A010
ENDCHAR
STARTCHAR  2497
ENCODING  9367
SWIDTH  1000 0
DWIDTH  11 0
BBX  9 9 0 -1
BITMAP
000000000010000000
0060F00000C0300000
20E0E00030C0000000
0010E000A040000000
0000E040FFF0C02000
0000E0FFA00060C000
0000E0E0000000E000
0000E0C0600060C000
0000E020C0F0C020C0
ENDCHAR
STARTCHAR  2498
ENCODING  9368
SWIDTH  1000 0
DWIDTH  10 0
BBX  9 9 0 -2
BITMAP
0060F060F0F0F0A000
20C0E0000000806000
0000E0000000C01000
0000E0000010E00000
0000E0000040800000
0000E00000A0400000
0000E00000E0000000
0000E00010C00020A0
000000000000000000
ENDCHAR
STARTCHAR  2499
ENCODING  9369
SWIDTH  1000 0
DWIDTH  10 0
BBX  9 8 0 -1
BITMAP
0060F000A0F0E04000
20E0E040FF3020E000
0010E040FF3020E000
0000E020FFFFFF4000
0000E0A0600060A000
0000E0E0000000E000
0000E0C0600060A000
0000E020C0F0C020C0
ENDCHAR
STARTCHAR  249A
ENCODING  9370
SWIDTH  1000 0
DWIDTH  10 0
BBX  9 9 0 -2
BITMAP
0060F020C0F0C02000
10E0E0C0600060C000
0020E0E0000000E000
0000E0A06000A0FF00
0000E010C0F0FF6000
0000E0000040C00000
0000E00000C0400000
0000E00030C0006060
000000000010000000
ENDCHAR
STARTCHAR  249B
ENCODING  9371
SWIDTH  1000 0
DWIDTH  11 0
BBX  10 8 0 -1
BITMAP
0060F0E02000A0F0A000
20E01040C080A000A080
40600000E0C0200020C0
00000060C0E0000000E0
000030E020E0000000E0
0020E03000C0200020C0
10E030000080A000A060
60FFF0F0F040A0F0A0C0
ENDCHAR
STARTCHAR  3001
ENCODING  12289
SWIDTH  1000 0
DWIDTH  10 0
BBX  3 4 1 -2
BITMAP
000000
808000
00A040
000000
ENDCHAR
STARTCHAR  3002
ENCODING  12290
SWIDTH  1000 0
DWIDTH  10 0
BBX  2 2 1 -1
BITMAP
A0C0
80C0
ENDCHAR
STARTCHAR  3003
ENCODING  12291
SWIDTH  1000 0
DWIDTH  10 0
BBX  4 2 0 4
BITMAP
00A08030
00A0C000
ENDCHAR
STARTCHAR  3005
ENCODING  12293
SWIDTH  1000 0
DWIDTH  10 0
BBX  6 7 2 -1
BITMAP
000020000000
0000C0200000
0080FFE0FF60
10C01030C000
0000C0FF2000
000010C06000
000000003000
ENDCHAR
STARTCHAR  3008
ENCODING  12296
SWIDTH  1000 0
DWIDTH  10 0
BBX  4 7 5 -1
BITMAP
00006000
00308000
00C01000
40800000
10C00000
00606000
0000A000
ENDCHAR
STARTCHAR  3009
ENCODING  12297
SWIDTH  1000 0
DWIDTH  10 0
BBX  3 7 1 -1
BITMAP
303000
10C000
008060
0000C0
004080
00C010
406000
ENDCHAR
STARTCHAR  300A
ENCODING  12298
SWIDTH  1000 0
DWIDTH  10 0
BBX  4 7 5 -1
BITMAP
00608060
00C0C010
60A08000
C0A01000
A0A06000
20A0C000
00A08020
ENDCHAR
STARTCHAR  300B
ENCODING  12299
SWIDTH  1000 0
DWIDTH  10 0
BBX  4 7 1 -1
BITMAP
A0801000
60A08000
00C0C010
0080A080
00A0A030
20A0C000
80806000
ENDCHAR
STARTCHAR  300C
ENCODING  12300
SWIDTH  1000 0
DWIDTH  10 0
BBX  2 5 6 1
BITMAP
F0C0
C000
C000
C000
2000
ENDCHAR
STARTCHAR  300D
ENCODING  12301
SWIDTH  1000 0
DWIDTH  10 0
BBX  3 5 1 -1
BITMAP
000020
0000C0
0000C0
0000C0
20C0C0
ENDCHAR
STARTCHAR  300E
ENCODING  12302
SWIDTH  1000 0
DWIDTH  10 0
BBX  3 5 6 1
BITMAP
E0C0A0
C0F0A0
C0C000
C0C000
E0A000
ENDCHAR
STARTCHAR  300F
ENCODING  12303
SWIDTH  1000 0
DWIDTH  10 0
BBX  3 5 2 -1
BITMAP
00C0A0
00C0C0
00C0C0
C0C0C0
F0C0C0
ENDCHAR
STARTCHAR  3010
ENCODING  12304
SWIDTH  1000 0
DWIDTH  10 0
BBX  3 7 6 -1
BITMAP
E0A000
FF6000
FF2000
FF0000
FF1000
FF6000
FFC000
ENDCHAR
STARTCHAR  3011
ENCODING  12305
SWIDTH  1000 0
DWIDTH  10 0
BBX  3 7 1 -1
BITMAP
00C0E0
0060F0
0020F0
0000F0
0010F0
0060F0
00E0F0
ENDCHAR
STARTCHAR  3013
ENCODING  12307
SWIDTH  1000 0
DWIDTH  10 0
BBX  6 3 2 1
BITMAP
20E0E0E0E000
000000000000
20E0E0E0E000
ENDCHAR
STARTCHAR  3014
ENCODING  12308
SWIDTH  1000 0
DWIDTH  10 0
BBX  2 8 7 -2
BITMAP
4060
E020
E000
E000
E000
E000
6060
0000
ENDCHAR
STARTCHAR  3015
ENCODING  12309
SWIDTH  1000 0
DWIDTH  10 0
BBX  2 8 1 -2
BITMAP
6040
20E0
00E0
00E0
00E0
00E0
6060
0000
ENDCHAR
STARTCHAR  3220
ENCODING  12832
SWIDTH  1000 0
DWIDTH  10 0
BBX  10 7 0 -1
BITMAP
00401000000000004000
00C0000000000000A020
10A00000000000006060
208080C0C0C0C0C04060
20A00000000000004060
00C00000000000008030
00601000000000006000
ENDCHAR
STARTCHAR  3221
ENCODING  12833
SWIDTH  1000 0
DWIDTH  10 0
BBX  10 7 0 -1
BITMAP
00600000000000106000
308080C0C0C0C000C000
6040000000000000A010
80300000000000008020
6040000000000000A010
3080C0C0C0C0C080C000
00600000000000106000
ENDCHAR
STARTCHAR  3222
ENCODING  12834
SWIDTH  1000 0
DWIDTH  10 0
BBX  10 7 0 -1
BITMAP
00400000000000104000
20A080C0C0C0C000C000
6060000000000000A010
803000C0C0C0A0008020
6040000000000000A010
3080C0C0C0C0C080C000
00600000000000106000
ENDCHAR
STARTCHAR  3223
ENCODING  12835
SWIDTH  1000 0
DWIDTH  10 0
BBX  10 7 0 -1
BITMAP
00801020202020408000
20A0E0FFFFFFFFFFA010
4060C000C0C000C06040
6060C04080C000C06060
4060C06010A0A0C06040
10A0C0C0C0C0C0C0A010
00600000000000006000
ENDCHAR
STARTCHAR  3224
ENCODING  12836
SWIDTH  1000 0
DWIDTH  10 0
BBX  10 7 0 -1
BITMAP
00400000000000004000
00C000C0F0F0C0A0A020
20A00000604000006060
30800080FFE0F0003080
30800000A000C0004060
00A0A0FFFFFFFFE06040
00802030303030308000
ENDCHAR
STARTCHAR  3225
ENCODING  12837
SWIDTH  1000 0
DWIDTH  10 0
BBX  10 7 0 -1
BITMAP
00401000101000004000
00C0000030600000A020
10A080C0C0C0C0C06060
20800020601060004060
10A000A03000A0104060
00C04080000030A08030
00602000000000206000
ENDCHAR
STARTCHAR  3226
ENCODING  12838
SWIDTH  1000 0
DWIDTH  10 0
BBX  10 8 0 -2
BITMAP
00100000000000001000
00A02000A00000008040
00C00000C02040604080
00A060C0FF80604010A0
00A00000C000000000A0
00C00000C00000C03080
00802000C0C0C0808030
00000000000000000000
ENDCHAR
STARTCHAR  3227
ENCODING  12839
SWIDTH  1000 0
DWIDTH  10 0
BBX  10 7 0 -1
BITMAP
00400020000020004000
10A000C00000C0008030
406000C00000C0004060
604000C00000C0003080
60604080000080404060
20A0C010000010C08040
00600000000000006000
ENDCHAR
STARTCHAR  3228
ENCODING  12840
SWIDTH  1000 0
DWIDTH  10 0
BBX  10 7 0 -1
BITMAP
00200000200000002000
00A02000C0002000A010
00A020C0FFC0FF206060
00A00020A000FF204080
00A000804000FF604060
00A040A00000FFE0A020
00201010000000003000
ENDCHAR
STARTCHAR  3229
ENCODING  12841
SWIDTH  1000 0
DWIDTH  10 0
BBX  10 7 0 -1
BITMAP
00301000004000003000
00A0100000C000006040
00C0000000C000002080
00A060C0C0FFC0C030A0
00A0000000C0000010A0
00C0000000C000004060
0060200000A000006010
ENDCHAR
STARTCHAR  4E00
ENCODING  19968
SWIDTH  1000 0
DWIDTH  10 0
BBX  10 1 0 2
BITMAP
10E0E0E0E0E0E0E0E010
ENDCHAR
STARTCHAR  4E01
ENCODING  19969
SWIDTH  1000 0
DWIDTH  10 0
BBX  9 8 1 -2
BITMAP
E0E0E0E0F0E0E0E0C0
00000000E000000000
00000000E000000000
00000000E000000000
00000000E000000000
00000000E000000000
00000000E000000000
000020E0A000000000
ENDCHAR
STARTCHAR  4E03
ENCODING  19971
SWIDTH  1000 0
DWIDTH  10 0
BBX  10 8 0 -2
BITMAP
000000E0000000000000
000000E0000000000000
002040E080A0C0E0E010
60A080E0603010000000
000000E0000000000000
000000E0000000000000
000000E000000000E000
000000A0E0E0E0E0A000
ENDCHAR
STARTCHAR  4E07
ENCODING  19975
SWIDTH  1000 0
DWIDTH  10 0
BBX  9 7 1 -1
BITMAP
E0E0F0E0E0E0E0E080
0000E0000000006000
0000F0E0E0E0E0E000
0030A000000000E000
00A06000000000E000
30C00000000000E000
A020000080E0E0A000
ENDCHAR
STARTCHAR  4E08
ENCODING  19976
SWIDTH  1000 0
DWIDTH  10 0
BBX  9 9 1 -2
BITMAP
000000000010000000
0000000000E0000000
E0E0E0E0E0F0E0E080
0000000000E0000000
00C0801040A0000000
000060E0E040000000
000000A0C0C0400000
3060E0800020C0A010
806010000000006030
ENDCHAR
STARTCHAR  4E09
ENCODING  19977
SWIDTH  1000 0
DWIDTH  10 0
BBX  8 7 1 -1
BITMAP
E0E0E0E0E0E0E040
0000000000000000
0000000000000000
30E0E0E0E0E0E000
0000000000000000
0000000000000000
E0E0E0E0E0E0E0A0
ENDCHAR
STARTCHAR  4E0A
ENCODING  19978
SWIDTH  1000 0
DWIDTH  10 0
BBX  9 8 1 -1
BITMAP
000000800000000000
000000E00000000000
000000E00000000000
000000E0E0E0E0C000
000000E00000000000
000000E00000000000
000000E00000000000
E0E0E0F0E0E0E0E0C0
ENDCHAR
STARTCHAR  4E0B
ENCODING  19979
SWIDTH  1000 0
DWIDTH  10 0
BBX  9 8 1 -2
BITMAP
E0E0E0F0E0E0E0E0C0
000000E00000000000
000000E00000000000
000000E080A0200000
000000E00040C0A010
000000E00000004000
000000E00000000000
000000800000000000
ENDCHAR
STARTCHAR  4E0C
ENCODING  19980
SWIDTH  1000 0
DWIDTH  10 0
BBX  9 8 0 -2
BITMAP
C0E0F0E0E0E0F0E0E0
0000E0000000E00000
0000E0000000E00000
0000E0000000E00000
0020C0000000E00000
00A040000000E00000
40C000000000E00000
602000000000A00000
ENDCHAR
STARTCHAR  4E0D
ENCODING  19981
SWIDTH  1000 0
DWIDTH  10 0
BBX  9 8 0 -2
BITMAP
A0E0E0E0FFE0E0E0E0
000000608000000000
000040C0E040A00000
0060C010E00060C010
60A01000E0000060A0
00000000E000000000
00000000E000000000
000000001000000000
ENDCHAR
STARTCHAR  4E0E
ENCODING  19982
SWIDTH  1000 0
DWIDTH  10 0
BBX  10 9 0 -2
BITMAP
00000000000000000000
00008040000000000000
0000A0E0E0E0E0E0E060
0000C000000000000000
0000C0E0E0E0E0E0E000
0000000000000000E000
20E0E0E0E0E0E000E000
0000000000000000E000
0000000000A0E0E0A000
ENDCHAR
STARTCHAR  4E10
ENCODING  19984
SWIDTH  1000 0
DWIDTH  10 0
BBX  9 8 0 -2
BITMAP
A0E0E0E0F0E0E0E0E0
00004010E000000000
0040C000E0E0E0E0A0
00E02000E000000000
20E0E0E0E0E0E0E0C0
0000000000000000E0
0000000000000000E0
00000040E0E0E0E080
ENDCHAR
STARTCHAR  4E11
ENCODING  19985
SWIDTH  1000 0
DWIDTH  10 0
BBX  9 8 1 -2
BITMAP
40E0E0F0E0E0E0E000
000000C0000000E000
000010C0000000C000
00E0E0F0E0E0E0A000
00004080000040A000
000060600000608000
000080400000606000
E0E0E0E0E0E0E0E0C0
ENDCHAR
STARTCHAR  4E13
ENCODING  19987
SWIDTH  1000 0
DWIDTH  10 0
BBX  9 9 1 -2
BITMAP
000000403000000000
40E0E0F0E0E0E0E010
000080800000000000
E0E0F0E0E0E0E0E0A0
00A060000000000000
00E0E0E0E0E0F0E000
004040101080C03000
006080C0E0F0803000
000000000020403000
ENDCHAR
STARTCHAR  4E14
ENCODING  19988
SWIDTH  1000 0
DWIDTH  10 0
BBX  9 8 1 -2
BITMAP
00C0E0E0E0E0E0A000
00E00000000000E000
00E0E0E0E0E0E0E000
00E00000000000E000
00E0E0E0E0E0E0E000
00E00000000000E000
00E00000000000E000
E0E0E0E0E0E0E0E0C0
ENDCHAR
STARTCHAR  4E15
ENCODING  19989
SWIDTH  1000 0
DWIDTH  10 0
BBX  9 8 1 -2
BITMAP
E0E0E0E0FFE0E0E0C0
00000040A000000000
000030C0C060400000
1080A010E020C0A010
A0600000E0000060A0
00000000E000000000
000000000000000000
E0E0E0E0E0E0E0E0C0
ENDCHAR
STARTCHAR  4E16
ENCODING  19990
SWIDTH  1000 0
DWIDTH  10 0
BBX  9 9 1 -2
BITMAP
000000400000400000
008000E00000E00000
E0F0E0F0E0E0F0E0C0
00E000E00000E00000
00E000E00000E00000
00E000E00000E00000
00E000C0E0E0C00000
00E000000000000000
00C0E0E0E0E0E0E040
ENDCHAR
STARTCHAR  4E18
ENCODING  19992
SWIDTH  1000 0
DWIDTH  10 0
BBX  9 9 0 -2
BITMAP
000000000000002000
00C0E0E0E0E0E0A000
00E000000000000000
00E0E0E0E0E0E0E020
00E000000000E00000
00E000000000E00000
00E000000000E00000
00E000000000E00000
A0E0E0E0E0E0E0E0E0
ENDCHAR
STARTCHAR  4E19
ENCODING  19993
SWIDTH  1000 0
DWIDTH  10 0
BBX  9 8 1 -2
BITMAP
E0E0E0E0F0E0E0E0C0
A0E0E0E0F0E0E08000
E0000030C00000E000
E00010C0406000E000
E020C06000C040E000
E02030000020A0E000
E0000000000000E000
A00000000010E0A000
ENDCHAR
STARTCHAR  4E1A
ENCODING  19994
SWIDTH  1000 0
DWIDTH  10 0
BBX  9 8 1 -2
BITMAP
000000C000C0000000
401000E000E0001040
806000E000E0008080
20E000E000E000E020
00C030E000E030C000
003010E000E0102000
000000E000E0000000
E0E0E0E0E0E0E0E0C0
ENDCHAR
STARTCHAR  4E1B
ENCODING  19995
SWIDTH  1000 0
DWIDTH  10 0
BBX  9 8 1 -2
BITMAP
0000C0000000C00000
0000E0000000E00000
0000E0000020C00000
0040F0600080F02000
00A040C040E040A000
60A00020A06000A040
601000008000002040
E0E0E0E0E0E0E0E0C0
ENDCHAR
STARTCHAR  4E1C
ENCODING  19996
SWIDTH  1000 0
DWIDTH  10 0
BBX  10 9 0 -2
BITMAP
00000010A00000000000
00E0E0E0F0E0E0E0E060
000060A0000000000000
0020E01000A000000000
00A0F0E0E0F0E0E0E000
0000203000E000400000
0000C04000E000A06000
0080A00000E00010E010
00800040E08000006030
ENDCHAR
STARTCHAR  4E1D
ENCODING  19997
SWIDTH  1000 0
DWIDTH  10 0
BBX  9 8 0 -1
BITMAP
000030000000102000
006080000000C04000
30C010600080802040
A0E0E08000F0E0E040
0060C0000000A06000
20E010000060A00000
A0E0E0E000FFE0E080
A0E0E0E0E0E0E0E0E0
ENDCHAR
STARTCHAR  4E1E
ENCODING  19998
SWIDTH  1000 0
DWIDTH  10 0
BBX  9 8 0 -2
BITMAP
0080E0E0E0E0FFFF00
000000A0C0FFA03000
80E0E0FFE0E0002080
00008080E080C0C030
10A08000E00080C010
806060E0E000004080
000000000000000000
A0E0E0E0E0E0E0E0E0
ENDCHAR
STARTCHAR  4E22
ENCODING  20002
SWIDTH  1000 0
DWIDTH  10 0
BBX  9 9 1 -2
BITMAP
000000000000002030
A0E0E0E0F0E0E0C060
00000000E000000000
80E0E0E0F0E0E0E000
E0E0E0E0F0E0E0E0C0
0020E0400000400000
10E060000000A06000
A0E0C0C0E0E0E0E010
202010000000002000
ENDCHAR
STARTCHAR  4E24
ENCODING  20004
SWIDTH  1000 0
DWIDTH  10 0
BBX  9 8 1 -2
BITMAP
E0E0E0F0E0F0E0E0C0
A0E0E0F0E0F0E0E0C0
E00020C000E00000E0
E000A0E030FF4000E0
E040E060E040E040E0
E0A0300080003020E0
E0000000000080E080
000000000000000000
ENDCHAR
STARTCHAR  4E25
ENCODING  20005
SWIDTH  1000 0
DWIDTH  10 0
BBX  10 8 0 -2
BITMAP
10E0E0F0E0E0F0E0E030
008030E00000E0406000
002060E00000E0601000
00E0E0E0E0E0E0E0C000
00E00000000000000000
00E00000000000000000
40A00000000000000000
40200000000000000000
ENDCHAR
STARTCHAR  4E27
ENCODING  20007
SWIDTH  1000 0
DWIDTH  10 0
BBX  9 9 1 -2
BITMAP
000000004000000000
E0E0E0E0F0E0E0E030
00803000E000604000
0030A000E010C00000
E0F0E0E0F0E0E0E0A0
00E00010E020206000
00E0001030E0E04000
30F0C0A00020C0A010
204000000000004010
ENDCHAR
STARTCHAR  4E28
ENCODING  20008
SWIDTH  1000 0
DWIDTH  10 0
BBX  1 8 5 -2
BITMAP
E0
E0
E0
E0
E0
E0
E0
A0
ENDCHAR
STARTCHAR  4E2A
ENCODING  20010
SWIDTH  1000 0
DWIDTH  10 0
BBX  10 9 0 -2
BITMAP
00000020000000000000
000040A0C0E0E0E01000
0000C02000000040C000
0080800000E00000A060
0060000000E000000040
0000000000E000000000
0000000000E000000000
0000000000E000000000
00000000004000000000
ENDCHAR
STARTCHAR  4E2B
ENCODING  20011
SWIDTH  1000 0
DWIDTH  10 0
BBX  9 9 1 -2
BITMAP
000000000000000010
60A01000000010C060
0060E0300030E04000
000030E06080200000
00000010E000000000
00000000E000000000
00000000E000000000
00000000E000000000
000000006000000000
ENDCHAR
STARTCHAR  4E2C
ENCODING  20012
SWIDTH  1000 0
DWIDTH  10 0
BBX  4 8 2 -2
BITMAP
002000E0
00E020E0
003080E0
000000E0
000010E0
0040E0F0
40C020E0
000000A0
ENDCHAR
STARTCHAR  4E2D
ENCODING  20013
SWIDTH  1000 0
DWIDTH  10 0
BBX  9 8 1 -2
BITMAP
00000000E000000000
E0E0E0E0F0E0E0E0A0
E0000000E0000000E0
E0000000E0000000E0
E0000000E0000000E0
E0E0E0E0F0E0E0E080
00000000E000000000
00000000A000000000
ENDCHAR
STARTCHAR  4E30
ENCODING  20016
SWIDTH  1000 0
DWIDTH  10 0
BBX  9 8 1 -2
BITMAP
00000000E000000000
E0E0E0E0F0E0E0E060
00000000E000000000
80E0E0E0F0E0E0E000
00000000E000000000
E0E0E0E0F0E0E0E0C0
00000000E000000000
00000000A000000000
ENDCHAR
STARTCHAR  4E32
ENCODING  20018
SWIDTH  1000 0
DWIDTH  10 0
BBX  8 9 1 -2
BITMAP
0000000000000020
A0E0E0E0F0E0E0E0
E0000000E00000E0
E0E0E0E0F0E0E0A0
00000000E0000010
F0E0E0E0F0E0E0F0
E0000000E00000E0
E0E0E0E0F0E0E0A0
00000000A0000000
ENDCHAR
STARTCHAR  4E34
ENCODING  20020
SWIDTH  1000 0
DWIDTH  10 0
BBX  9 9 1 -2
BITMAP
000000000000000000
10E000208000000000
E0E000A0E0E0E0E0C0
E0E040C040A0000000
E0E010100080300000
E0E000E0E0E0E0E0E0
E0E000E000E00000E0
E0E000E000E00000E0
00A000E0E0E0E0E080
ENDCHAR
STARTCHAR  4E36
ENCODING  20022
SWIDTH  1000 0
DWIDTH  10 0
BBX  4 4 3 0
BITMAP
00600000
00A08000
0000C040
00001000
ENDCHAR
STARTCHAR  4E38
ENCODING  20024
SWIDTH  1000 0
DWIDTH  10 0
BBX  10 8 0 -2
BITMAP
000000C0000000000000
0060E0F0E0E0E0C00000
000000E0000000E00000
006040C0000000E00000
0020E080000000E00000
0000E0C0600000E00000
00808010800000E000C0
00800000000000E0E080
ENDCHAR
STARTCHAR  4E39
ENCODING  20025
SWIDTH  1000 0
DWIDTH  10 0
BBX  9 8 1 -2
BITMAP
00E0E0E0E0E0E0A000
00E00040600000E000
00E00000C04000E000
E0F0E0E0E0E0E0F0A0
00E00000000000E000
30A00000000000E000
80600000000000E000
800000000020E08000
ENDCHAR
STARTCHAR  4E3A
ENCODING  20026
SWIDTH  1000 0
DWIDTH  10 0
BBX  9 8 0 -2
BITMAP
008020C00000000000
20E0F0F0E0E0E0E060
000000E000000000E0
000000E020A00000E0
000060800080A000E0
0030E01000008010E0
40C0200000000000E0
100000000000A0E080
ENDCHAR
STARTCHAR  4E3B
ENCODING  20027
SWIDTH  1000 0
DWIDTH  10 0
BBX  9 9 1 -2
BITMAP
000000604000000000
E0E0E0E0F0E0E0E040
00000000E000000000
00000000E000000000
40E0E0E0F0E0E0E020
00000000E000000000
00000000E000000000
00000000E000000000
E0E0E0E0E0E0E0E0A0
ENDCHAR
STARTCHAR  4E3D
ENCODING  20029
SWIDTH  1000 0
DWIDTH  10 0
BBX  9 8 0 -2
BITMAP
C0E0E0E0E0E0E0E0E0
A0E0E08000E0E0E060
E00000E000E00000E0
E0A020E000E0C000E0
E04080E000E08060E0
E00060E000E01060E0
E00000E000E00000E0
A000E0A000A020E080
ENDCHAR
STARTCHAR  4E3E
ENCODING  20030
SWIDTH  1000 0
DWIDTH  10 0
BBX  10 9 0 -2
BITMAP
00202000400000004000
0040C00080800080A000
00E0E0E0E0E0E0FFE000
0000C030000000A04000
10A060E0E0F0E080C010
3060000000E000002020
0060E0E0E0F0E0E0E000
0000000000E000000000
0000000000C000000000
ENDCHAR
STARTCHAR  4E3F
ENCODING  20031
SWIDTH  1000 0
DWIDTH  10 0
BBX  4 9 2 -2
BITMAP
00000040
000000E0
000000E0
000000E0
000010C0
000040A0
0010C030
10C06000
00400000
ENDCHAR
STARTCHAR  4E43
ENCODING  20035
SWIDTH  1000 0
DWIDTH  10 0
BBX  9 8 0 -2
BITMAP
0040E0F0E0E0E0E0E0
000000E0000040A080
000000E000A0FFE080
000000E000000000E0
000020C000000000E0
0000A06000000000E0
0060C00000000000E0
00801000000040E0A0
ENDCHAR
STARTCHAR  4E45
ENCODING  20037
SWIDTH  1000 0
DWIDTH  10 0
BBX  10 9 0 -2
BITMAP
00004020000000000000
0000E0E0E0E0E0F00000
00808000000010E00000
008000000010C0400000
0000000010C060000000
00000040E0E040000000
0020A0A01010A0A02000
30E0400000000040E020
00000000000000000000
ENDCHAR
STARTCHAR  4E47
ENCODING  20039
SWIDTH  1000 0
DWIDTH  10 0
BBX  10 9 0 -2
BITMAP
00000000102040608000
00A0E0E0F0A080604000
00000000E00000000000
00000000E00010304060
2080A0C0F0E0E0C0A060
30604030E00000000000
00000000E00000000000
00000000E000000000E0
00000000A0E0E0E0E080
ENDCHAR
STARTCHAR  4E48
ENCODING  20040
SWIDTH  1000 0
DWIDTH  10 0
BBX  10 9 0 -2
BITMAP
00000000100000000000
00000020E03000000000
000030E0300060200000
0040E0200080A0000000
20C02000A08000000000
000010A0800000100000
0010C060000000608000
00E0E0A0C0E0E0E0E030
00404020100000002010
ENDCHAR
STARTCHAR  4E49
ENCODING  20041
SWIDTH  1000 0
DWIDTH  10 0
BBX  10 9 0 -2
BITMAP
00000000200000000000
00801000C0300010A000
0040E02030C000A06000
000030E04010A0800000
00000010C0C080000000
00000020C0C080000000
000060E0300080C01000
20C0A01000000060E020
10300000000000003000
ENDCHAR
STARTCHAR  4E4B
ENCODING  20043
SWIDTH  1000 0
DWIDTH  10 0
BBX  10 9 0 -2
BITMAP
00000000000000000000
00000000806000000000
0080C0C0C0C0C0C0C000
00000000000000808000
00000000000080A00000
0000000010A080000000
00000040C04000000000
0080A0A0100000000000
208080C0C0C0C0C0C040
ENDCHAR
STARTCHAR  4E4C
ENCODING  20044
SWIDTH  1000 0
DWIDTH  10 0
BBX  8 9 1 -2
BITMAP
0000008000000000
00E0E0F0E0E0E0C0
00E00000000000E0
00E000000080E0A0
00F0E0E0E0E0E080
00000000000000E0
E0E0E0E0E0E0E0E0
00000000000000E0
00000000A0E0E0A0
ENDCHAR
STARTCHAR  4E4D
ENCODING  20045
SWIDTH  1000 0
DWIDTH  10 0
BBX  10 8 0 -2
BITMAP
00008040000000000000
0020E0E0F0E0E0E0E030
10C04000E00000000000
00200000F0E0E0E0A000
00000000E00000000000
00000000F0E0E0E0E020
00000000E00000000000
00000000A00000000000
ENDCHAR
STARTCHAR  4E4E
ENCODING  20046
SWIDTH  1000 0
DWIDTH  10 0
BBX  9 9 1 -2
BITMAP
000000000000003010
60E0E0E0E0E0E0A030
00600000E000004000
00C04000E000806000
00106000E000800000
E0E0E0E0F0E0E0E080
00000000E000000000
00000000E000000000
000080E08000000000
ENDCHAR
STARTCHAR  4E4F
ENCODING  20047
SWIDTH  1000 0
DWIDTH  10 0
BBX  10 9 0 -2
BITMAP
00000000000000001010
20E0E0E0E0E0E0E0C030
00000000A03000000000
00C0C0C0E0E0C0C0C000
00000000000000808000
000000000030C0800000
00000020A0C030000000
10C0A0C0400000000000
606080C0E0E0E0E0E040
ENDCHAR
STARTCHAR  4E50
ENCODING  20048
SWIDTH  1000 0
DWIDTH  10 0
BBX  9 9 1 -2
BITMAP
000000000000002000
20E0E0E0E0E0E0C010
408000000000000000
60600000C000000000
60E0E0E0F0E0E0E020
00304000E000801000
00C03000E000608000
80800000E00000E020
600030E08000004040
ENDCHAR
STARTCHAR  4E52
ENCODING  20050
SWIDTH  1000 0
DWIDTH  10 0
BBX  9 9 0 -2
BITMAP
000000000000003000
00E0E0E0E0E0E0A000
00E000000000000000
00E0E0E0E0E0F0E030
00E000000000E00000
80F0E0E0E0E0F0E0E0
006040000000000000
30A000000000000000
100000000000000000
ENDCHAR
STARTCHAR  4E53
ENCODING  20051
SWIDTH  1000 0
DWIDTH  10 0
BBX  9 9 0 -2
BITMAP
000000000000003000
00E0E0E0E0E0E0A000
00E000000000000000
00E0E0E0E0E0F0E030
00E000000000E00000
80F0E0E0E0E0F0E0E0
000000000000404000
00000000000010C010
000000000000001000
ENDCHAR
STARTCHAR  4E54
ENCODING  20052
SWIDTH  1000 0
DWIDTH  10 0
BBX  10 9 0 -2
BITMAP
00000000000000003000
0040E0E0E0F0E0E0A000
0000000020E000000000
00E0E0F0F0E0F0F0E0A0
001080E0300020E08000
00E080E0000000E0A060
000010E0000000E00000
0000C060000000E00000
00206000000000A00000
ENDCHAR
STARTCHAR  4E56
ENCODING  20054
SWIDTH  1000 0
DWIDTH  10 0
BBX  10 9 0 -2
BITMAP
00000000000000202000
0040E0E0E0F0E0C04000
30E0E0E0E0F0E0E0E030
0000003000E030000000
0080E0E000E0E0808000
000000E000E0E0601000
004080E000E0E000C000
10A040E000E0C0E0A000
00000000006000000000
ENDCHAR
STARTCHAR  4E58
ENCODING  20056
SWIDTH  1000 0
DWIDTH  10 0
BBX  9 9 1 -2
BITMAP
000000000000104000
60E0E0E0F0E0C08010
E0E0E0E0F0E0E0E080
4080C000E000C08000
4060E000E000E08000
A0E0E020E010F0E000
1010A0E0F0E0801000
80E08000E01080F040
300000006000002000
ENDCHAR
STARTCHAR  4E59
ENCODING  20057
SWIDTH  1000 0
DWIDTH  10 0
BBX  9 8 0 -1
BITMAP
000000000000000040
00E0E0E0E0E0E0E0E0
00000000000010C060
000000000040E04000
0000001080C0200000
000060E06000000000
10E0801000000000A0
10F0E0E0E0E0E0E0C0
ENDCHAR
STARTCHAR  4E5C
ENCODING  20060
SWIDTH  1000 0
DWIDTH  10 0
BBX  9 8 0 -2
BITMAP
0000E0000000000010
0000E0104080A0C0E0
30A0F0C080401000E0
1020E00000000000E0
0000E000000060E080
0000E0000000000000
0000E00000000000E0
0000A0E0E0E0E0E0A0
ENDCHAR
STARTCHAR  4E5D
ENCODING  20061
SWIDTH  1000 0
DWIDTH  10 0
BBX  10 9 0 -2
BITMAP
00000080000000000000
000000E0000000800000
00A0E0F0E0E0E0E00000
000000E0000000E00000
000030A0000000E00000
0000A040000000E00000
0060A000000000E000A0
10C01000000000F0E0A0
00000000000000000000
ENDCHAR
STARTCHAR  4E5E
ENCODING  20062
SWIDTH  1000 0
DWIDTH  10 0
BBX  10 8 0 -1
BITMAP
00006000000000000000
0040FFE0E0E0E0E0E0C0
10E02000000000006000
0030C0E0E0E0E0E0E000
00000000000060C06000
0000001060C080100010
0000A0E08010000000E0
0000FFE0E0E0E0E0E0A0
ENDCHAR
STARTCHAR  4E5F
ENCODING  20063
SWIDTH  1000 0
DWIDTH  10 0
BBX  10 8 0 -2
BITMAP
0000200000E000000000
0000E01030E080A0E000
10C0F0C080E04010E000
0000E00000E00000E000
0000E00000E040E0E000
0000E00000C000000000
0000E0000000000000E0
0000E0E0E0E0E0E0E080
ENDCHAR
STARTCHAR  4E60
ENCODING  20064
SWIDTH  1000 0
DWIDTH  10 0
BBX  8 8 1 -2
BITMAP
C0E0E0E0E0E0E0E0
00300000000000E0
0080E040000000E0
00002080001000E0
0000001080E010E0
001080E0600000E0
60E06000000000E0
2000000030E0E0A0
ENDCHAR
STARTCHAR  4E61
ENCODING  20065
SWIDTH  1000 0
DWIDTH  10 0
BBX  9 9 0 -2
BITMAP
000000002000000000
00000080C010000000
0030C080000040A010
00A0E0E0FFF0802000
0030A0C06010000080
10E0E0E0E0E0E0F0E0
000000002060E08010
2060A0E0C060100000
206030000000000000
ENDCHAR
STARTCHAR  4E66
ENCODING  20070
SWIDTH  1000 0
DWIDTH  10 0
BBX  10 8 0 -2
BITMAP
00000000E00000408000
0080E0E0F0E0E0E04010
00000000E00000E00000
00000000E00000E00000
60E0E0E0F0E0E0E0F000
00000000E0000000E000
00000000E00080E0E000
00000000A00000000000
ENDCHAR
STARTCHAR  4E69
ENCODING  20073
SWIDTH  1000 0
DWIDTH  10 0
BBX  9 9 1 -2
BITMAP
008000000080000000
00E0000000E0000000
00E0E0E020E0000000
00E0000000E0000000
E0F0E0F000E0000000
E00000E000E0000000
E00000E000E0000000
E00000E000E00000C0
E0E0E0A000C0E0E080
ENDCHAR
STARTCHAR  4E70
ENCODING  20080
SWIDTH  1000 0
DWIDTH  10 0
BBX  10 8 0 -2
BITMAP
00C0E0E0E0E0E0E0F000
0000808010C00040A000
0040806040E000601000
0000608030C000000000
10E0E0E0F0E0E0E0E030
000040E04010C0800000
10A0A02000000080C020
00300000000000002000
ENDCHAR
STARTCHAR  4E71
ENCODING  20081
SWIDTH  1000 0
DWIDTH  10 0
BBX  10 8 0 -2
BITMAP
00C0E0E0E080C0000000
000000E00000E0000000
20E0E0F0E0E0E0000000
000000E00020E0000000
00E0E0E0E0E0E0000000
00E0000000E0E0000000
00E0000000E0E00000C0
00C0E0E0E080A0E0E080
ENDCHAR
STARTCHAR  4E73
ENCODING  20083
SWIDTH  1000 0
DWIDTH  10 0
BBX  9 9 0 -2
BITMAP
000000001020000000
00E0E0E0C060C00000
008080A08060E00000
00C0E0E0FF80E00000
00000040E060E00000
000000F08040E00000
10E0F0F0C080E00000
002000E00000E000C0
0060E0800000A0E0A0
ENDCHAR
STARTCHAR  4E7E
ENCODING  20094
SWIDTH  1000 0
DWIDTH  10 0
BBX  10 9 0 -2
BITMAP
00008000003030000000
30E0F0E0C0A0E0E0E0A0
00E0F0E0E0A000000000
00E00000E040E0E0F000
00F0E0E0E0000020E000
00F0E0E0A00000C04000
0000E000000080800060
40E0F0E0E010C00000E0
0000A0000010E0E0E080
ENDCHAR
STARTCHAR  4E86
ENCODING  20102
SWIDTH  1000 0
DWIDTH  10 0
BBX  8 7 1 -1
BITMAP
A0E0E0E0E0E0E0FF
000000000040C080
00000000C0A01000
00000000E0000000
00000000E0000000
00000000E0000000
0000A0E0A0000000
ENDCHAR
STARTCHAR  4E88
ENCODING  20104
SWIDTH  1000 0
DWIDTH  10 0
BBX  9 8 1 -2
BITMAP
00E0E0E0E0E0E0E000
000010600080C03000
000000A0E080000000
A0E0E0E0FFE0E0E080
00000000E00000A040
00000000E000004000
00000000E000000000
000060E08000000000
ENDCHAR
STARTCHAR  4E89
ENCODING  20105
SWIDTH  1000 0
DWIDTH  10 0
BBX  9 9 0 -2
BITMAP
002040000000000000
00E0E0E0E0E0E06000
804000000040E04000
30E0E0E0F0E0E0F000
A0E0E0E0F0E0E0F0E0
00000000E00000E000
10E0E0E0F0E0E0C000
00000000E000000000
000060E08000000000
ENDCHAR
STARTCHAR  4E8B
ENCODING  20107
SWIDTH  1000 0
DWIDTH  10 0
BBX  9 8 0 -2
BITMAP
40E0E0E0F0E0E0E0E0
00C0E0E0F0E0E0E000
00E0E0E0F0E0E0C020
00A0E0E0F0E0E0E0E0
80E0E0E0F0E0E0E0F0
00A0E0E0F0E0E0E0A0
00000000E000000000
000020E08000000000
ENDCHAR
STARTCHAR  4E8C
ENCODING  20108
SWIDTH  1000 0
DWIDTH  10 0
BBX  10 5 0 0
BITMAP
0010E0E0E0E0E0E0E000
00000000000000000000
00000000000000000000
00000000000000000000
10E0E0E0E0E0E0E0E010
ENDCHAR
STARTCHAR  4E8D
ENCODING  20109
SWIDTH  1000 0
DWIDTH  10 0
BBX  9 8 1 -2
BITMAP
40E0E0E0E0E0E0E000
000000000000000000
E0E0E0E0E0E0E0E0A0
00000000E000000000
00000000E000000000
00000000E000000000
00000000E000000000
000060E08000000000
ENDCHAR
STARTCHAR  4E8E
ENCODING  20110
SWIDTH  1000 0
DWIDTH  10 0
BBX  9 8 0 -2
BITMAP
00E0E0E0F0E0E0E010
00000000E000000000
00000000E000000000
A0E0E0E0F0E0E0E0E0
00000000E000000000
00000000E000000000
00000000E000000000
000080E0A000000000
ENDCHAR
STARTCHAR  4E8F
ENCODING  20111
SWIDTH  1000 0
DWIDTH  10 0
BBX  9 7 0 -1
BITMAP
00E0E0E0E0E0E0E000
000000000000000000
80E0FFE0E0E0E0E0E0
00C080000000006000
00E0E0E0E0E0E0F000
00000000000000E000
000000A0E0E0E0E000
ENDCHAR
STARTCHAR  4E91
ENCODING  20113
SWIDTH  1000 0
DWIDTH  10 0
BBX  9 8 1 -2
BITMAP
00E0E0E0E0E0E08000
000000000000000000
E0E0E0E0E0E0E0E080
000030E01000000000
0020E0200000600000
10E030000010A06000
A0E0C0E0E0C0A0E020
303010000000002010
ENDCHAR
STARTCHAR  4E92
ENCODING  20114
SWIDTH  1000 0
DWIDTH  10 0
BBX  9 7 0 -1
BITMAP
10E0E0F0E0E0E0E0E0
0000A0600000000000
0020F0E0E0E0E0E000
00A06000000060A000
00E0E0E0E0E0E01000
000000000060800000
80E0E0E0E0F0E0E0E0
ENDCHAR
STARTCHAR  4E93
ENCODING  20115
SWIDTH  1000 0
DWIDTH  10 0
BBX  9 8 1 -2
BITMAP
00E0E0E0E0E0E0E000
000000000000000000
E0E0E0E0E0E0E0E060
0000E0000000E00000
0020C0000000E00000
10C040000000E00000
C06000000000E00000
000000000000200000
ENDCHAR
STARTCHAR  4E94
ENCODING  20116
SWIDTH  1000 0
DWIDTH  10 0
BBX  9 7 1 -1
BITMAP
C0E0E0F0E0E0E0E000
000000E00000003000
00A0E0F0E0E0E0E000
00004080000000E000
00008040000000E000
0000C010000000E000
E0E0F0E0E0E0E0F0C0
ENDCHAR
STARTCHAR  4E95
ENCODING  20117
SWIDTH  1000 0
DWIDTH  10 0
BBX  9 8 1 -2
BITMAP
0000E0000000E00000
E0E0F0E0E0E0F0E040
0000E0000000E00000
0000E0000000E00000
E0E0F0E0E0E0F0E0C0
008080000000E00000
30E010000000E00000
603000000000800000
ENDCHAR
STARTCHAR  4E98
ENCODING  20120
SWIDTH  1000 0
DWIDTH  10 0
BBX  9 7 1 -1
BITMAP
E0E0E0E0E0E0E0E040
00C0E0E0E0E0E08000
00E00000000000E000
00F0E0E0E0E0E0E000
00E00000000000E000
00C0E0E0E0E0E08000
E0E0E0E0E0E0E0E0A0
ENDCHAR
STARTCHAR  4E9A
ENCODING  20122
SWIDTH  1000 0
DWIDTH  10 0
BBX  9 7 1 -1
BITMAP
E0E0E0F0E0F0E0E040
000000E000E0000000
806000E000E000A000
30E000E000E020A000
00C040E000E0604000
000000E000E0000000
E0E0E0F0E0F0E0E0C0
ENDCHAR
STARTCHAR  4E9B
ENCODING  20123
SWIDTH  1000 0
DWIDTH  10 0
BBX  9 9 1 -2
BITMAP
000010000010000000
A000E00000E0004060
E000E0E010E0A0C010
E000E00000F0600000
E000E04030E00000C0
E0C0A08030E0E0E080
00E0E0E0E0E0E0E000
000000000000000000
E0E0E0E0E0E0E0E0A0
ENDCHAR
STARTCHAR  4E9F
ENCODING  20127
SWIDTH  1000 0
DWIDTH  10 0
BBX  9 8 1 -2
BITMAP
40E0E0E0E0E0E0FF10
0000001040A0C06010
E0E0E0E0E040E0E0E0
E00000E0E0106040C0
E00000E0E010C0FF30
A0E0F0FFC020403030
000000000000000000
E0E0E0E0E0E0E0E0C0
ENDCHAR
STARTCHAR  4EA0
ENCODING  20128
SWIDTH  1000 0
DWIDTH  10 0
BBX  9 3 1 3
BITMAP
000000406000000000
000000108000000000
E0E0E0E0E0E0E0E0C0
ENDCHAR
STARTCHAR  4EA1
ENCODING  20129
SWIDTH  1000 0
DWIDTH  10 0
BBX  9 9 1 -2
BITMAP
000000003000000000
00000010E020000000
E0E0E0E0E0E0E0E0C0
00E000000000000000
00E000000000000000
00E000000000000000
00E000000000000000
00E000000000000000
00A0E0E0E0E0E0E020
ENDCHAR
STARTCHAR  4EA2
ENCODING  20130
SWIDTH  1000 0
DWIDTH  10 0
BBX  9 9 1 -2
BITMAP
000000000000000000
00000000C000000000
E0E0E0E0E0E0E0E0A0
0000E0E0E0E0800000
0000E0000000E00000
0010C0000000E00000
008080000000E00000
30C000000000E000C0
101000000000E0E080
ENDCHAR
STARTCHAR  4EA4
ENCODING  20132
SWIDTH  1000 0
DWIDTH  10 0
BBX  9 9 1 -2
BITMAP
000000206000000000
E0E0E0E0FFE0E0E0A0
004040000000802000
30E06000001080C010
402080C040E0404020
000000A0F0A0000000
0040C0801080C03000
80A02000000020C030
000000000000000000
ENDCHAR
STARTCHAR  4EA5
ENCODING  20133
SWIDTH  1000 0
DWIDTH  10 0
BBX  9 9 0 -2
BITMAP
000000000000000000
00000000A020000000
80E0E0FFE0E0E0E0E0
0040C03020A0601000
20E0E0F0E04040C010
2080E06010A0A01000
30401080E0E0600000
20A0E060000080E030
204000000000002020
ENDCHAR
STARTCHAR  4EA6
ENCODING  20134
SWIDTH  1000 0
DWIDTH  10 0
BBX  9 9 1 -2
BITMAP
000000200000000000
000000806000000000
E0E0F0E0E0F0E0E0A0
0000E00000E0000000
2080E00000E0408000
8040E00000E010E020
8060800000E0006040
20E0100000E0000000
40300010E0A0000000
ENDCHAR
STARTCHAR  4EA7
ENCODING  20135
SWIDTH  1000 0
DWIDTH  10 0
BBX  10 9 0 -2
BITMAP
00000000601000000000
00E0E0E0F0E0E0E0E060
00006020000060300000
000040800000C0100000
00E0E0E0E0E0E0E0C000
00E00000000000000000
00E00000000000000000
20A00000000000000000
40400000000000000000
ENDCHAR
STARTCHAR  4EA8
ENCODING  20136
SWIDTH  1000 0
DWIDTH  10 0
BBX  9 9 1 -2
BITMAP
000000104000000000
E0E0E0E0FFE0E0E0A0
000000000000002000
00E0E0E0E0E0E0E000
00A0E0E0E0E0E08000
80E0E0E0E0E0FFF000
00000000A0E0801000
00000000E010000000
000080E08000000000
ENDCHAR
STARTCHAR  4EA9
ENCODING  20137
SWIDTH  1000 0
DWIDTH  10 0
BBX  9 9 0 -2
BITMAP
000000106000000000
A0E0E0E0FFE0E0E0E0
000000000000000000
00F0E0E0F0E0E0F000
00E00000E00000E000
00F0E0E0F0E0E0F000
00E00000E00000E000
00E00000E00000E000
00E0E0E0E0E0E0A000
ENDCHAR
STARTCHAR  4EAB
ENCODING  20139
SWIDTH  1000 0
DWIDTH  10 0
BBX  10 9 0 -2
BITMAP
00000010400000000000
A0E0E0E0FFE0E0E0E010
00A0E0E0E0E0E0800000
00E00000000000E00000
00A0E0E0E0E0E0A00000
00E0E0E0E0FFFFE08000
A0E0E0E0F0F0E0E0E000
00000000E00000000000
000010E0800000000000
ENDCHAR
STARTCHAR  4EAC
ENCODING  20140
SWIDTH  1000 0
DWIDTH  10 0
BBX  9 9 1 -2
BITMAP
000000206000000000
E0E0E0E0FFE0E0E080
000000000000002000
00F0E0E0E0E0E0E000
00E00000000000E000
00E0E0E0F0E0E08000
00408000E000C01000
30E01000E00040C000
802020E08000006020
ENDCHAR
STARTCHAR  4EAD
ENCODING  20141
SWIDTH  1000 0
DWIDTH  10 0
BBX  9 9 1 -2
BITMAP
000000104000000000
E0E0E0E0FFE0E0E0C0
00C0E0E0E0E0E0E000
00E0E0E0E0E0E0A000
000000000000000020
E0E0E0E0E0E0E0E0E0
80E0E0E0F0E0E00080
00000000E000000000
000030E0A000000000
ENDCHAR
STARTCHAR  4EAE
ENCODING  20142
SWIDTH  1000 0
DWIDTH  10 0
BBX  9 9 0 -2
BITMAP
000000006000000000
60E0E0E0FFE0E0E0E0
0000E0E0E0E0E06000
0000E000000000E000
0000E0E0E0E0E08010
00F0E0E0E0E0E0E0E0
0060E0E0E0E0F00060
0040E0000000E00080
00A030000000A0E080
ENDCHAR
STARTCHAR  4EB2
ENCODING  20146
SWIDTH  1000 0
DWIDTH  10 0
BBX  9 9 1 -2
BITMAP
000000106000000000
E0E0E0E0FFE0E0E020
004060000010800000
E0E0FFE0E0E0F0E0C0
00000000E000000000
E0E0E0E0F0E0E0E020
00604000E000800000
60E01010E00060A000
601000C08000006010
ENDCHAR
STARTCHAR  4EB3
ENCODING  20147
SWIDTH  1000 0
DWIDTH  10 0
BBX  10 9 0 -2
BITMAP
00000000104000000000
10E0E0E0E0F0E0E0E010
0000E0E0E0E0E0E00000
0000F0E0E0E0E0E00000
00C0E0E0E0E0E0E0C000
00C060E0E0E0F020A000
0000000010F0C0E0C000
00E0E0E0C0E010004000
0000000000E0E0E08000
ENDCHAR
STARTCHAR  4EB5
ENCODING  20149
SWIDTH  1000 0
DWIDTH  10 0
BBX  9 9 1 -2
BITMAP
000000004000000000
E0E0E0E0F0E0E0E0C0
006000002060204000
A0FFC040E0FFC0F000
A0FFC010F0E020E060
60E010A0FF8030A0A0
A0E0E0A0E04060A000
30E0A08020A0F08040
106030000000104040
ENDCHAR
STARTCHAR  4EBA
ENCODING  20154
SWIDTH  1000 0
DWIDTH  10 0
BBX  10 9 0 -2
BITMAP
00000000002000000000
0000000000E000000000
0000000000E000000000
00000000608000000000
00000010E04080000000
000000A06000A0800000
0000A080000000A06000
10C0800000000000C060
00300000000000001030
ENDCHAR
STARTCHAR  4EBB
ENCODING  20155
SWIDTH  1000 0
DWIDTH  10 0
BBX  4 9 2 -2
BITMAP
00000010
000060A0
0020F010
00C0F000
0010E000
0000E000
0000E000
0000E000
00006000
ENDCHAR
STARTCHAR  4EBF
ENCODING  20159
SWIDTH  1000 0
DWIDTH  10 0
BBX  10 8 0 -1
BITMAP
00004030000000006000
0010E060E0E0E0E0F000
00C0E00000000030C000
1060E000000010C02000
0000E0000000C0400000
0000E00010C060000000
0000E000C060000000A0
0000E000F0E0E0E0E0A0
ENDCHAR
STARTCHAR  4EC0
ENCODING  20160
SWIDTH  1000 0
DWIDTH  10 0
BBX  10 9 0 -2
BITMAP
00000000000000000000
000080400000E0000000
0010E0100000E0000000
00A0E0000000E0000000
1080E030E0E0F0E0E0E0
0000E0000000E0000000
0000E0000000E0000000
0000E0000000E0000000
00008000000080000000
ENDCHAR
STARTCHAR  4EC1
ENCODING  20161
SWIDTH  1000 0
DWIDTH  10 0
BBX  10 9 -1 -2
BITMAP
00000000000000000000
000040A0000000000000
0010E020E0E0E0E0E040
00C0F000000000000000
0020E000000000000000
0000E000000000000000
0000E000000000000000
0000E080E0E0E0E0E0E0
00008000000000000000
ENDCHAR
STARTCHAR  4EC2
ENCODING  20162
SWIDTH  1000 0
DWIDTH  10 0
BBX  10 8 0 -2
BITMAP
0000603000A000000000
0020E030E0F0E0E0E080
10C0E00000E0000000E0
0020E00000E0000000E0
0000E00030A0000000E0
0000E0008060000000E0
0000E020E000000000E0
0000C04030000080C080
ENDCHAR
STARTCHAR  4EC3
ENCODING  20163
SWIDTH  1000 0
DWIDTH  10 0
BBX  10 9 0 -2
BITMAP
00001010000000000000
00008060E0E0E0E0E080
0020E0000000E0000000
10C0E0000000E0000000
1040E0000000E0000000
0000E0000000E0000000
0000E0000000E0000000
0000E0000000E0000000
0000A00060E0A0000000
ENDCHAR
STARTCHAR  4EC4
ENCODING  20164
SWIDTH  1000 0
DWIDTH  10 0
BBX  9 8 0 -2
BITMAP
00E0E0E0E0E0E0E0A0
00E0000000A0000000
00E0000000E0000000
00E0000010C0000000
00E000008080400000
20C00040C010C04000
806080C0100010C040
601060000000001040
ENDCHAR
STARTCHAR  4EC5
ENCODING  20165
SWIDTH  1000 0
DWIDTH  10 0
BBX  10 9 0 -2
BITMAP
00001010000000000000
0000A080E0E0E0E0F000
0060E00010000000E000
10A0E030C01000608000
0000E00040C040E01000
0000E0000060FF400000
0000E00040E060E02000
0000E060C0100030E020
00006030000000002000
ENDCHAR
STARTCHAR  4EC6
ENCODING  20166
SWIDTH  1000 0
DWIDTH  10 0
BBX  9 9 0 -2
BITMAP
000000000000000000
0000804000E0000000
0020E00000E0000000
10C0E00000E0A01000
1040E00000E040E040
0000E00000E0002080
0000E00000E0000000
0000E00000E0000000
000080000080000000
ENDCHAR
STARTCHAR  4EC7
ENCODING  20167
SWIDTH  1000 0
DWIDTH  10 0
BBX  10 8 -1 -2
BITMAP
0000406000A000000000
0010E010E0F0E0E0A000
00C0F00000E00000E000
0010E00010C00000E000
0000E00060800000E000
0000E000A0300000E000
0000E030C0000000E080
0000A06040000000E0A0
ENDCHAR
STARTCHAR  4EC9
ENCODING  20169
SWIDTH  1000 0
DWIDTH  10 0
BBX  10 8 -1 -2
BITMAP
00004060A0E0E0E08000
0010E010E0000000E000
00A0F000E0000000E000
0040E000E0000000E000
0000E000E0000000E000
0000E010C0000000E000
0000E06060000000E0C0
0000A06010000000E0A0
ENDCHAR
STARTCHAR  4ECA
ENCODING  20170
SWIDTH  1000 0
DWIDTH  10 0
BBX  10 9 0 -2
BITMAP
00000000000000000000
0020C0A0E0E0E0E00000
00C04000601000808000
8080000040800000C010
1060E0E0E0E0E0E00000
00000000000040E00000
000000000060C0100000
0000000060C010000000
00000000400000000000
ENDCHAR
STARTCHAR  4ECB
ENCODING  20171
SWIDTH  1000 0
DWIDTH  10 0
BBX  10 9 0 -2
BITMAP
00000000000000000000
000080A0E0E0E0E04000
0020E00000000010E020
10E030E0000000E03060
104000E0000000E00000
000030A0000000E00000
0000C040000000E00000
0030A000000000E00000
00000000000000100000
ENDCHAR
STARTCHAR  4ECD
ENCODING  20173
SWIDTH  1000 0
DWIDTH  10 0
BBX  10 9 0 -2
BITMAP
00001010000000000000
00008040C0F0E0E0F010
0010E00000E00020E000
00A0E00000E000A04020
1080E00000E010E0E0E0
0000E00030A0000000E0
0000E0008060000000E0
0000E020E000000000E0
0000A04040000000C080
ENDCHAR
STARTCHAR  4ECE
ENCODING  20174
SWIDTH  1000 0
DWIDTH  10 0
BBX  10 9 0 -2
BITMAP
00000020000000200000
000000E0000000E00000
000000E0000000E00000
000010C0000010C00000
000040E0200040800000
0000A080E030A0E01000
0020E0002040C060C000
00C0400020E020008080
00300000103000000020
ENDCHAR
STARTCHAR  4ED1
ENCODING  20177
SWIDTH  1000 0
DWIDTH  10 0
BBX  10 9 0 -2
BITMAP
00000000000000000000
0000C080E0E0E0E03000
0060A00000000030C000
30E0200000000000A060
2020E000001080E02030
0000E030A0E060000000
0000E0A0400000004000
0000E00000000000E000
0000A0E0E0E0E0E08000
ENDCHAR
STARTCHAR  4ED3
ENCODING  20179
SWIDTH  1000 0
DWIDTH  10 0
BBX  10 9 0 -2
BITMAP
00000000000000000000
0010C080E0E0E0E02000
00A0400000000040C000
6080A0E0E0E0E0C08020
0000E000000000E00000
0000E000000000E00000
0000E0000060E0802000
0000E00000000000E000
0000A0E0E0E0E0E08000
ENDCHAR
STARTCHAR  4ED4
ENCODING  20180
SWIDTH  1000 0
DWIDTH  10 0
BBX  11 9 -1 -2
BITMAP
0000102000000000000000
00008040E0E0E0E0F04000
0020F00000000080A00000
00C0F000000080A0000000
0040E0000000E000000000
0000E040E0E0F0E0E0E010
0000E0000000E000000000
0000E0000000E000000000
0000200020E0A000000000
ENDCHAR
STARTCHAR  4ED5
ENCODING  20181
SWIDTH  1000 0
DWIDTH  10 0
BBX  11 9 -1 -2
BITMAP
0000000000000000000000
000040800000C000000000
0010E0100000E000000000
00C0F040E0E0F0E0E0E020
0030E0000000E000000000
0000E0000000E000000000
0000E0000000E000000000
0000E0000000E000000000
0000A000E0E0E0E0E08000
ENDCHAR
STARTCHAR  4ED6
ENCODING  20182
SWIDTH  1000 0
DWIDTH  10 0
BBX  9 8 0 -1
BITMAP
000000000000000000
006060A000E0406080
20F040F0E0FFA080E0
A0E030E010E00000E0
00E000E000E00000E0
00E000E000E000C0A0
00E000E000A0000060
00E000E0E0E0E0E0C0
ENDCHAR
STARTCHAR  4ED7
ENCODING  20183
SWIDTH  1000 0
DWIDTH  10 0
BBX  11 9 -1 -2
BITMAP
0000002000000000200000
000040A000000000E00000
0010E030E0E0E0E0F0E000
00A0F00010000020C00000
0040E000A0A01080600000
0000E0000060E0E0000000
0000E0000040E0C0800000
0000E020A0C0100080C010
0000601040000000004000
ENDCHAR
STARTCHAR  4ED8
ENCODING  20184
SWIDTH  1000 0
DWIDTH  10 0
BBX  10 8 0 -2
BITMAP
0000408000000000C000
0010C030E0E0E0E0F0E0
10C0E00000100000E000
0040E00010E01000E000
0000E0000060A000E000
0000E00000008010E000
0000E00000000000E000
0000A000000060E08000
ENDCHAR
STARTCHAR  4ED9
ENCODING  20185
SWIDTH  1000 0
DWIDTH  10 0
BBX  9 8 0 -1
BITMAP
002040000060000000
00A0400000E0000000
30FF00C000E00000C0
A0E000E000E00000E0
00E000E000E00000E0
00E000E000E00000E0
00E000E000E00000E0
00E000F0E0F0E0E0E0
ENDCHAR
STARTCHAR  4EDD
ENCODING  20189
SWIDTH  1000 0
DWIDTH  10 0
BBX  10 9 0 -2
BITMAP
00000000000000000000
0000C060E0E0E0E02000
0060A00000000040A000
30E0100000000000A030
1030E0E0E0F0E0E03000
0000000000E000000000
0000000000E000000000
0000000000E000000000
00C0E0E0E0E0E0E0E000
ENDCHAR
STARTCHAR  4EDE
ENCODING  20190
SWIDTH  1000 0
DWIDTH  10 0
BBX  9 8 0 -2
BITMAP
003080A0E0E0E0E0C0
00C0200000E00000E0
80FF006030E00000E0
60E000E010E00000E0
00E0308030A00000E0
00E00000C0300000E0
00E000A080000000E0
00A02060000010E0A0
ENDCHAR
STARTCHAR  4EDF
ENCODING  20191
SWIDTH  1000 0
DWIDTH  10 0
BBX  10 9 -1 -2
BITMAP
00000030000000001010
000040A0E0E0E0E0E040
0010E0100000E0000000
00C0F0000000E0000000
0020E0000000E0000000
0000E080E0E0F0E0E0E0
0000E0000000E0000000
0000E0000000E0000000
00006000000060000000
ENDCHAR
STARTCHAR  4EE1
ENCODING  20193
SWIDTH  1000 0
DWIDTH  10 0
BBX  9 9 0 -2
BITMAP
001040403000000000
008060A0E0E0E0E0E0
20F030C00000000000
C0F00040E0E0E0E040
20E00000000000A0A0
00E000000010C0A000
00E0000030E0800040
00E00080E0400000E0
00A000A0E0E0E0E080
ENDCHAR
STARTCHAR  4EE3
ENCODING  20195
SWIDTH  1000 0
DWIDTH  10 0
BBX  11 9 -1 -2
BITMAP
0000002000003000000000
000060800000E040C01000
0010E0100000E000404000
00C0F03080A0F0E0C0A020
0020E0204030E000000000
0000E0000000A040000000
0000E000000020E0201000
0000E00000000030E0E030
0000600000000000104000
ENDCHAR
STARTCHAR  4EE4
ENCODING  20196
SWIDTH  1000 0
DWIDTH  10 0
BBX  10 9 0 -2
BITMAP
00000000000000000000
0000C080E0E0E0E01000
0080800060300060A000
40A0000010A00000C030
0030E0E0E0E0E0E02000
000000000000A0800000
0000006020A080000000
00001060C0F060000000
00000000001040000000
ENDCHAR
STARTCHAR  4EE5
ENCODING  20197
SWIDTH  1000 0
DWIDTH  10 0
BBX  10 9 0 -2
BITMAP
00400000000040000000
00E000000000E0000000
00E010C00000E0000000
00E000608000E0000000
00E000003040A0000000
00E0000000C060800000
00E0206060A000C04000
20E0C060E0100020E010
10300000200000004010
ENDCHAR
STARTCHAR  4EE8
ENCODING  20200
SWIDTH  1000 0
DWIDTH  10 0
BBX  10 9 -1 -2
BITMAP
00001030000000000000
00008060E0E0E0E0E0A0
0020F000000000000000
00C0F000000000000000
0020E000E0E0E0E0E000
0000E000000000000000
0000E000000000000000
0000E000000000000000
0000A080E0E0E0E0E0E0
ENDCHAR
STARTCHAR  4EEA
ENCODING  20202
SWIDTH  1000 0
DWIDTH  10 0
BBX  10 9 -1 -2
BITMAP
00001020000000000000
000080604010C0101080
0020F010A06060808060
00C0F00000C04040C000
0020E0000010E0E02000
0000E0000010C0E01000
0000E00010C04040C000
0000E020E040000060A0
00006010200000000020
ENDCHAR
STARTCHAR  4EEB
ENCODING  20203
SWIDTH  1000 0
DWIDTH  10 0
BBX  11 9 -1 -2
BITMAP
0000103000001000000000
000080600060A000000000
0030FF0030C01040A00000
00C0F020E02030C0100000
0010E0804020E020000000
0000E00010C03000100000
0000E000C0600000A04000
0000E060F0C0E0E0E0E000
0000401020100000002000
ENDCHAR
STARTCHAR  4EEC
ENCODING  20204
SWIDTH  1000 0
DWIDTH  10 0
BBX  10 9 -1 -2
BITMAP
00001020101000000000
0000A04040A0A0E0E0E0
0060FF00E030000000E0
00A0E000E000000000E0
0000E000E000000000E0
0000E000E000000000E0
0000E000E000000000E0
0000E000E000000000E0
0000100010000040E0A0
ENDCHAR
STARTCHAR  4EF0
ENCODING  20208
SWIDTH  1000 0
DWIDTH  10 0
BBX  10 9 0 -2
BITMAP
00004020000000000000
0010E010E0E080E0E080
00A0E000E00000E000E0
1080E000E00000E000E0
0000E000E00000E000E0
0000E000E00000E000E0
0000E000E04030E000E0
0000E030E08020E0E080
00002000000000200000
ENDCHAR
STARTCHAR  4EF2
ENCODING  20210
SWIDTH  1000 0
DWIDTH  10 0
BBX  10 9 -1 -2
BITMAP
00000000000000000000
000060600000E0000000
0020F000E0E0F0E0E080
00C0E000E000E00000E0
0010E000E000E00000E0
0000E000E000E00000E0
0000E000E0E0F0E0E080
0000E0000000E0000000
00008000000080000000
ENDCHAR
STARTCHAR  4EF3
ENCODING  20211
SWIDTH  1000 0
DWIDTH  10 0
BBX  10 8 0 -2
BITMAP
00008040A00000A00000
0020E000E00000E06080
10C0E000F0E060FFA010
1040E000E00000E00000
0000E000E00000E00000
0000E000E00000E00040
0000E000E0A080E000E0
0000A040A04000E0E080
ENDCHAR
STARTCHAR  4EF5
ENCODING  20213
SWIDTH  1000 0
DWIDTH  10 0
BBX  10 9 0 -2
BITMAP
00001000100000000000
0000A040A02000000000
0030E030E0E0F0E0E080
10C0E0804000E0000000
0020E0000000E0000000
0000E030E0E0F0E0E0E0
0000E0000000E0000000
0000E0000000E0000000
00006000000060000000
ENDCHAR
STARTCHAR  4EF6
ENCODING  20214
SWIDTH  1000 0
DWIDTH  10 0
BBX  10 9 0 -2
BITMAP
00000000000000000000
00008040A020E0000000
0020E000F0E0F0E0E060
10C0E0608000E0000000
0030E0001000E0000000
0000E0000000E0000000
0000E030E0E0F0E0E0E0
0000E0000000E0000000
0000A000000080000000
ENDCHAR
STARTCHAR  4EF7
ENCODING  20215
SWIDTH  1000 0
DWIDTH  10 0
BBX  10 9 0 -2
BITMAP
00103000000000000000
00A06060A0E0E0E08000
A0F010E010000010E020
10E04060E00000E02000
00E00000E00000E00000
00E00030A00000E00000
00E000A0400000E00000
00E010C0000000E00000
00400000000000100000
ENDCHAR
STARTCHAR  4EFB
ENCODING  20219
SWIDTH  1000 0
DWIDTH  10 0
BBX  11 9 -1 -2
BITMAP
0000004000000000001000
0000A060A0E0E0E0E06000
00A0FF000000E000000000
0020E0000000E000000000
0000E020E0E0F0E0E0E010
0000E0000000E000000000
0000E0000000E000000000
0000E0000000E000000000
0000C000E0E0E0E0E0C000
ENDCHAR
STARTCHAR  4EFD
ENCODING  20221
SWIDTH  1000 0
DWIDTH  10 0
BBX  10 9 0 -2
BITMAP
00000000000000000000
000080608080E0E0C000
0080E020E0000000A060
0080E0803000000030A0
0000E000E0F0E0E0E000
0000E00000E00000E000
0000E00040A00000E000
0000E010E0200000E000
0000C030400080E08000
ENDCHAR
STARTCHAR  4EFF
ENCODING  20223
SWIDTH  1000 0
DWIDTH  10 0
BBX  10 9 0 -2
BITMAP
00001000001000000000
0060A000008080000000
60FF40E0F0E0E0E0E020
60E00000E00000001000
00E00000F0E0E0E0E000
00E00010C0000000E000
00E0006060000000E000
00E000C010000000E000
00A03060000000E08000
ENDCHAR
STARTCHAR  4F01
ENCODING  20225
SWIDTH  1000 0
DWIDTH  10 0
BBX  9 9 1 -2
BITMAP
000000000000000000
00A080E0E0E0E0E010
40C000000000004080
C030000000C0000080
1000A00000F0E0E040
0000E00000E0000000
0000E00000E0000000
0000E00000E0000000
C0E0E0E0E0E0E0E0C0
ENDCHAR
STARTCHAR  4F09
ENCODING  20233
SWIDTH  1000 0
DWIDTH  10 0
BBX  9 9 0 -2
BITMAP
000010000010000000
0060A0000080400000
40F020E0E0E0E0E0E0
40E00000E0E0E08000
00E00000E00000E000
00E00000E00000E000
00E00030A00000E000
00E010C0300000E080
00A00040000000E0A0
ENDCHAR
STARTCHAR  4F0A
ENCODING  20234
SWIDTH  1000 0
DWIDTH  10 0
BBX  10 9 0 -2
BITMAP
00000020000000001000
0000A080E0E0E0E0F000
00A0E0000000E000E000
0040E040E0E0F0E0F0E0
0000E0000010C000E000
0000E010E0F0E0E0C000
0000E00030E010000000
0000E030E03000000000
00006020200000000000
ENDCHAR
STARTCHAR  4F0D
ENCODING  20237
SWIDTH  1000 0
DWIDTH  10 0
BBX  9 8 0 -1
BITMAP
000010000000000000
0060A0E0E0E0E0E0A0
60FF00006060000000
80E00000A030002000
00E000E0F0E0E0F000
00E00010C00000E000
00E00060800000E000
00E080E0E0E0E0E0E0
ENDCHAR
STARTCHAR  4F0E
ENCODING  20238
SWIDTH  1000 0
DWIDTH  10 0
BBX  11 9 0 -2
BITMAP
0000203000006000000000
0010C040E0E0F0E0E0A000
00C0E0000000E000000000
0020E040E0E0F0E0F00000
0000E01060000040C00000
0000E01080E080E0200000
0000E00010A0E0C0300000
0000E040E0600030C0A000
0000401000000000002000
ENDCHAR
STARTCHAR  4F0F
ENCODING  20239
SWIDTH  1000 0
DWIDTH  10 0
BBX  10 8 0 -2
BITMAP
000060600000C0306000
0060E0100000E000A010
00A0E020E0E0F0E0E0E0
0000E0000020C0000000
0000E00000A060A00000
0000E00060A000808000
0000E040C0100000C060
0000A060100000001080
ENDCHAR
STARTCHAR  4F10
ENCODING  20240
SWIDTH  1000 0
DWIDTH  10 0
BBX  10 9 0 -2
BITMAP
00000010002000000000
0000A06000E030C02000
0080E00000E040808010
0060E060C0F080604000
0000E00000C01020A000
0000E00000A080E03000
0000E00010A0FF301020
0000E030E06030E0C060
00006010100000004010
ENDCHAR
STARTCHAR  4F11
ENCODING  20241
SWIDTH  1000 0
DWIDTH  10 0
BBX  10 9 0 -2
BITMAP
00000000000000000000
000080600000E0000000
00A0E040E0E0F0E0E0E0
0040E0004080E0203000
0000E0008040E040A000
0000E000C010E000E010
0000E030C000E0008060
0000E0A06000E00020C0
00002060100080000060
ENDCHAR
STARTCHAR  4F17
ENCODING  20247
SWIDTH  1000 0
DWIDTH  10 0
BBX  10 9 0 -2
BITMAP
00000000000000000000
0060A0E0E0E0E0E01000
10E0100000000060A000
8040E0000000E0008010
0000E0000000E0000000
0010E0300040E0200000
008080E020C060C00000
60C00040C08000806000
40100000600000006000
ENDCHAR
STARTCHAR  4F18
ENCODING  20248
SWIDTH  1000 0
DWIDTH  10 0
BBX  10 9 0 -2
BITMAP
00002040006000202000
0010C04000E00020C000
00C0E040E0F0E0E0E0E0
0010E00000E000300000
0000E00030A000E00000
0000E000A04000E00000
0000E030C00000E000A0
0000E0C0200000F0E0A0
00002000000000000000
ENDCHAR
STARTCHAR  4F19
ENCODING  20249
SWIDTH  1000 0
DWIDTH  10 0
BBX  10 9 0 -2
BITMAP
00004040000060000000
0020E0201000E0001010
10E0E040A000E000A060
0010E000A040E040A000
0000E000206080301000
0000E00010E020E02000
0000E000A0600030E010
0000E080600000004080
00001000000000000000
ENDCHAR
STARTCHAR  4F1A
ENCODING  20250
SWIDTH  1000 0
DWIDTH  10 0
BBX  10 9 0 -2
BITMAP
00000000000000000000
0010C0A0E0E0E0E0A000
00A0600000000000C030
008060E0E0E0E0E03060
00000000000000000000
00E0E0F0E0E0E0E0E080
000040C0000000600000
0020E040406060E06000
0040A0A080606040A000
ENDCHAR
STARTCHAR  4F1B
ENCODING  20251
SWIDTH  1000 0
DWIDTH  10 0
BBX  10 9 0 -2
BITMAP
00000010000000000000
0000A060F0E0E0E0E060
0080E000E03010003010
0060E000E060A010E010
0000E000E000A0E04000
0000E000E000A0E04000
0000E000E0A08010E020
0000E000E02000003010
0000A000E0E0E0E0E080
ENDCHAR
STARTCHAR  4F1E
ENCODING  20254
SWIDTH  1000 0
DWIDTH  10 0
BBX  10 8 0 -1
BITMAP
00000000000000000000
0020C080E0E0E0E06000
20E0400000E00020E020
0020E03000E000C03000
000040C000E030A00000
0000006000E020200000
30E0E0E0E0F0E0E0E030
0000000000E000000000
ENDCHAR
STARTCHAR  4F1F
ENCODING  20255
SWIDTH  1000 0
DWIDTH  10 0
BBX  10 9 0 -2
BITMAP
00000000000000000000
000080600000E0000000
0080E0E0E0E0F0E0E030
0020E020E0E0F0E0E010
0000E0000000E0000000
0000E0C0C0C0F0C0C0C0
0000E0000000E00000E0
0000E0000000E000E0A0
000080000000A0000000
ENDCHAR
STARTCHAR  4F20
ENCODING  20256
SWIDTH  1000 0
DWIDTH  10 0
BBX  10 9 0 -2
BITMAP
00003040000060000000
0010E030E0E0F0E0E080
00E0E00000C020000000
0020E060E0FFE0E0E0E0
0000E000C02000000000
0000E000E0E0E0E0FF40
0000E000100000A0A010
0000E000A0E0E0E06000
00006000000010408000
ENDCHAR
STARTCHAR  4F22
ENCODING  20258
SWIDTH  1000 0
DWIDTH  10 0
BBX  9 9 0 -2
BITMAP
000020000000000000
008080C0E0E0E0F080
80FF0020A00000E000
40E000A0400000E000
00E000E0E0F0E0F0A0
00E00000608000E000
00E00020E01000E000
00E010C0400000E000
00A040400030E08000
ENDCHAR
STARTCHAR  4F24
ENCODING  20260
SWIDTH  1000 0
DWIDTH  10 0
BBX  10 9 0 -2
BITMAP
00004020300000000000
0010E020E0E0E0E0E0E0
00A0E060C02000000000
00A0E06020E000000020
0000E00080F0E0E0E0E0
0000E00010C0000000E0
0000E0006060000000E0
0000E010E010000000E0
0000303060000040E080
ENDCHAR
STARTCHAR  4F25
ENCODING  20261
SWIDTH  1000 0
DWIDTH  10 0
BBX  9 8 0 -2
BITMAP
003080C00000608000
30E020E01080A01000
80E000E03060000000
00E080F0E0F0E0E0E0
00E000E00060A00000
00E000E00000C03000
00E000E0A0A020E010
00A020C04000004040
ENDCHAR
STARTCHAR  4F26
ENCODING  20262
SWIDTH  1000 0
DWIDTH  10 0
BBX  11 9 0 -2
BITMAP
0000000000000000000000
00008060C080E0E0E02000
0060E040A000000060A000
00A0E0C04000000010A010
0000E000E0000060C00000
0000E000E010A0A0000000
0000E000E0E06000001000
0000E000E010000000E000
0000A000A0E0E0E0E0A000
ENDCHAR
STARTCHAR  4F27
ENCODING  20263
SWIDTH  1000 0
DWIDTH  10 0
BBX  10 9 0 -2
BITMAP
00001010000000000000
0000A060C080E0E0E010
00A0E040A000000060A0
0010E0A0C0E0E0E0C020
0000E000E0000000E000
0000E000E0000000E000
0000E000E00020E08000
0000E000E000000000C0
0000A000A0E0E0E0E080
ENDCHAR
STARTCHAR  4F2A
ENCODING  20266
SWIDTH  1000 0
DWIDTH  10 0
BBX  10 8 0 -2
BITMAP
000060608010A0000000
0080E030E0F0F0E0E060
0020E0000000E00000E0
0000E0000040A04000E0
0000E00000A040C030E0
0000E00040C0003080E0
0000E030E020000000E0
0000A06030000080E080
ENDCHAR
STARTCHAR  4F2B
ENCODING  20267
SWIDTH  1000 0
DWIDTH  10 0
BBX  10 9 0 -2
BITMAP
00002020000000000000
0010E0402030C0202020
10C0E0E08080808080E0
0060E0E00000000000E0
0000E000000000000000
0000E000000000000000
0000E000000000000000
0000E040E0E0E0E0E0E0
00003000000000000000
ENDCHAR
STARTCHAR  4F2F
ENCODING  20271
SWIDTH  1000 0
DWIDTH  10 0
BBX  10 9 0 -2
BITMAP
00000010000000000000
000080600040A0000000
0080E000F0E0E0E0E0E0
0060E000E000000000E0
0000E000E000000000E0
0000E000F0E0E0E0E0E0
0000E000E000000000E0
0000E000E000000000E0
0000A000E0E0E0E0E080
ENDCHAR
STARTCHAR  4F30
ENCODING  20272
SWIDTH  1000 0
DWIDTH  10 0
BBX  10 9 0 -2
BITMAP
00000010000040000000
0000A0600000E0000000
0080E040E0E0F0E0E0E0
0060E0000000E0000000
0000E000E0E0F0E0E060
0000E000E000000000E0
0000E000E000000000E0
0000E000E000000000E0
0000A000E0E0E0E0E080
ENDCHAR
STARTCHAR  4F32
ENCODING  20274
SWIDTH  1000 0
DWIDTH  10 0
BBX  10 9 0 -2
BITMAP
00003020000000000000
0010E020F0E0E0E0E0C0
10E0E000E000000010C0
1060E000F0E0E0E0E060
0000E000E06000004000
0000E010C0E010A0A000
0000E030A0E0E0600000
0000E08060E0100000C0
0000306010A0E0E0E080
ENDCHAR
STARTCHAR  4F34
ENCODING  20276
SWIDTH  1000 0
DWIDTH  10 0
BBX  10 9 0 -2
BITMAP
00000000000000000000
0040A06000E000403000
30F020A040E010E02000
80E0002030E010400000
00E000E0E0F0E0E06000
00E0000000E000000000
00E040E0E0F0E0E0E010
00E0000000E000000000
00A0000000A000000000
ENDCHAR
STARTCHAR  4F36
ENCODING  20278
SWIDTH  1000 0
DWIDTH  10 0
BBX  10 9 0 -2
BITMAP
00000010000000000000
0000A040A0A0E0E0C000
00C0E040A030A0008080
0020E0A0200060600030
0000E040E0E0E0E0E000
0000E00000000080A000
0000E0008080A0800000
0000E0001060C0C02000
00003000000000101000
ENDCHAR
STARTCHAR  4F38
ENCODING  20280
SWIDTH  1000 0
DWIDTH  10 0
BBX  9 9 0 -2
BITMAP
000020300000000000
0010E0300000E00040
10E0E000F0E0F0E0F0
0040E000E000E000E0
0000E000F0E0F0E0F0
0000E000E000E000E0
0000E000F0E0F0E0E0
0000E0000000E00000
000030000000800000
ENDCHAR
STARTCHAR  4F3A
ENCODING  20282
SWIDTH  1000 0
DWIDTH  10 0
BBX  10 9 0 -2
BITMAP
00001030000000000000
0010C040E0E0E0E0E0E0
00C0E000E0E0E0E0A0E0
0000E0000000000040E0
0000E000E0E0E0E0E0E0
0000E000E0000000E0E0
0000E000E0E0E0E0A0E0
0000E0000000000000E0
0000A000000030E0E080
ENDCHAR
STARTCHAR  4F3C
ENCODING  20284
SWIDTH  1000 0
DWIDTH  10 0
BBX  10 9 0 -2
BITMAP
00002000000000100000
00808080303000E00000
60FF00E030A000E00000
40E000E000E020E00000
00E000E0003040A00000
00E000E0000080803000
00E000E08040E030C000
00E010F080C04000A040
00601040003000002020
ENDCHAR
STARTCHAR  4F3D
ENCODING  20285
SWIDTH  1000 0
DWIDTH  10 0
BBX  9 9 0 -2
BITMAP
001060800000000000
00A060E01020A0E0E0
60FF40F0E0F0E000E0
60E000E000E0E000E0
00E000E000E0E000E0
00E010C000E0E000E0
00E0408000E0E000E0
00E08020E0E0E0C0E0
000000000000101000
ENDCHAR
STARTCHAR  4F43
ENCODING  20291
SWIDTH  1000 0
DWIDTH  10 0
BBX  10 9 0 -2
BITMAP
00001020000000000000
0000C060E0E0E0E0E060
00C0E000E000E00000E0
0040E000E000E00000E0
0000E000F0E0F0E0E0E0
0000E000E000E00000E0
0000E000E000E00000E0
0000E000E000E00000E0
0000A000E0E0E0E0C080
ENDCHAR
STARTCHAR  4F46
ENCODING  20294
SWIDTH  1000 0
DWIDTH  10 0
BBX  10 9 -1 -2
BITMAP
00000040000000000000
0000A060C0E0E0E0A000
00A0F000E0000000E000
0010E000E0E0E0E0F000
0000E000E0000000E000
0000E000E0000000E000
0000E000C0E0E0E0A000
0000E080E0E0E0E0E0E0
00002000000000000000
ENDCHAR
STARTCHAR  4F4D
ENCODING  20301
SWIDTH  1000 0
DWIDTH  10 0
BBX  10 9 0 -2
BITMAP
00000000000000000000
00008060006060000000
0060E0A0E0E0E0E0E000
0080E020400000206000
0000E010C00000806000
0000E000C02000E00000
0000E000608040800000
0000E0001030C0200000
0000A060E0E0E0E0E0E0
ENDCHAR
STARTCHAR  4F4E
ENCODING  20302
SWIDTH  1000 0
DWIDTH  10 0
BBX  11 9 0 -2
BITMAP
0000101000000000001000
0000A060E0E0E0E0E06000
0080E000E00000E0000000
0080E000E00000E0000000
0000E000F0E0E0F0E06000
0000E000E00000E0000000
0000E000E06040C0300000
0000E010FFA08060C08000
0000A06060003060406000
ENDCHAR
STARTCHAR  4F4F
ENCODING  20303
SWIDTH  1000 0
DWIDTH  10 0
BBX  10 9 0 -2
BITMAP
00000000000000000000
000080600020A0000000
0080E000E0E0F0E0E0E0
0040E0000000E0000000
0000E000E0E0F0E0E060
0000E0000000E0000000
0000E0000000E0000000
0000E0000000E0000000
0000A040E0E0E0E0E0E0
ENDCHAR
STARTCHAR  4F50
ENCODING  20304
SWIDTH  1000 0
DWIDTH  10 0
BBX  10 9 0 -2
BITMAP
00000000000000000000
0040A000C00000000000
40F040E0F0E0E0E0E000
60E00040800000000000
00E00080E0E0F0E06000
00E010C00000E0000000
00E080400000E0000000
00E000000000E0000000
00A000E0E0E0E0E0E010
ENDCHAR
STARTCHAR  4F51
ENCODING  20305
SWIDTH  1000 0
DWIDTH  10 0
BBX  10 9 0 -2
BITMAP
00000000000000000000
0040A000C00000000000
40F030E0F0E0E0E0E000
60E00010C00000000000
00E00080F0E0E0E0C000
00E020E0E0000000E000
00E08060E0000000E000
00E00000E0000000E000
00A00000E0E0E0E08000
ENDCHAR
STARTCHAR  4F53
ENCODING  20307
SWIDTH  1000 0
DWIDTH  10 0
BBX  10 9 0 -2
BITMAP
00001010000000000000
0000A0600000E0000000
00A0E0E0E0F0F0E0E020
0040E0008060E0A01000
0000E000C020E0606000
0000E020C000E020A000
0000E08080E0F0A0C000
0000E0E00000E0008040
0000A030000080002010
ENDCHAR
STARTCHAR  4F55
ENCODING  20309
SWIDTH  1000 0
DWIDTH  10 0
BBX  10 9 0 -2
BITMAP
00001010000000000000
0000A060E0E0E0E0E0E0
00A0E00000000020E000
0060E000F0E0E0E0E000
0000E000E00000E0E000
0000E000E00000E0E000
0000E000E0E0E080E000
0000E00000000000E000
0000A0000000C0E0A000
ENDCHAR
STARTCHAR  4F57
ENCODING  20311
SWIDTH  1000 0
DWIDTH  10 0
BBX  9 8 0 -2
BITMAP
002080000040400000
30E020E0C0C0E0C0F0
80E000E030000000E0
00E00000E00010A040
00E00000E060E06000
00E00000F080100000
00E00000E0000000C0
00A00000E0E0E0E080
ENDCHAR
STARTCHAR  4F58
ENCODING  20312
SWIDTH  1000 0
DWIDTH  10 0
BBX  10 9 0 -2
BITMAP
00000000000000000000
0030E080E0E0E0E08000
10E0300000000000C060
003080E0E0E0E0E01030
00E0E0E0E0E0E0E0E080
0000000000E000300000
0000604000E010E02000
0060C00000E00040C000
00601000E06000006000
ENDCHAR
STARTCHAR  4F59
ENCODING  20313
SWIDTH  1000 0
DWIDTH  10 0
BBX  10 9 0 -2
BITMAP
00000000000000000000
008080E0E0E0E0E01000
20C0000000000060A000
6020E0E0F0E0E0808000
80E0E0E0F0E0E0E0E000
00000000E00040200000
0010A000E00060C00000
10C04000E00000A06000
304000A0A00000106000
ENDCHAR
STARTCHAR  4F5A
ENCODING  20314
SWIDTH  1000 0
DWIDTH  10 0
BBX  11 9 0 -2
BITMAP
0000102000004000000000
0000A0308030E000000000
0080E030E0E0F0E0E08000
0060E0603000E000000000
0000E030E0E0F0E0E0E000
0000E00000806080000000
0000E00040C00060C01000
0000E060C010000060C000
0000402000000000001000
ENDCHAR
STARTCHAR  4F5B
ENCODING  20315
SWIDTH  1000 0
DWIDTH  10 0
BBX  10 9 0 -2
BITMAP
00000000000000000000
0000608000E000E00080
0080E030E0F0E0F0E0E0
0040E010E0F0E0F0E0A0
0000E03080E000E00000
0000E060E0F0E0F0E0C0
0000E000A04000E000E0
0000E060A00000E080A0
0000A010000000A00000
ENDCHAR
STARTCHAR  4F5C
ENCODING  20316
SWIDTH  1000 0
DWIDTH  10 0
BBX  9 8 0 -2
BITMAP
004080603000000000
30F030E0F0E0E0E0A0
80E06030E000000000
00E00000E0E0E0E030
00E00000E000000000
00E00000E0E0E0E040
00E00000E000000000
00A00000A000000000
ENDCHAR
STARTCHAR  4F5D
ENCODING  20317
SWIDTH  1000 0
DWIDTH  10 0
BBX  10 8 0 -2
BITMAP
00006060602000000020
0060E060E0E0E0E0E0E0
0040E060C0E0E0E000E0
0000E000E00000E000E0
0000E000E00000E000E0
0000E000C0E0E0C000E0
0000E0000000000000E0
0000A000000000E0C080
ENDCHAR
STARTCHAR  4F5E
ENCODING  20318
SWIDTH  1000 0
DWIDTH  10 0
BBX  10 9 0 -2
BITMAP
00000010000000000000
00008080E0E0E0E0E030
0080E000000000000000
0080E010E0E0E0E0E0E0
0000E060E0F0E0E0E0E0
0000E000E0200040C000
0000E00060E0C0E02000
0000E040C0C060A0E080
00004020100000001020
ENDCHAR
STARTCHAR  4F5F
ENCODING  20319
SWIDTH  1000 0
DWIDTH  10 0
BBX  11 9 0 -2
BITMAP
0000206030400000000000
0010C040E0E0E0E0E0C000
00C0E0A0A0601040C08000
0010E00020E0FFFF600000
0000E080C0802040A0E020
0000E00010C0E0A0601000
0000E000A0804040600000
0000E000104080C0E04000
0000200000000000000000
ENDCHAR
STARTCHAR  4F60
ENCODING  20320
SWIDTH  1000 0
DWIDTH  10 0
BBX  9 9 0 -2
BITMAP
002060601000000000
00A030E0E0E0E0E080
40FF30600000006080
80E0801000A0008030
00E0004020E0106000
00E000C010E000E000
00E020A000E0008040
00E0804000E00030A0
00A00020E0A0000020
ENDCHAR
STARTCHAR  4F63
ENCODING  20323
SWIDTH  1000 0
DWIDTH  10 0
BBX  9 8 0 -2
BITMAP
004080E0E0E0E0E0C0
80FF00E00000E000E0
30E000E0E0E0F0E0F0
00E000E00000E000E0
00E000F0E0E0F0E0F0
00E020A00000E000E0
00E080600000E000E0
00C080100000A0E0A0
ENDCHAR
STARTCHAR  4F64
ENCODING  20324
SWIDTH  1000 0
DWIDTH  10 0
BBX  10 9 0 -2
BITMAP
00002000000000000000
0080C0E0E0E0E0E0E000
80FF0060800000000000
40E00060E0E0E0E00000
00E00080401000E00000
00E0008040E010E00000
00E000A0206080E00000
00E000C0806010E0A000
00A020C0602000C0A000
ENDCHAR
STARTCHAR  4F65
ENCODING  20325
SWIDTH  1000 0
DWIDTH  10 0
BBX  10 9 0 -2
BITMAP
00000000000000000000
0000C080E0E0E0E08000
00A0600000000000C020
106080E0E0E0E0E02020
00004000800000403000
0000A040806000C01000
000020C020C040A00000
000000801020A0300000
10E0E0E0E0E0E0E0E010
ENDCHAR
STARTCHAR  4F67
ENCODING  20327
SWIDTH  1000 0
DWIDTH  10 0
BBX  10 9 0 -2
BITMAP
00000000000000000000
0000608000E000000000
0060E01000E0E0E0E010
0080E00000E000000000
0000E030E0E0E0E0E0E0
0000E00000E020100000
0000E00000E040E04000
0000E00000E00020C020
00008000008000000000
ENDCHAR
STARTCHAR  4F69
ENCODING  20329
SWIDTH  1000 0
DWIDTH  10 0
BBX  10 8 0 -2
BITMAP
004080F0E0E0E0E0A000
60FF00E0E0E0E080E000
40E000E000E00060E000
00E000E0F0F0E0E0E000
00E000E0E0E000E0E000
00E010C0E0E000E0E000
00E06080A0E04080E000
00A0602000A00000E040
ENDCHAR
STARTCHAR  4F6C
ENCODING  20332
SWIDTH  1000 0
DWIDTH  10 0
BBX  10 9 0 -2
BITMAP
00106000000000000000
00C040C0E0E0E0E0A000
A0F0000000E060E01000
10E040E0E0F0FFE0E010
00E00010A0A000000000
00E030E0600040C04000
00E060E060E0C0400000
00E000E080200000A000
00A000A0E0E0E0E08000
ENDCHAR
STARTCHAR  4F6F
ENCODING  20335
SWIDTH  1000 0
DWIDTH  10 0
BBX  10 9 0 -2
BITMAP
00001010101000002000
0000A06060800060A000
00A0E000E0E0E0E0E0C0
0040E0000000E0000000
0000E020E0E0F0E0E040
0000E0000000E0000000
0000E0000000E0000000
0000E040E0E0F0E0E0E0
0000C0000000C0000000
ENDCHAR
STARTCHAR  4F70
ENCODING  20336
SWIDTH  1000 0
DWIDTH  10 0
BBX  10 9 0 -2
BITMAP
00104000000000000000
00A060E0E0E0E0E0E010
80FF000040C000000000
60E000E0E0E0E0E0E000
00E000E000000000E000
00E000E0E0E0E0E0E000
00E000E000000000E000
00E000E000000000E000
003000A0E0E0E0E08000
ENDCHAR
STARTCHAR  4F73
ENCODING  20339
SWIDTH  1000 0
DWIDTH  10 0
BBX  11 9 0 -2
BITMAP
0000304000006000000000
0020E020E0E0F0E0E06000
00E0E0000000E000000000
0020E030E0E0F0E0E0E000
0000E00000001000000000
0000E000E0E0F0E0E06000
0000E0000000E000000000
0000E0000000E000000000
0000A040E0E0E0E0E0E020
ENDCHAR
STARTCHAR  4F74
ENCODING  20340
SWIDTH  1000 0
DWIDTH  10 0
BBX  11 9 0 -2
BITMAP
0000102000000000000000
0000A060F0E0E0E0F0C000
00A0E000E0000000E00000
0040E000E0E0E0E0F00000
0000E000E0000000E00000
0000E000E0E0E0E0F00000
0000E000E0000010E04010
0000E020F0C0E0C0F08010
0000601020000000600000
ENDCHAR
STARTCHAR  4F76
ENCODING  20342
SWIDTH  1000 0
DWIDTH  10 0
BBX  10 9 0 -2
BITMAP
00000000000080000000
000060600000E0000000
0060E030E0E0F0E0E0E0
0020E000E0E0F0E0E0A0
0000E000000000000000
0000E000E0E0E0E0C000
0000E000E0000000E000
0000E000E0000000E000
0000A000E0E0E0E0A000
ENDCHAR
STARTCHAR  4F7B
ENCODING  20347
SWIDTH  1000 0
DWIDTH  10 0
BBX  9 9 0 -2
BITMAP
001040000000000000
00A06000C000C01020
A0FF6080E000E0A040
30E00060E000E04000
00E00000E000E01000
00E020E0E000F0E030
00E04080A000E03060
00E020E02000E000A0
003040300000C0E0A0
ENDCHAR
STARTCHAR  4F7C
ENCODING  20348
SWIDTH  1000 0
DWIDTH  10 0
BBX  10 9 0 -2
BITMAP
00002030000010000000
0010C0400010E0200000
00A0E030E0E0E0E0E0E0
0080E00060A00010C010
0000E030E060004080A0
0000E0001080C0C01000
0000E0001080C0E03000
0000E040E0600020C040
00003010000000000010
ENDCHAR
STARTCHAR  4F7E
ENCODING  20350
SWIDTH  1000 0
DWIDTH  10 0
BBX  10 9 0 -2
BITMAP
00000000000000000000
0060A08080E0E0C00000
60FF20C0000000A06000
60E080F0E0E0E0F0C010
00E010E0E0E0E0F00000
00E000E0000000E00000
00E000E0E0E0E0F00000
00E000E0000000E00000
00A000A00010E0A00000
ENDCHAR
STARTCHAR  4F7F
ENCODING  20351
SWIDTH  1000 0
DWIDTH  10 0
BBX  11 9 0 -2
BITMAP
0000101000008000000000
0000A080E0E0F0E0E0E000
0080E0000000E000002000
00A0E000F0E0F0E0E0E000
0000E000F0E0F0E0E0A000
0000E0108060A000000000
0000E00080F0E080300000
0000E060A0101060A0C010
0000200000000000000000
ENDCHAR
STARTCHAR  4F83
ENCODING  20355
SWIDTH  1000 0
DWIDTH  10 0
BBX  9 9 0 -2
BITMAP
000020000000000010
008080C0E0E0E0E0E0
80FF00E000000000E0
20E000E0E0E0E0E0A0
00E000001000001000
00E00000E0E000E000
00E00010C0E000E000
00E000A060E000E0C0
00802060008000C0A0
ENDCHAR
STARTCHAR  4F84
ENCODING  20356
SWIDTH  1000 0
DWIDTH  10 0
BBX  10 9 0 -2
BITMAP
00000000000000000000
00008080E0F0E0E0E060
0080E00030C010108000
0080E000E08080A0FF60
0000E0008080A0406060
0000E000E0E0F0E0E010
0000E0000000E0000000
0000E0000000E0000000
0000A010E0E0E0E0E0E0
ENDCHAR
STARTCHAR  4F88
ENCODING  20360
SWIDTH  1000 0
DWIDTH  10 0
BBX  10 9 0 -2
BITMAP
00001030004000000000
0000C040A0F0E0E08000
00C0E040A0600040F000
0040E00010C0E0E03000
0000E080E0E0A0000020
0000E01080E0E0E0E0E0
0000E01060A01020A080
0000E01030A0F0C04000
0000A060A08020000000
ENDCHAR
STARTCHAR  4F89
ENCODING  20361
SWIDTH  1000 0
DWIDTH  10 0
BBX  10 9 0 -2
BITMAP
00001020000040000000
0000C040E0E0F0E0E0A0
00A0E00080A00030E030
0040E060C0E0E0E0C0A0
0000E040E0E0E0E0E0E0
0000E000806000001000
0000E000E0E0E0E0F000
0000E00000000000E000
0000A00000E0E0E0A000
ENDCHAR
STARTCHAR  4F8B
ENCODING  20363
SWIDTH  1000 0
DWIDTH  10 0
BBX  10 9 0 -2
BITMAP
00000000000000000000
0000C0A0E0E0E00000E0
0080E000E00020E000E0
0060E040E0E0F0E000E0
0000E0C02000E0E000E0
0000E02080A0C0E000E0
0000E00010F040E000E0
0000E020E060000000E0
0000A080400000A0C060
ENDCHAR
STARTCHAR  4F8D
ENCODING  20365
SWIDTH  1000 0
DWIDTH  10 0
BBX  10 9 0 -2
BITMAP
00004000004000000000
00A060E0E0F0E0E01000
A0FF000000E000000000
30E060E0E0F0E0E0E000
00E00000000000800000
00E040E0E0E0E0F0C000
00E00080600000E00000
00E00010806000E00000
00A000000080E0800000
ENDCHAR
STARTCHAR  4F8F
ENCODING  20367
SWIDTH  1000 0
DWIDTH  10 0
BBX  11 9 0 -2
BITMAP
0000001010000000000000
0000A0608040E000000000
00A0E030E0E0F0E0E08000
0040E0403000E000000000
0000E010E0E0F0E0E0E000
0000E0004080E010800000
0000E000C020E000E03000
0000E060A000E00040C000
0000804010008000006000
ENDCHAR
STARTCHAR  4F91
ENCODING  20369
SWIDTH  1000 0
DWIDTH  10 0
BBX  10 9 0 -2
BITMAP
00002020006000000000
0000A060E0F0E0E0E0E0
0060E000606000000000
0060E020F0E0E0E0C000
0000E0C0E0E0E0E0F000
0000E030E0000000E000
0000E000E0E0E0E0F000
0000E000E0000000E000
0000A000A00000A0A000
ENDCHAR
STARTCHAR  4F94
ENCODING  20372
SWIDTH  1000 0
DWIDTH  10 0
BBX  10 9 0 -2
BITMAP
00003040006000000000
0020E02060800000A000
00E0E000F0C0E0E0E080
0010E000201000002030
0000E0008030E0000000
0000E030E0E0F0E0E020
0000E040E0E0F0E0E0E0
0000E0000000E0000000
00008000000080000000
ENDCHAR
STARTCHAR  4F97
ENCODING  20375
SWIDTH  1000 0
DWIDTH  10 0
BBX  10 9 0 -2
BITMAP
00001030000000000000
0010C040E0E0E0E0E080
00C0E000E0E0E0E0C0E0
0010E000E000000020E0
0000E000E0F0E0E0E0E0
0000E000E0E00000E0E0
0000E000E0F0E0E0A0E0
0000E000E000000000E0
0000A000A00030E0C080
ENDCHAR
STARTCHAR  4F9B
ENCODING  20379
SWIDTH  1000 0
DWIDTH  10 0
BBX  10 9 0 -2
BITMAP
00001000200000200000
0060A000E00000E00000
60FF00E0F0E0E0F0E000
40E00000E00000E00000
00E00000E00000E00000
00E040E0E0E0E0E0E010
00E00030800000A02000
00E020E020000030A000
00601030000000004000
ENDCHAR
STARTCHAR  4F9D
ENCODING  20381
SWIDTH  1000 0
DWIDTH  10 0
BBX  10 9 0 -2
BITMAP
00000000000000000000
0040800010C000000000
40F060E0FFE0E0E0E010
80E00040C06000204000
00E010E010A0A0E04000
00E080F00020E0100000
00E000E0002080800000
00E000E0E0A000C06000
00A00080200000106000
ENDCHAR
STARTCHAR  4FA0
ENCODING  20384
SWIDTH  1000 0
DWIDTH  10 0
BBX  10 9 0 -2
BITMAP
00002040000080000000
0010C040E0E0F0E0E040
00C0E0006000E0004010
0020E000C030E010E010
0000E0003040E0204000
0000E060E0F0E0F0E0E0
0000E00030C000A08000
0000E040C0100000A080
00006030100000000040
ENDCHAR
STARTCHAR  4FA3
ENCODING  20387
SWIDTH  1000 0
DWIDTH  10 0
BBX  10 9 0 -2
BITMAP
00002010000000000000
0010E040E0E0E0E0F000
10C0E000E0000000E000
0010E000F0E0E0E0E000
0000E000000000000020
0000E0E0E0E0E0E0E0E0
0000E0E00000000000E0
0000E0E00000000000E0
0000A0A0E0E0E0E0C060
ENDCHAR
STARTCHAR  4FA5
ENCODING  20389
SWIDTH  1000 0
DWIDTH  10 0
BBX  10 9 0 -2
BITMAP
00004020300000000000
00A06080E0A0C0E04000
A0FF0060A0A030C06000
20E0002080FFFF606000
00E010A0602060C0A000
00E030E0E0E0E0E0E010
00E00010E01000E00000
00E000A0800000E08000
00A04080000000E0A000
ENDCHAR
STARTCHAR  4FA6
ENCODING  20390
SWIDTH  1000 0
DWIDTH  10 0
BBX  10 9 0 -2
BITMAP
00001020000030000000
0000A0600000F0E0E080
00A0E0000000E0000000
1060E000F0E0E0E0F000
0000E000E000A000E000
0000E000E000E000E000
0000E000E0A08060E000
0000E020C08000A0C010
0000A040300000006040
ENDCHAR
STARTCHAR  4FA7
ENCODING  20391
SWIDTH  1000 0
DWIDTH  10 0
BBX  9 9 0 -2
BITMAP
000020000000000000
008080E0E0E0E020A0
80FF00E08000E0E0E0
30E000E0E000E0E0E0
00E000E0E000E0E0E0
00E000E0E000E0E0E0
00E000A0C0A060E0E0
00E000E020A06000E0
00A02060001080E0A0
ENDCHAR
STARTCHAR  4FA8
ENCODING  20392
SWIDTH  1000 0
DWIDTH  10 0
BBX  11 9 0 -2
BITMAP
0000001000000000200000
0000A060A0E0E0E0C02000
0080E0000000E000000000
0080E040E0F0E0F0E0E000
0000E030A0801060A06000
0000E02020E000E0004000
0000E00030A000E0000000
0000E010E02000E0000000
0000300010000030000000
ENDCHAR
STARTCHAR  4FA9
ENCODING  20393
SWIDTH  1000 0
DWIDTH  10 0
BBX  10 9 0 -2
BITMAP
00001000000000000000
0060A0C0A0E0E0E06000
60FF608000000010E020
40E010A0E0E0E0E00000
00E00000000000000000
00E040E0FFE0E0E0E010
00E00060A00010800000
00E000E08080A0F06000
00801080604030206000
ENDCHAR
STARTCHAR  4FAA
ENCODING  20394
SWIDTH  1000 0
DWIDTH  10 0
BBX  11 9 0 -2
BITMAP
0000204000006000000000
0010E040E0E0F0E0E0E000
00C0E00060601040E02000
0010E00010A0F0F0300000
0000E040E0A03040C0A000
0000E00000E00000E02000
0000E00060A00000E00000
0000E040C0100000E00000
0000301000000000400000
ENDCHAR
STARTCHAR  4FAC
ENCODING  20396
SWIDTH  1000 0
DWIDTH  10 0
BBX  9 9 0 -2
BITMAP
002040000040000000
00A0E0A0A0F0A0A0C0
60FFE030A0803030E0
60E00060A080402040
00E080FF0020E0E040
00E040E00000808000
00E000E0408000E020
00E000E0A0300040A0
004000200000000010
ENDCHAR
STARTCHAR  4FAE
ENCODING  20398
SWIDTH  1000 0
DWIDTH  10 0
BBX  10 9 0 -2
BITMAP
00104030300000000000
008060A0E0E0E0E0E000
30FF30A0000000002000
80F08080E0E0E0E0E000
00E000806080A010E000
00E060F0E0E0E0E0F010
00E000C020A08000E000
00E000A0E0E0E0E0E000
00C00000000000A08000
ENDCHAR
STARTCHAR  4FAF
ENCODING  20399
SWIDTH  1000 0
DWIDTH  10 0
BBX  10 9 0 -2
BITMAP
00004000000000000000
00A06080E0E0E0F03000
A0FF30E0E0E0E0F0E010
20E00060100000000000
00E030E0E0F0E0E08000
00E040E0E0FFE0E0E010
00E00020E030E0800000
00E030E0300010A0C000
00401010000000002000
ENDCHAR
STARTCHAR  4FB5
ENCODING  20405
SWIDTH  1000 0
DWIDTH  10 0
BBX  10 9 0 -2
BITMAP
00001000000000001000
0000A0A0E0E0E0E0F000
00A0E000A0E0E0E0F000
0040E040E0E0E0E0A000
0000E0C0E0E0E0E0E0E0
0000E08080E0E0E0E080
0000E000A08060E08000
0000E080C0E0A0E0C060
00006040200000002030
ENDCHAR
STARTCHAR  4FBF
ENCODING  20415
SWIDTH  1000 0
DWIDTH  10 0
BBX  11 9 0 -2
BITMAP
0000100000000000000000
0000C040E0E0F0E0E0E000
00C0E000E0E0F0E0E00000
0040E000E000E000E00000
0000E000F0E0F0E0F00000
0000E000E0E0E0E0A00000
0000E000C0E04000000000
0000E040E06080C0C08000
0000603020000000206000
ENDCHAR
STARTCHAR  4FC3
ENCODING  20419
SWIDTH  1000 0
DWIDTH  10 0
BBX  10 9 0 -2
BITMAP
00002000000000004000
00A060C0E0E0E0E0E000
A0F000E000000000E000
10E000E0E0E0E0E0A000
00E000102000E0000000
00E000608000F0E0C000
00E000C02000E0000000
00E030FF8000E0000000
00C08040A0E0E0E0E030
ENDCHAR
STARTCHAR  4FC4
ENCODING  20420
SWIDTH  1000 0
DWIDTH  10 0
BBX  10 9 0 -2
BITMAP
00002000101030000000
00808040E040E020A000
60FF0080E000E0008020
30E000E0F0E0F0E0E080
00E00000E010E0104000
00E00030F0A0A0A0A000
00E020C0E00080F01000
00E00000E030C0C0A080
00C000C0A0301010A030
ENDCHAR
STARTCHAR  4FC5
ENCODING  20421
SWIDTH  1000 0
DWIDTH  10 0
BBX  10 9 0 -2
BITMAP
00003000006000300000
0080800000E010C04000
80FF60E0E0F0E0E0E000
30E0204000E000003000
00E010C060E06080A000
00E00010A0FFE0A00000
00E00080A0E030E01000
00E0A08000E00060A000
00A01000A08000006010
ENDCHAR
STARTCHAR  4FCA
ENCODING  20426
SWIDTH  1000 0
DWIDTH  10 0
BBX  11 9 0 -2
BITMAP
0000000000000000000000
0000806030C00000800000
0080E020F0A0A0A0F08000
0080E020A0603020803000
0000E040C0A0100080A000
0000E040C0E0E0E0E03000
0000E040A0A060A0800000
0000E02060E0E0E0A04000
0000A06060200000408000
ENDCHAR
STARTCHAR  4FCE
ENCODING  20430
SWIDTH  1000 0
DWIDTH  10 0
BBX  10 8 0 -2
BITMAP
0000A00000F0E0E0E000
0010E01000E00000E000
00A080E020F0E0E0F000
1060804020E00000E000
0000E00000F0E0E0F000
0020E03000E00000E000
00A080E010E00000E000
20800060A0E0E0E0E0E0
ENDCHAR
STARTCHAR  4FCF
ENCODING  20431
SWIDTH  1000 0
DWIDTH  10 0
BBX  9 9 0 -2
BITMAP
000020000000400000
008080A06000E030C0
80FF00108000E06040
30E000E0E0E0E0E0E0
00E000E0E0E0E0E0E0
00E000E000000000E0
00E000E0E0E0E0E0E0
00E000E000000000E0
00A000A0000010E080
ENDCHAR
STARTCHAR  4FD0
ENCODING  20432
SWIDTH  1000 0
DWIDTH  10 0
BBX  9 9 0 -2
BITMAP
001010000010100000
00A0E0E0F0C03020A0
80FF0000E00000E0E0
40E080FFF0E000E0E0
00E020C0E08000E0E0
00E040A0E0C000E0E0
00E08060E0C000E0E0
00E0A020E0A01020E0
00A08000A06020C0A0
ENDCHAR
STARTCHAR  4FD1
ENCODING  20433
SWIDTH  1000 0
DWIDTH  10 0
BBX  10 9 0 -2
BITMAP
00000020000000000000
0000A060E0E0E0E0FFA0
00A0E000008080C06010
0020E000E0E0FFE0E0E0
0000E000E000E00000E0
0000E000F0E0F0E0E0E0
0000E000F0E0F0E0E0E0
0000E000E000E00000E0
0000A000A0008000C080
ENDCHAR
STARTCHAR  4FD7
ENCODING  20439
SWIDTH  1000 0
DWIDTH  10 0
BBX  10 9 0 -2
BITMAP
00001020001000100000
0000A06060A000808000
00A0E060C0100000A080
0060E040A080E0E0A030
0000E060A00000008080
0000E060A0E0E0E0C060
0000E000E0000000E000
0000E000E0000000E000
0000A000A0E0E0E08000
ENDCHAR
STARTCHAR  4FD8
ENCODING  20440
SWIDTH  1000 0
DWIDTH  10 0
BBX  10 9 0 -2
BITMAP
00000020000000002010
00008080E0E0E0E0C030
0040E000802080008010
00A0E0006030A060A000
0000E020E0E0E0F0FF40
0000E0000000A0A02000
0000E040E0E0F0E0E0E0
0000E0000000E0000000
0000C00000E0A0000000
ENDCHAR
STARTCHAR  4FDA
ENCODING  20442
SWIDTH  1000 0
DWIDTH  10 0
BBX  10 9 0 -2
BITMAP
00001000000000001000
0060A0E0E0F0E0E0E000
40FF10E000E00000E000
80E000F0E0F0E0E0E000
00E000F0E0F0E0E0A000
00E0000000E000000000
00E000E0E0F0E0E03000
00E0000000E000000000
00A060E0E0E0E0E0E000
ENDCHAR
STARTCHAR  4FDC
ENCODING  20444
SWIDTH  1000 0
DWIDTH  10 0
BBX  10 9 0 -2
BITMAP
00001020000000000000
0000C040E0E0F0E0E0E0
00C0E000F0E0F0E0E0E0
0060E000E000E00000E0
0000E000E0E0E0E0E080
0000E080F0E0E0E0E0E0
0000E000C0E0E0E0C000
0000E00000000000E000
0000A0000060E0E0A000
ENDCHAR
STARTCHAR  4FDD
ENCODING  20445
SWIDTH  1000 0
DWIDTH  10 0
BBX  9 9 0 -2
BITMAP
000020000000000060
008080E0E0E0E0E0E0
80FF00E000000000E0
20E000E0E0E0E0E0A0
00E0000000E0000000
00E080E0F0F0E0E0E0
00E0006080E000C030
00E020E010E00020A0
004040200040000010
ENDCHAR
STARTCHAR  4FDE
ENCODING  20446
SWIDTH  1000 0
DWIDTH  10 0
BBX  10 9 0 -2
BITMAP
00000000000000000000
008080E0E0E0E0E0C000
6080E0E0E0E0E0808040
00000000100000002000
00E0E0E0F000E000E000
00E0E0E0F000E000E000
00E0E0E0F000E000E000
00E00000E0002000E000
00A000A0A00020E08000
ENDCHAR
STARTCHAR  4FDF
ENCODING  20447
SWIDTH  1000 0
DWIDTH  10 0
BBX  11 9 0 -2
BITMAP
0000101000200000000000
0000A06020C01000600000
00A0E000E0E0C0E0E08000
0040E00080301000103000
0000E010E0E0F0E0E04000
0000E0204000E000000000
0000E040E0F0E0F0E0E000
0000E020A0A00080C04000
0000A03040000000206000
ENDCHAR
STARTCHAR  4FE1
ENCODING  20449
SWIDTH  1000 0
DWIDTH  10 0
BBX  10 9 0 -2
BITMAP
00104000004020000000
00A080E0E0E0E0E0E010
60FF0000000000000000
80E000E0E0E0E0E04000
00E000E0E0E0E0E04000
00E000A0E0E0E0E04000
00E000E000000000E000
00E000E000000000E000
00A000A0E0E0E0E08000
ENDCHAR
STARTCHAR  4FE3
ENCODING  20451
SWIDTH  1000 0
DWIDTH  10 0
BBX  11 9 0 -2
BITMAP
0000001000000000100000
0000A060F0E0E0E0F00000
0080E000E0000000E00000
0060E000E0E0E0E0A00000
0000E000E0E0E0E0E0A000
0000E0000000E000000000
0000E020E0F0E0F0E0E000
0000E01080C020A0A03000
0000A03080000000308000
ENDCHAR
STARTCHAR  4FE6
ENCODING  20454
SWIDTH  1000 0
DWIDTH  10 0
BBX  10 9 0 -2
BITMAP
00001030000040000000
0010C040E0E0F0E0E0E0
00C0E000E0E0F0E0E040
0060E0000040A0000000
0000E0C0E0FFE0E0E0A0
0000E020E0F0E0E0F0C0
0000E080A0A03000E000
0000E0001060A000E000
0000C000000040E08000
ENDCHAR
STARTCHAR  4FE8
ENCODING  20456
SWIDTH  1000 0
DWIDTH  10 0
BBX  11 9 0 -2
BITMAP
0000102000000000000000
0000A060E0F0E0F0E0C000
00A0E00080E000E010A000
0040E00060E000E0606000
0000E000F0E0E0E0E0C000
0000E000E0000000000000
0000E020C0000000000000
0000E08060000000000000
0000604010000000000000
ENDCHAR
STARTCHAR  4FE9
ENCODING  20457
SWIDTH  1000 0
DWIDTH  10 0
BBX  10 9 0 -2
BITMAP
00002020000000000000
0010C040E0F0E0F0E0E0
00A0E00000E000E00010
0080E000F0F0E0F0E0E0
0000E000E0E000E000E0
0000E000E0F040F040E0
0000E000F080C0A0C0E0
0000E000F020A01000E0
00003000C0000030E080
ENDCHAR
STARTCHAR  4FEA
ENCODING  20458
SWIDTH  1000 0
DWIDTH  10 0
BBX  10 9 0 -2
BITMAP
00104000000000000000
00A080E0E0E0E0E0E020
A0F000E0E0C0A0E0E000
10E000E020E0E020E000
00E000E0A0E0E0C0E000
00E000E0C0E0E0C0E000
00E000E080E0E060F000
00E000E000E0E000E000
003000308080A060A000
ENDCHAR
STARTCHAR  4FED
ENCODING  20461
SWIDTH  1000 0
DWIDTH  10 0
BBX  10 9 0 -2
BITMAP
00001000000000000000
0060A0C0C0E0E0E04000
60FFA06000000020E010
40E030C0E0E0E0E02000
00E00040306000601000
00E000A040C000E00000
00E0006080C060800000
00E000108000C0200000
00A040E0E0E0E0E0E020
ENDCHAR
STARTCHAR  4FEE
ENCODING  20462
SWIDTH  1000 0
DWIDTH  10 0
BBX  10 9 0 -2
BITMAP
00104000201000000000
00A06010E0E0E0E0E000
80FFE080A0A060C04000
20E0E02080E0C0E08020
00E0E0608080E0306020
00E0E000A080A0E04000
00E0E000C0C0A0C0A000
00E0A030A0E080200000
00400020300000000000
ENDCHAR
STARTCHAR  4FEF
ENCODING  20463
SWIDTH  1000 0
DWIDTH  10 0
BBX  10 9 0 -2
BITMAP
00003010000040000000
0010E020E0E0F0E0E0E0
00A0E000E08060004000
0000E000F0FF60E0F0E0
0000E000E0E00010E000
0000E010C0E03060E000
0000E040A0E00080E000
0000E08040E00000E000
0000000000000060A000
ENDCHAR
STARTCHAR  4FF1
ENCODING  20465
SWIDTH  1000 0
DWIDTH  10 0
BBX  10 9 0 -2
BITMAP
00001020000000003000
0000A060F0E0E0E0F000
00A0E000F0E0E0E0F000
0020E000F0E0E0E0F000
0000E000E0000000E000
0000E000F0E0E0E0F000
0000E080F0E0E0E0E0E0
0000E040C0000020E030
00006020100000002010
ENDCHAR
STARTCHAR  4FF3
ENCODING  20467
SWIDTH  1000 0
DWIDTH  10 0
BBX  9 9 0 -2
BITMAP
000010000000000000
0060A000E000E00000
60FFA0E0F000E0E0C0
40E00000E000E00000
00E080E0F000E0E0A0
00E00000E000E00000
00E0A0E0F000E0E0C0
00E00000E000E00000
00800000A000A00000
ENDCHAR
STARTCHAR  4FF8
ENCODING  20472
SWIDTH  1000 0
DWIDTH  10 0
BBX  10 8 0 -1
BITMAP
00004000006000000000
00A0C0E0E0F0E0E0E000
80FF00E0E0F0E0E08000
10E080E0E0F0E0E0E000
00E00080A0A040E04000
00E080E0E0F0E0E0E010
00E0100000C020000000
00E020E0E0F0E0E0C000
ENDCHAR
STARTCHAR  4FFA
ENCODING  20474
SWIDTH  1000 0
DWIDTH  10 0
BBX  10 8 0 -2
BITMAP
0030800000A020000000
20E060E0FFE0F0F0E000
60E010A0806000E0C000
00E060F0E0F0E0F04000
00E000E0E0F0E0F00000
00E000E0E0F0E0E00000
00E0000000E000008000
00A0000000A0E0E0A000
ENDCHAR
STARTCHAR  4FFE
ENCODING  20478
SWIDTH  1000 0
DWIDTH  10 0
BBX  9 9 0 -2
BITMAP
001060004010000000
00C040C0F0E0E0E0C0
A0FF00E000E00000E0
30E000E0E0F0E0E0E0
00E000E000E00000E0
00E000C0E0F0E0E080
00E00040E020E00000
00E080FFE0E0F0E0E0
00A000000000A00000
ENDCHAR
STARTCHAR  500C
ENCODING  20492
SWIDTH  1000 0
DWIDTH  10 0
BBX  10 9 0 -2
BITMAP
00003020001060000000
0010E0C0C0C0F0C0C0E0
00E0E060101010108060
0030E000F0E0E0E0E000
0000E000F0E0E0E0C000
0000E000E00000000000
0000E000F0E0E0E0F000
0000E000E0000000E000
00003000E0E0E0E0A000
ENDCHAR
STARTCHAR  500D
ENCODING  20493
SWIDTH  1000 0
DWIDTH  10 0
BBX  10 9 0 -2
BITMAP
00004000003030000000
00A060E0E0E0F0E0C000
80FF0040600000406000
40E00010E00000E03000
00E040E0E0E0E0E0FF20
00E000A0E0E0E0E0E000
00E000E000000000E000
00E000E0E0E0E0E0A000
00300000000000000000
ENDCHAR
STARTCHAR  500F
ENCODING  20495
SWIDTH  1000 0
DWIDTH  10 0
BBX  10 9 0 -2
BITMAP
00106000401000003000
00A06010F0E0E0E0E000
80FF8060A04010A06000
40E0E01060E0E0E06000
00E0E0206010A0A06000
00E0E030E0E0F0F0E000
00E0E00010C060800000
00E0E030E08010A0A000
00800030400000004000
ENDCHAR
STARTCHAR  5012
ENCODING  20498
SWIDTH  1000 0
DWIDTH  10 0
BBX  9 9 0 -2
BITMAP
000010000000000000
008080E0E0E08060E0
80FF0080608010E0E0
40E010F0C0E080E0E0
00E00030A00010E0E0
00E000E0F0E060E0E0
00E00000E00000E0E0
00E00040E0C0C010E0
00C040A0804010E0A0
ENDCHAR
STARTCHAR  5014
ENCODING  20500
SWIDTH  1000 0
DWIDTH  10 0
BBX  9 9 0 -2
BITMAP
000040000000000080
00A060F0E0E0E0E0F0
A0F000F0E0E0E0E0C0
10E000E00000800000
00E000E0E010E010E0
00E010C0A0C0F0C0E0
00E04080E000E000E0
00E08040E0E0E0E0F0
000000000000000000
ENDCHAR
STARTCHAR  5018
ENCODING  20504
SWIDTH  1000 0
DWIDTH  10 0
BBX  10 9 0 -2
BITMAP
00000000000030000000
00006080E010E010E030
0060E0106080E0806000
0060E0E0E0E0E0FFE0E0
0000E0E000E0E0FF00E0
0000E0E000E000E000E0
0000E0E000F0E0E000E0
0000E0E00000000000E0
0000A0A0000000A0C060
ENDCHAR
STARTCHAR  5019
ENCODING  20505
SWIDTH  1000 0
DWIDTH  10 0
BBX  9 9 0 -2
BITMAP
000010000000000000
00806010E0E0E0F040
80FFE080E0E0E0F0E0
40E0E0108000000000
00E0E080E0E0F0E080
00E0E080E0E0F0E0E0
00E0E00040E040A010
00E03080C0200060C0
004000000000000010
ENDCHAR
STARTCHAR  501A
ENCODING  20506
SWIDTH  1000 0
DWIDTH  10 0
BBX  9 9 0 -2
BITMAP
001060000030200000
00C060E0E0F0E0E0E0
A0FF20A0E02060F060
40E030801000001080
00E080E0E0E0FFE0F0
00E000E0E0E0F000E0
00E000F0E0E0E000E0
00E0000000000000E0
00A0000000A0E0E080
ENDCHAR
STARTCHAR  501C
ENCODING  20508
SWIDTH  1000 0
DWIDTH  10 0
BBX  10 9 0 -2
BITMAP
00000000000000000000
00008060F0E0E0E0E0E0
00C0E000E0E0C0E060E0
0030E000E000E00000E0
0000E000E0E0E0E0FFE0
0000E010C0E0E0E0E0E0
0000E030A0E0E0E0A0E0
0000E0608000000000E0
0000A06040000000E0A0
ENDCHAR
STARTCHAR  501F
ENCODING  20511
SWIDTH  1000 0
DWIDTH  10 0
BBX  10 9 0 -2
BITMAP
00002030006000600000
0000C060E0F0E0F0E030
00C0E00000E000E00000
0030E060E0F0E0F0E0E0
0000E000000000001000
0000E000F0E0E0E0F000
0000E000F0E0E0E0F000
0000E000E0000000E000
0000C000E0E0E0E0A000
ENDCHAR
STARTCHAR  5021
ENCODING  20513
SWIDTH  1000 0
DWIDTH  10 0
BBX  10 9 0 -2
BITMAP
00001010000000001000
0010C040E0E0E0E0F000
10C0E000F0E0E0E0F000
0020E000F0E0E0E0E000
0000E000000000000000
0000E0C0E0E0E0E0E0E0
0000E0E0E0E0E0E0E0E0
0000E0E00000000000E0
0000C0A0E0E0E0E0C080
ENDCHAR
STARTCHAR  5025
ENCODING  20517
SWIDTH  1000 0
DWIDTH  10 0
BBX  9 9 0 -2
BITMAP
001060001040000000
00C0E0C0C0F0C0C0E0
A0F0E02060204060E0
10E010C0600010E060
00E040400000001080
00E00060E0F0E0E000
00E0000000E0000000
00E0000000E0000000
00A040E0E0E0E0E0E0
ENDCHAR
STARTCHAR  5026
ENCODING  20518
SWIDTH  1000 0
DWIDTH  10 0
BBX  10 9 0 -2
BITMAP
00002010003000100000
008080A040E010E02000
80FF00E0E0F0E0E0A000
10E080E0E0F0E0E0E000
00E00080A00020F03000
00E060FFE0E0E0F0E010
00E060E000A0E0A04010
00E000E000000000A000
00A000A0E0E0E0E08000
ENDCHAR
STARTCHAR  5028
ENCODING  20520
SWIDTH  1000 0
DWIDTH  10 0
BBX  9 9 0 -2
BITMAP
001040000000000020
00A060E0E0E0E0E0F0
A0F000E0E0E0E0E0E0
00E000E00000E00000
00E000E0C0E0F0E0E0
00E000E00000E00020
00E000C0E0E0E0E0E0
00E04080E0000000E0
00A06030A0E0E0E080
ENDCHAR
STARTCHAR  5029
ENCODING  20521
SWIDTH  1000 0
DWIDTH  10 0
BBX  10 9 0 -2
BITMAP
00001000000060000000
0010C030E0E0F0E0E0A0
00C0E000E0E0F0E0E010
0020E030E0E0F0E0E0E0
0000E000E0E0E0E0F000
0000E000F0E0E0E0F000
0000E000F0E0E0E0F000
0000E000E0000000E000
0000A000A00000E0A000
ENDCHAR
STARTCHAR  502A
ENCODING  20522
SWIDTH  1000 0
DWIDTH  10 0
BBX  10 9 0 -2
BITMAP
00001020000000000000
0000C040E0C0A0E0C000
00C0E000E0000000E000
0040E000F0E0E0E0F000
0000E000E0000000E000
0000E000E0F0E0F0A000
0000E00020C000E00000
0000E020E04000E000A0
0000A060400000A0E080
ENDCHAR
STARTCHAR  502C
ENCODING  20524
SWIDTH  1000 0
DWIDTH  10 0
BBX  10 9 0 -2
BITMAP
00002040001080000000
0010E0300010F0E0E060
00C0E000E0E0F0E0C000
0000E000E0000000E000
0000E000F0E0E0E0F000
0000E000F0E0E0E0E000
0000E0000000E0000000
0000E060E0E0F0E0E0E0
00003000000040000000
ENDCHAR
STARTCHAR  502D
ENCODING  20525
SWIDTH  1000 0
DWIDTH  10 0
BBX  9 9 0 -2
BITMAP
000020000000000010
00A060A0E0E0E0E040
A0F010E0E0F0E0E0E0
10E010C040E010C060
00E030606080001060
00E060E0E0E0E0F0E0
00E00080C060A0C000
00E02080E0A0E0A060
006020401000002060
ENDCHAR
STARTCHAR  502E
ENCODING  20526
SWIDTH  1000 0
DWIDTH  10 0
BBX  11 9 0 -2
BITMAP
0000103000000000100000
0010C040F0E0F0E0F00000
00C0E000F0E0F0E0F00000
0010E000E000E000E00000
0000E000E0E0F0E0A00000
0000E030E0E0F0E0E0E000
0000E0006060E060A00000
0000E040C000E000C0A000
0000602010006000203000
ENDCHAR
STARTCHAR  503A
ENCODING  20538
SWIDTH  1000 0
DWIDTH  10 0
BBX  10 9 0 -2
BITMAP
00001020000060000000
0000C060E0E0F0E0E0A0
00A0E000E0E0F0E0E010
0030E010E0E0F0E0E0E0
0000E000C0E0E0E0E000
0000E000E000C000E000
0000E000C080C0A0A000
0000E020E0800060E0A0
00002000100000000010
ENDCHAR
STARTCHAR  503C
ENCODING  20540
SWIDTH  1000 0
DWIDTH  10 0
BBX  9 9 0 -2
BITMAP
000040000000000000
00A060E0E0F0E0E0C0
60FF000000E0000010
80E000E0E0E0E0E0E0
00E000E0E0E0E0E0E0
00E000E0E0E0E0E0E0
00E000E0E0E0E0E0E0
00E000E000000000E0
00A0A0E0E0E0E0E0E0
ENDCHAR
STARTCHAR  503E
ENCODING  20542
SWIDTH  1000 0
DWIDTH  10 0
BBX  10 9 0 -2
BITMAP
00102000001010101000
00A060E000E0E0F0E020
A0FF00F0C0A0C0F0E000
30E000E000E01060E000
00E000E000E000E0E000
00E000E000E040A0E000
00E000E080C0E080A000
00E040E040E03010C000
00400000001000001000
ENDCHAR
STARTCHAR  5043
ENCODING  20547
SWIDTH  1000 0
DWIDTH  10 0
BBX  10 9 0 -2
BITMAP
00001000000000000000
008080F0E0E0E0E0F000
80FF00E0E0E0E0E0E000
20E000E0E0E0E0E0E000
00E000E0C0F0E0E08000
00E000E0E0F0E0E0E000
00E000E060F0C0E0A000
00E000E0C0A06080C000
00A000E0E0E0E0E0E010
ENDCHAR
STARTCHAR  5047
ENCODING  20551
SWIDTH  1000 0
DWIDTH  10 0
BBX  10 9 0 -2
BITMAP
00001000000000000000
00A060F0E0C0E0E0E000
A0FF00E000E00010E000
20E000F0E080C0E0A000
00E000F0E0A0E0E0F000
00E000E00000C060C000
00E000F0E0A040FF4000
00E000E00030E060E010
00600060001010002000
ENDCHAR
STARTCHAR  5048
ENCODING  20552
SWIDTH  1000 0
DWIDTH  10 0
BBX  9 9 0 -2
BITMAP
000020000000000020
00A080E0E0E0E0E0E0
A0F000E0E0E0E0E0E0
00E000E0F0E0E0E0A0
00E000A0E0E0E0E0E0
00E060C000A08000E0
00E020E080A0C060E0
00E000E0E0E0A0E0C0
000000000000001000
ENDCHAR
STARTCHAR  504C
ENCODING  20556
SWIDTH  1000 0
DWIDTH  10 0
BBX  9 9 0 -2
BITMAP
000000000000000000
0060A060E06060E060
80FF2080E08080E080
40E00000A000000000
00E080E0F0E0E0E0E0
00E00080F0E0E0E080
00E060E0E0000000E0
00E03010E0000000E0
00A00000E0E0E0E080
ENDCHAR
STARTCHAR  504E
ENCODING  20558
SWIDTH  1000 0
DWIDTH  10 0
BBX  10 9 0 -2
BITMAP
00002000000000006000
00A080F0E0F0E0E0E000
A0F000F0E0F0E0E0E000
00E000F0E0F0E0E0A000
00E00000000000000000
00E060F0E0E0F0E0E000
00E000E00010E080C000
00E000E0800030E06000
00A010C0400000208000
ENDCHAR
STARTCHAR  504F
ENCODING  20559
SWIDTH  1000 0
DWIDTH  10 0
BBX  9 9 0 -2
BITMAP
001030000010000000
00C060E0E0F0E0E0A0
A0FF00E000000000E0
20E000F0E0E0E0E0A0
00E000E0E0E0E0E0A0
00E000E0E0E000E0E0
00E030C0F0F0E0F0F0
00E08080E0E000E0E0
00A06010A0200080A0
ENDCHAR
STARTCHAR  5055
ENCODING  20565
SWIDTH  1000 0
DWIDTH  10 0
BBX  9 9 0 -2
BITMAP
000030400000400000
00A060F0E060F0C0A0
A0F000E02020E01040
00E030FFE040F0E0A0
00E0103010A0000030
00E000F0E0E0E0E0E0
00E000F0E0E0E0E0E0
00E000E000000000E0
00A000E0E0E0E0E080
ENDCHAR
STARTCHAR  505A
ENCODING  20570
SWIDTH  1000 0
DWIDTH  10 0
BBX  10 9 0 -2
BITMAP
00103000600030300000
00A06000E000A0E0E080
A0F060E0F0E0A000E000
10E00000E0002010E000
00E0A0E0F0C040A0C000
00E0E00000E000E06000
00E0E00000E000E08000
00E0E00000E08080E030
00A0A0E0E06060006040
ENDCHAR
STARTCHAR  505C
ENCODING  20572
SWIDTH  1000 0
DWIDTH  10 0
BBX  9 9 0 -2
BITMAP
000030001030000000
10A080E0E0F0E0E0E0
80F000A0E0E0E0F000
00E000E0E0E0E0C000
00E0A0E0E0E0E0E0F0
00E060000000000060
00E000E0E0F0E0E080
00E0000000E0000000
00A00030E0A0000000
ENDCHAR
STARTCHAR  5065
ENCODING  20581
SWIDTH  1000 0
DWIDTH  10 0
BBX  10 9 0 -2
BITMAP
00101000000000000000
10C0F0E030E0F0E0E000
80F000E000E0F0E0F0A0
00E040A020E0F0E0E000
00E0A0800000E0000000
00E030F040E0F0E0E000
00E020C0A0E0F0E0E000
00E080A00000A0000000
00A08080E0E0E0E0E0A0
ENDCHAR
STARTCHAR  506C
ENCODING  20588
SWIDTH  1000 0
DWIDTH  10 0
BBX  10 8 0 -1
BITMAP
00104020400000000000
20E040C0F0E0E0E06000
A0F080A060C06080E000
00E03040FFE0E010E000
00E010E040C0C030E000
00E01040808010A0C000
00E060A0E0108010E000
00E0A030F0E0E0E0C010
ENDCHAR
STARTCHAR  5076
ENCODING  20598
SWIDTH  1000 0
DWIDTH  10 0
BBX  9 9 0 -2
BITMAP
000020000000000010
10A060E0E0F0E0E0E0
A0F000E0E0F0E0E0E0
00E000E000E00000E0
00E000C0E0F0E0E060
00E000F0E0F0E0E0F0
00E000E040E0A0A0E0
00E000E0A08060A0E0
00A000A0000000E0A0
ENDCHAR
STARTCHAR  5077
ENCODING  20599
SWIDTH  1000 0
DWIDTH  10 0
BBX  10 9 0 -2
BITMAP
00001000000000000000
00A080A0A0E0E0E0A000
A0F060C0E0E0E0E0C040
10E010E0E08000006000
00E000E000E0E000E000
00E000F0E0F0E000E000
00E000F0E0F0E000E000
00E000E000E08000E000
00A000A060A0A0E08000
ENDCHAR
STARTCHAR  507B
ENCODING  20603
SWIDTH  1000 0
DWIDTH  10 0
BBX  10 9 0 -2
BITMAP
00002000000000000000
00A0808040E020C03000
A0F000E0E0F0E0E08000
00E000A060E020E04000
00E0308010E00030A000
00E030E0E0E0E0E0E000
00E00080C040A0C00000
00E01080E0C0E0803000
00601060100000406000
ENDCHAR
STARTCHAR  507E
ENCODING  20606
SWIDTH  1000 0
DWIDTH  10 0
BBX  10 9 0 -2
BITMAP
00003000004000000000
00A060E0E0F0E0E08000
A0F00000606000600000
10E040E0F0E0E0F0E010
00E000A0FFE0E0FFC000
00E000E000A00000E000
00E000A080C0A030A000
00E030E0800030A0A000
00301000000000001000
ENDCHAR
STARTCHAR  507F
ENCODING  20607
SWIDTH  1000 0
DWIDTH  10 0
BBX  9 9 0 -2
BITMAP
000030100060001010
00A060A0A0E030E030
A0F000E0E0F0E0E0E0
00E000600000000060
00E000E0E0E0E0E010
00E030E0E0E0E0E0E0
00E00020C030204000
00E010E0E0A0E0F030
006010604020102020
ENDCHAR
STARTCHAR  5080
ENCODING  20608
SWIDTH  1000 0
DWIDTH  10 0
BBX  10 9 0 -2
BITMAP
00000000000000000000
00408000608000003000
60F010F0E0F0E0E0E000
10E000F0E0F0E0E0E000
00E000E000E00000E000
00E000E0E0FFE0E08000
00E0000060A0E0E0E000
00E01080C010E0000000
00A060600000E0E0E030
ENDCHAR
STARTCHAR  5085
ENCODING  20613
SWIDTH  1000 0
DWIDTH  10 0
BBX  9 9 0 -2
BITMAP
000030000000000000
00A080E0E0F0E0F0E0
A0F000C0E0F0E0E060
00E000F0E0F0E0E0E0
00E000F0E0F0E0E0E0
00E000E000C00000E0
00E060E0E0E0E0E0E0
00E00060800000E000
00A000108040E0A000
ENDCHAR
STARTCHAR  5088
ENCODING  20616
SWIDTH  1000 0
DWIDTH  10 0
BBX  10 9 0 -2
BITMAP
00000000000000000000
00A080E0F0E0F0E0E000
80F000E0F0E0F0E0A000
00E000E0E000E000E000
00E000E0E0E0E0E08000
00E040E0E0F0E0E0E000
00E0008020E000E03000
00E060A000E00030C000
00602010006000003000
ENDCHAR
STARTCHAR  508D
ENCODING  20621
SWIDTH  1000 0
DWIDTH  10 0
BBX  10 9 0 -2
BITMAP
00002020001060000000
0020E030E0E0F0E0E0C0
00E0E000806000806000
0030E0A0E0E0E0F0E0E0
0000E0C0E0E0E0E0E0FF
0000E000E00000002000
0000E010E0E0E0E0F000
0000E0A060000000E000
0000A030000000A0A000
ENDCHAR
STARTCHAR  50A3
ENCODING  20643
SWIDTH  1000 0
DWIDTH  10 0
BBX  10 9 0 -2
BITMAP
00003000008000000000
10C060E0E0F0E0E0C000
80E010E0E0F0E0E04000
00E060E0E0F0E0E0E000
00E00080E00020F04000
00E080FF40C010C0F020
00E0204080E060603000
00E01080A0E080A03000
00A0406060800030A000
ENDCHAR
STARTCHAR  50A5
ENCODING  20645
SWIDTH  1000 0
DWIDTH  10 0
BBX  9 9 0 -2
BITMAP
000010100040001000
0080A0E020E010C030
80F0A0C0C0E0A0C0E0
00E0C000000000A0E0
00E000E0E0E0E0F000
00E000E0E0E0E0E000
00E00040E000E00000
00E060E03000E000A0
00A080300000A0E0A0
ENDCHAR
STARTCHAR  50A7
ENCODING  20647
SWIDTH  1000 0
DWIDTH  10 0
BBX  9 9 0 -2
BITMAP
001040000060100000
10C060E0E0F0E0E0F0
A0FF00600000006060
20E000E0E0E0E0A020
00E000E0E0E0E0E040
00E000E0000000E000
00E080E0E0E0E0F0E0
00E010C0600010E030
006000300000001020
ENDCHAR
STARTCHAR  50A8
ENCODING  20648
SWIDTH  1000 0
DWIDTH  10 0
BBX  10 9 0 -2
BITMAP
00204020000060000000
20E060A030E0F0E0A000
A0F010600000E0E04000
00E080E0E0E0F0E0E000
00E000E080F0E0E0C000
00E000E010E00000E000
00E000E000F0E0E0E000
00E010FF40E00000E000
00A0606000E0E0E08000
ENDCHAR
STARTCHAR  50A9
ENCODING  20649
SWIDTH  1000 0
DWIDTH  10 0
BBX  10 9 0 -2
BITMAP
00100000001000000000
00A04000208060C00000
60FF60E0E0E0E0F0E010
30E01010F0FF00E00000
00E060A080E0E0F0E000
00E000E030E0E0F0E000
00E060E080E000E00000
00E0802080E0E0E0E010
00000000001000000000
ENDCHAR
STARTCHAR  50AC
ENCODING  20652
SWIDTH  1000 0
DWIDTH  10 0
BBX  9 8 0 -1
BITMAP
000020000040000000
00A060E010E00000E0
A0FF00A0E0E0E0E0E0
20E000E000A0400000
00E080FFE0E0F0E0C0
00E040E0E0E0F0E080
00E000E0E0E0F0E080
00E000E0E0E0E0E0A0
ENDCHAR
STARTCHAR  50B2
ENCODING  20658
SWIDTH  1000 0
DWIDTH  10 0
BBX  10 9 0 -2
BITMAP
00204000000000000000
20E080E0E0E0A0E0E030
80E010E0F0E08000E000
00E00010A0003030E000
00E060F0E0E060A0A000
00E000C0E08000E06000
00E000A000E010F08000
00E0308000E06080E000
00A06020A08080108020
ENDCHAR
STARTCHAR  50BA
ENCODING  20666
SWIDTH  1000 0
DWIDTH  10 0
BBX  10 9 0 -2
BITMAP
00106010100020000000
20E040C0E0A0F0E0E020
A0F080A060C0C040E010
00E040A0F03060F06000
00E040C0E0E0E0C0A010
00E010E0E0E0E0E0C000
00E0004040E000800000
00E060E020E000A0A000
00A0300080A000006000
ENDCHAR
STARTCHAR  50BB
ENCODING  20667
SWIDTH  1000 0
DWIDTH  10 0
BBX  10 9 0 -2
BITMAP
00003000400000000000
10C060E0FFE0E0E0C000
A0F000E0C0C0E060E000
10E000E0C0C0E060E000
00E000F0F0E0E0FF8000
00E060E0F0E0E0E08020
00E00060C080E0600000
00E060E0C080A0C0C020
00201000000000001000
ENDCHAR
STARTCHAR  50CF
ENCODING  20687
SWIDTH  1000 0
DWIDTH  10 0
BBX  9 9 0 -2
BITMAP
000020004000000000
10A06080FFE0E0E010
80E030F0E0E0E0F060
00E000E000C04000E0
00E000E0FFFFE0E0A0
00E040C080E0C080A0
00E030C0A080F0E010
00E03080E0A0E06080
0060406010C0800080
ENDCHAR
STARTCHAR  50D6
ENCODING  20694
SWIDTH  1000 0
DWIDTH  10 0
BBX  10 9 0 -2
BITMAP
00003000004000000000
00A080E0E0F0E0E0E010
A0F000E0E0E0E0E0C000
00E000C0E0E0E0E0E000
00E000E0E0E0E0E0A000
00E0A0E0E0E0E0F0E000
00E000C0E0E0E0E04000
00E000E000000000E000
00A000C0E0E0E0E08000
ENDCHAR
STARTCHAR  50DA
ENCODING  20698
SWIDTH  1000 0
DWIDTH  10 0
BBX  10 9 0 -2
BITMAP
00104000006000000000
10C0C0E0E0F0E0E0E000
A0F020608080E0306000
10E020E0E01060FF8000
00E080FFE0E0E0F0E000
00E000E0E0E0E0F00000
00E000A0E0F0E0A00000
00E020C020E010E03000
00A06030A0A000208000
ENDCHAR
STARTCHAR  50E6
ENCODING  20710
SWIDTH  1000 0
DWIDTH  10 0
BBX  10 9 0 -2
BITMAP
00104000000000000000
00C0A0E0E0E000A08010
A0FF000000A0E0F0E010
00E000F0E0E000E02000
00E000F0E0A000E08000
00E00060E06010FFC000
00E040C0E0C060E0C000
00E08080E0C0C060C060
00A040A060408030C060
ENDCHAR
STARTCHAR  50E7
ENCODING  20711
SWIDTH  1000 0
DWIDTH  10 0
BBX  9 9 0 -2
BITMAP
000010101000002000
0060A030800020E060
80FF10F0E0F0E0E0F0
20E000E0A0E040A0E0
00E000E0E0E0E0E0A0
00E000E0E0E0E0E080
00E000F0E0E0E0E0E0
00E000E000000000E0
00A000E0E0E0E0E080
ENDCHAR
STARTCHAR  50EC
ENCODING  20716
SWIDTH  1000 0
DWIDTH  10 0
BBX  10 9 0 -2
BITMAP
00206060103040000000
10E040F0E0E0F0E0E000
A0FF80E00000E0000000
10E060F0E0E0F0E0A000
00E000F0E0E0F0E0A000
00E000E00000E0000000
00E000F0E0E0E0E0E000
00E01080406060306000
00A0604010A040608000
ENDCHAR
STARTCHAR  50ED
ENCODING  20717
SWIDTH  1000 0
DWIDTH  10 0
BBX  10 9 0 -2
BITMAP
00002000000000000000
10A080E0F0A0E0F0E000
80F020F0F0E0F0F0E000
00E000C0C080A0E04000
00E060A0A0A0C060E000
00E000A0E0E0E0E06000
00E000C0E0E0E0E0A000
00E000C010000020A000
00A000A0E0E0E0E06000
ENDCHAR
STARTCHAR  50EE
ENCODING  20718
SWIDTH  1000 0
DWIDTH  10 0
BBX  10 9 0 -2
BITMAP
00201000004000000000
00C060E0E0E0E0E0E000
80F080E0F0E0E0FFE000
00E000C0E0E0E0E0C000
00E000E0E0F0E0E0E000
00E000E000E00000E000
00E000C0E0F0E0E06000
00E000E0E0F0E0E0C000
006080E0E0E0E0E0E000
ENDCHAR
STARTCHAR  50F3
ENCODING  20723
SWIDTH  1000 0
DWIDTH  10 0
BBX  9 9 0 -2
BITMAP
000020000000000000
00A080E0F0E0F0E0E0
A0F000E0F0E0F0E0C0
00E000E0E000E000E0
00E000E0E0E0E0E080
00E0006030E000C040
00E030E0E0F0E0F0E0
00E010A010E000C080
006000200060000030
ENDCHAR
STARTCHAR  50F5
ENCODING  20725
SWIDTH  1000 0
DWIDTH  10 0
BBX  9 9 0 -2
BITMAP
001030000000000000
00A080E0E0E0E0E0FF
80F000FFFFFFFFFFE0
00E000F0E0F0E0E0A0
00E0A0E0E0E0E0E0E0
00E000E0E0E0E0E0A0
00E000F0C0F0C0C0C0
00E000E0E0E0E0E080
0060A0E0E0E0E0E0E0
ENDCHAR
STARTCHAR  50FB
ENCODING  20731
SWIDTH  1000 0
DWIDTH  10 0
BBX  10 9 0 -2
BITMAP
00101000001000200000
00C040F0E0E0E0F0E000
A0FF00E000E080108000
20E000F0E0A080808000
00E000E00060E0F0E010
00E010FFE0E000C00000
00E030FF00E0E0F0E000
00E040FF00E000E00000
00A040F0E06000A00000
ENDCHAR
STARTCHAR  5106
ENCODING  20742
SWIDTH  1000 0
DWIDTH  10 0
BBX  10 9 0 -2
BITMAP
00000000000010100000
0080A0E080E080C08040
80FF30C060E0E040E020
30E040E0E0608020E000
00E0A00010E060A0A000
00E000F0F0E010F06000
00E000E0E0E010F06000
00E000E0A0E08080E010
00A00000A0A060008040
ENDCHAR
STARTCHAR  5107
ENCODING  20743
SWIDTH  1000 0
DWIDTH  10 0
BBX  9 9 0 -2
BITMAP
000020000000000040
00A080F0F0E0F0E0E0
A0F000E0E0E0E0E080
00E080E0E0E0E0E0E0
00E000F0E0E0E0E0E0
00E000F0E0E0E0E0A0
00E030A0E000C080A0
00E06080F0A010A0A0
004000302000000020
ENDCHAR
STARTCHAR  510B
ENCODING  20747
SWIDTH  1000 0
DWIDTH  10 0
BBX  10 9 0 -2
BITMAP
00102020000000000000
00C060E0E0E0E0F04000
A0FF80F0E0E0F0FFE010
10E000E0E04080608000
00E000F0C0C0C0C0C010
00E000E0FFFFFFFF8000
00E010C0E0E0E0E0C000
00E06080E0000000E000
00606020E0E0E0E06000
ENDCHAR
STARTCHAR  5112
ENCODING  20754
SWIDTH  1000 0
DWIDTH  10 0
BBX  10 9 0 -2
BITMAP
00001000000000000000
008060E0E0F0E0E0E000
80FF00F0E0F0E0E0F010
20E000E0C0E020C0C010
00E00030C0C020C02000
00E030E0E0E0E0E0E020
00E000F0E0F0F0E0E000
00E000E000E0E000E000
00A000A000303040A000
ENDCHAR
STARTCHAR  5121
ENCODING  20769
SWIDTH  1000 0
DWIDTH  10 0
BBX  9 9 0 -2
BITMAP
000020000000004000
00A060F0E0F0E0F000
80F000F0E0F0E0F000
00E000F0E0F0E0E000
00E000000030000030
00E0E0F0E0E0F0F0F0
00E0E0F0E0E0F0F0F0
00E0E0E000E0E0E0E0
00A0A0E0E080E0E0A0
ENDCHAR
STARTCHAR  513F
ENCODING  20799
SWIDTH  1000 0
DWIDTH  10 0
BBX  10 8 0 -2
BITMAP
000000C00000C0000000
000000E00000E0000000
000000E00000E0000000
000010C00000E0000000
000060800000E0000000
0000E0200000E0000000
00A080000000E00000E0
108000000000A0E0E080
ENDCHAR
STARTCHAR  5140
ENCODING  20800
SWIDTH  1000 0
DWIDTH  10 0
BBX  9 8 1 -2
BITMAP
E0E0F0E0E0F0E0E0A0
0000E00000E0000000
0000E00000E0000000
0000E00000E0000000
0040A00000E0000000
00C0300000E0000010
80A0000000E00000E0
6000000000A0E0E080
ENDCHAR
STARTCHAR  5141
ENCODING  20801
SWIDTH  1000 0
DWIDTH  10 0
BBX  10 9 0 -2
BITMAP
00000020100000000000
000030E0200000100000
0020E020000000A03000
00E0C0C0C0E0E0E0C000
004040E02010E0004000
000020C00000E0000000
0000A0600000E0000000
0080C0000000E0008000
108000000000C0E0A000
ENDCHAR
STARTCHAR  5143
ENCODING  20803
SWIDTH  1000 0
DWIDTH  10 0
BBX  9 8 0 -2
BITMAP
00E0E0E0E0E0E0E030
000000000000000000
80E0E0E0E0E0E0E0E0
000000E00000E00000
000040A00000E00000
0010E0200000E00000
20E040000000E000C0
102000000000E0E0A0
ENDCHAR
STARTCHAR  5144
ENCODING  20804
SWIDTH  1000 0
DWIDTH  10 0
BBX  9 9 0 -2
BITMAP
000000000000001000
00C0E0E0E0E0E0F000
00E00000000000E000
00E00000000000E000
00E0E0E0E0E0E0E000
000010E00000E00000
000080800000E00000
20A0A0000000E000A0
606000000000E0E0A0
ENDCHAR
STARTCHAR  5145
ENCODING  20805
SWIDTH  1000 0
DWIDTH  10 0
BBX  10 9 0 -2
BITMAP
00000000602000000000
20E0E0E0E0E0E0E0E030
000030E0000000200000
0010E030001020E01000
0080F0E0E0E0F0C08000
002020E00000E0002000
000060800000E0000000
0060C0100000E0008000
10A010000000C0E0A000
ENDCHAR
STARTCHAR  5146
ENCODING  20806
SWIDTH  1000 0
DWIDTH  10 0
BBX  9 9 0 -2
BITMAP
000000100000100000
001000E00000E00010
10E020E00000E06060
003080E00000E08000
000030E00000E01000
20C0C0E00000E0C030
1030A0600000E00010
10A080000000E010C0
306000000000E0E0A0
ENDCHAR
STARTCHAR  5148
ENCODING  20808
SWIDTH  1000 0
DWIDTH  10 0
BBX  10 9 0 -2
BITMAP
00001000001000000000
0000E00000E000000000
0080E0E0E0F0E0E0E010
0080000000E000000000
00E0E0E0E0F0E0E0E0A0
000000E0000000E00000
000060A0000000E00000
10A0C010000000E000A0
00400000000000E0E080
ENDCHAR
STARTCHAR  5149
ENCODING  20809
SWIDTH  1000 0
DWIDTH  10 0
BBX  9 9 0 -2
BITMAP
000000003000000000
20600000E000006020
00A08000E00080A000
00004000E000400000
E0E0F0E0E0E0F0E0E0
0000E0000000E00000
0020C0000000E00000
20E030000000E000A0
803000000000E0E0A0
ENDCHAR
STARTCHAR  514B
ENCODING  20811
SWIDTH  1000 0
DWIDTH  10 0
BBX  10 9 0 -2
BITMAP
00000000002000000000
00E0E0E0E0F0E0E0E060
0000000000E000002000
0000F0E0E0E0E0E0E000
0000E00000000000E000
0000E0E0E0E0E0E08000
000010E04000E0000000
0040E0600000E00000C0
10A020000000A0E0E080
ENDCHAR
STARTCHAR  514D
ENCODING  20813
SWIDTH  1000 0
DWIDTH  10 0
BBX  9 9 0 -2
BITMAP
000060000000000000
0080F0E0E0E0E0E000
60C000000020E08030
40E0E0E0F0E0E0E0E0
00E00000E0000000E0
00C0E0E0F0E0E0E0A0
000030E02060000000
1080E03000E0000080
6080100000C0E0E0A0
ENDCHAR
STARTCHAR  5151
ENCODING  20817
SWIDTH  1000 0
DWIDTH  10 0
BBX  9 7 0 -1
BITMAP
000080300000608000
00A0E0F0E0E0FFE080
00E0000000000000E0
00E0000000000000E0
00A0E0F0E0E0F0E080
001080800000E00060
60A030000000F0E0C0
ENDCHAR
STARTCHAR  5154
ENCODING  20820
SWIDTH  1000 0
DWIDTH  10 0
BBX  10 9 0 -2
BITMAP
00000060000000000000
000060FFE0E0E0E00000
0060E0201010A0A03000
0080F0C0C0F0C0C0F000
0000E00000E00000E000
0000E0E0E0F0E0E0A000
00000040E01080202000
0020A0C02000E0308060
008060000000E0E0E080
ENDCHAR
STARTCHAR  5155
ENCODING  20821
SWIDTH  1000 0
DWIDTH  10 0
BBX  9 9 0 -2
BITMAP
000000000000000060
00C0E0E00010E0E0E0
00E000E0E0E0C000E0
00E0000000000000E0
00E0E0E0E0E0E0E0A0
000000E00000E00000
000030C00000E00000
1060E0200000E000E0
408010000000E0E0A0
ENDCHAR
STARTCHAR  5156
ENCODING  20822
SWIDTH  1000 0
DWIDTH  10 0
BBX  9 9 0 -2
BITMAP
000000006010000000
80E0E0E0F0E0E0E0E0
003080000000008000
20E040800000208080
1040E040001060A040
00A0F0E0E0C0F0C010
000020C00000E00000
0060E0300000E00080
308010000000E0E0A0
ENDCHAR
STARTCHAR  515A
ENCODING  20826
SWIDTH  1000 0
DWIDTH  10 0
BBX  9 9 0 -2
BITMAP
000030006000002000
0010C020E00010A010
00E0C0C0E0C0C0C0E0
00E0000000000080E0
0000E0E0E0E0E0F000
0000E0E0E0E0E0E000
000010C00000E00000
0040E0300000E00080
10A020000000E0E0A0
ENDCHAR
STARTCHAR  515C
ENCODING  20828
SWIDTH  1000 0
DWIDTH  10 0
BBX  9 9 0 -2
BITMAP
000020001040000010
00C0A0A0F0F060A0F0
00E000E00000E000E0
00E000E0E0E0E000E0
00E000E00000E000E0
20F0A0A0E0E080A0C0
00100020A000C00000
002060E03000E00080
10A060100000E0E0A0
ENDCHAR
STARTCHAR  5162
ENCODING  20834
SWIDTH  1000 0
DWIDTH  10 0
BBX  10 9 0 -2
BITMAP
00000030000000300000
00E0E0F0E0E0E0F0E000
000000E0200000E02000
00E0E0E0E0E0E0E0F000
00E00000E0E00000E000
00C0FFF080A0FFFF8000
0060E0E00040E0E00000
00C060E0C0A040E00080
20800080106000A0E060
ENDCHAR
STARTCHAR  5165
ENCODING  20837
SWIDTH  1000 0
DWIDTH  10 0
BBX  10 9 0 -2
BITMAP
00000000100000000000
00000020C00000000000
00000000808000000000
0000000030FF30000000
00000000C040E0100000
000000A0600060A00000
0010A080000000A06000
10E0600000000010E020
00200000000000002000
ENDCHAR
STARTCHAR  5168
ENCODING  20840
SWIDTH  1000 0
DWIDTH  10 0
BBX  10 8 0 -1
BITMAP
00000000000000000000
0000C080E0E0E0E08000
00A0800000000000A030
0060E0E0E0E0E0E0A020
0000000000E000000000
0000E0E0E0F0E0E0E000
0000000000E000000000
10E0E0E0E0F0E0E0E020
ENDCHAR
STARTCHAR  516B
ENCODING  20843
SWIDTH  1000 0
DWIDTH  10 0
BBX  10 9 0 -2
BITMAP
00000030000030000000
000000E00000E0000000
000000E00000E0000000
000000E00000E0000000
000020C00000C0200000
00006080000080600000
0010E010000010E01000
10C0400000000040C010
00300000000000003000
ENDCHAR
STARTCHAR  516C
ENCODING  20844
SWIDTH  1000 0
DWIDTH  10 0
BBX  10 9 0 -2
BITMAP
00000000000000000000
0000E080E0E0E0E01000
0080800000000060A000
30C0000060000000A040
10200080800000001010
000040C0000010200000
0010E020000030C00000
00A0C080A0C0E0E06000
00606040301000104000
ENDCHAR
STARTCHAR  516D
ENCODING  20845
SWIDTH  1000 0
DWIDTH  10 0
BBX  9 9 0 -2
BITMAP
000000000000000000
00000020A000000000
000000008020000000
A0E0E0E0E0E0E0E0E0
000020200000400000
0000C0300000C03000
0060A000000030C000
30E010000000008060
602000000000001080
ENDCHAR
STARTCHAR  516E
ENCODING  20846
SWIDTH  1000 0
DWIDTH  10 0
BBX  10 9 0 -2
BITMAP
00000000000000000000
0010C060E0E0E0E06000
00C0600000000010E030
206060F0E0E0E0E02020
000040A0000000000000
0000E0E0E0E0E0A00000
00000000000000E00000
00000000000000E00000
00000000C0E0E0A00000
ENDCHAR
STARTCHAR  5170
ENCODING  20848
SWIDTH  1000 0
DWIDTH  10 0
BBX  9 9 0 -2
BITMAP
000040000000301000
000080800020E01000
00E0E0FFE0E0F0E0C0
000000000000000000
000000000000000000
0020E0E0E0E0E0E000
000000000000000000
000000000000000000
80E0E0E0E0E0E0E0E0
ENDCHAR
STARTCHAR  5171
ENCODING  20849
SWIDTH  1000 0
DWIDTH  10 0
BBX  9 9 0 -2
BITMAP
000020000000200000
0000E0000000E00000
00E0F0E0E0E0F0E080
0000E0000000E00000
0000E0000000E00000
80E0E0E0E0E0E0E0E0
0010A0300000A06000
30C06000000010C060
103000000000000030
ENDCHAR
STARTCHAR  5173
ENCODING  20851
SWIDTH  1000 0
DWIDTH  10 0
BBX  9 9 1 -2
BITMAP
002000000000200000
0080A0000000C02000
A0E0E0E0E0E0E0E000
00000000E000000000
E0E0E0E0F0E0E0E0A0
000020E02080100000
0060C0300060E04000
C0800000000020C040
000000000000000000
ENDCHAR
STARTCHAR  5174
ENCODING  20852
SWIDTH  1000 0
DWIDTH  10 0
BBX  9 9 1 -2
BITMAP
000000200000000000
206020E0000020A000
00E020806000C04000
004060102020800000
E0E0E0E0E0E0E0E080
000080000010600000
00A060000000A06000
A0800000000010C020
100000000000001000
ENDCHAR
STARTCHAR  5175
ENCODING  20853
SWIDTH  1000 0
DWIDTH  10 0
BBX  9 9 0 -2
BITMAP
000000000000002000
00C0E0E0E0E0E0A000
00E000000000000000
00E0E0E0E0E0F0E040
00E000000000E00000
A0F0E0E0E0E0F0E0E0
003080000000804000
60C02000000020E060
200000000000001020
ENDCHAR
STARTCHAR  5176
ENCODING  20854
SWIDTH  1000 0
DWIDTH  10 0
BBX  9 8 1 -2
BITMAP
E0F0E0E0E0E0E0F020
00E00000000000E000
00E0E0E0E0E0E0E000
00E0E0E0E0E0E0E000
00E00000000000E000
E0E0E0E0E0E0E0E0A0
30C04000000060A010
A03000000000008060
ENDCHAR
STARTCHAR  5177
ENCODING  20855
SWIDTH  1000 0
DWIDTH  10 0
BBX  9 10 1 -3
BITMAP
000000000000004000
00E0E0E0E0E0E0E000
00E0E0E0E0E0E0E000
00E0E0E0E0E0E0E000
00E00000000000E000
00E0E0E0E0E0E0E000
FFFFFFFFFFFFFFFFC0
80C0E0808080E0C060
60A02000000010C020
000000000000000000
ENDCHAR
STARTCHAR  5178
ENCODING  20856
SWIDTH  1000 0
DWIDTH  10 0
BBX  9 8 1 -2
BITMAP
00E0E0F0E0F0E06000
00E000E000E000E000
00F0E0F0E0F0E0F000
00E000E000E000E000
00E000E000E000E000
E0E0E0E0E0E0E0E080
1080C0000010C06000
606000000000008010
ENDCHAR
STARTCHAR  5179
ENCODING  20857
SWIDTH  1000 0
DWIDTH  10 0
BBX  9 9 1 -2
BITMAP
000010000000100000
0020C0000010E00000
E0E0F0E0E0E0F0E0A0
00A040000080600000
30C0308020E0208000
80E0FF3060E0FF4000
00A060400080804000
60E080F060F080E040
406040406060404030
ENDCHAR
STARTCHAR  517B
ENCODING  20859
SWIDTH  1000 0
DWIDTH  10 0
BBX  10 9 0 -2
BITMAP
00003030000000601000
00E0E0F0E0E0E0FFE010
0000000000E000000000
0010E0E0F0F0E0E0E000
00E0E0F0F0E0E0F0E080
0030A0C010000080E030
00A040E0000000E06060
001080A0000000E00000
00106000000000800000
ENDCHAR
STARTCHAR  517C
ENCODING  20860
SWIDTH  1000 0
DWIDTH  10 0
BBX  10 9 0 -2
BITMAP
00001060000000600000
00E0E0FFE0E0E0F0E0A0
00000000E000E0002000
0040E0E0F0E0F0E0F000
0060E0E0F0E0F0E0F0E0
0040E0E0F0E0F0E0E000
0010E040E000E0608000
00C06000E000E000C060
00000000200020000000
ENDCHAR
STARTCHAR  517D
ENCODING  20861
SWIDTH  1000 0
DWIDTH  10 0
BBX  9 9 1 -2
BITMAP
001060000000600000
00E0FFE0E0E0FFF000
00E00000E00000E000
00F0E0E0F0E0E0F000
00F0E0E0F0E0E0C000
E0E0E0E0E0E0E0E0C0
00E0E0E0E0E0E0E000
00E00000000000E000
00E0E0E0E0E0E0A000
ENDCHAR
STARTCHAR  5180
ENCODING  20864
SWIDTH  1000 0
DWIDTH  10 0
BBX  9 9 1 -2
BITMAP
000000200010000000
60E0E0E000E0E0E060
60A0A0A000C0E0E060
00F0E0E0F0E0E0E000
00F0E0E0F0E0E0E000
00E0F0E0E0E0F08000
80E0F0E0E0E0F0E000
E0FFFFE0E0E0F0FF80
608020000000108000
ENDCHAR
STARTCHAR  5181
ENCODING  20865
SWIDTH  1000 0
DWIDTH  10 0
BBX  10 9 0 -2
BITMAP
20301030000000006000
40E080A0C0E0E0E0F000
E0E0F0F0E0E0E0E0E000
E0E0F0F0E000A000A000
E000E0E0E0A0F0E0F000
E0C0F0E0E0E0F0E0F000
1010E000E0E000A08000
A0E0F0FFA0E06060C000
00008010208060104000
ENDCHAR
STARTCHAR  5182
ENCODING  20866
SWIDTH  1000 0
DWIDTH  10 0
BBX  7 8 1 -1
BITMAP
00000000000040
A0E0E0E0E0E0F0
E00000000000E0
E00000000000E0
E00000000000E0
E00000000000E0
E00000000000E0
C000000060E0C0
ENDCHAR
STARTCHAR  5185
ENCODING  20869
SWIDTH  1000 0
DWIDTH  10 0
BBX  8 8 1 -2
BITMAP
00000000C0000010
F0E0E0E0F0E0E0F0
E0000020A00000E0
E00000C0604000E0
E000808010C010E0
E0608000004080E0
E0000000000000E0
A00000000060E0A0
ENDCHAR
STARTCHAR  5188
ENCODING  20872
SWIDTH  1000 0
DWIDTH  10 0
BBX  8 8 1 -2
BITMAP
E0E0E0E0E0E0E0E0
E0002000002000E0
E020E02020E010E0
E00030E0E03000E0
E00020E0E01000E0
E030E04040E010E0
E0202000004010E0
A000000000A0E0A0
ENDCHAR
STARTCHAR  5189
ENCODING  20873
SWIDTH  1000 0
DWIDTH  10 0
BBX  9 9 0 -2
BITMAP
000000002000000000
00E0E0E0F0E0E08000
00E00000E00000E000
00F0E0E0F0E0E0F000
00E00000E00000E000
00E00000E00000E000
C0F0E0E0E0E0E0F0E0
00E00000000000E000
00A000000080E0A000
ENDCHAR
STARTCHAR  518C
ENCODING  20876
SWIDTH  1000 0
DWIDTH  10 0
BBX  9 8 1 -2
BITMAP
00F0E0E000F0E0E000
00E000E000E000E000
00E000E000E000E000
E0F0E0F0E0F0E0F0C0
00E000E000E000E000
30A000E030A000E000
806000E0806000E000
601080A0801080A000
ENDCHAR
STARTCHAR  518D
ENCODING  20877
SWIDTH  1000 0
DWIDTH  10 0
BBX  9 8 1 -2
BITMAP
E0E0E0E0F0E0E0E030
00E0E0E0F0E0E0A000
00E00000E00000E000
00F0E0E0F0E0E0F000
00E00000E00000E000
E0F0E0E0E0E0E0F0E0
00E00000000000E000
00A000000060E0A000
ENDCHAR
STARTCHAR  5192
ENCODING  20882
SWIDTH  1000 0
DWIDTH  10 0
BBX  9 9 1 -2
BITMAP
000000000000000030
F0E0E0E0E0E0E0E0E0
E060E0E0E0E0E000E0
A060E0E0E0E0E000A0
A0E0E0E0E0E0E06000
E0E0E0E0E0E0E0E000
E0E0E0E0E0E0E0E000
E0000000000000E000
A0E0E0E0E0E0E08000
ENDCHAR
STARTCHAR  5195
ENCODING  20885
SWIDTH  1000 0
DWIDTH  10 0
BBX  10 9 0 -2
BITMAP
00000000000000002000
00E0E0E0E0E0E0E0E000
00E040E0E0E0E0E0E000
00A040FFE0E0E0E0A000
0020A0E0E0E0F0A04000
10F0E0E0E0FFE0E0C000
00E0E0E0E0F0E0E08000
0030A0E04000E0000060
10A060000000E0E0E080
ENDCHAR
STARTCHAR  5196
ENCODING  20886
SWIDTH  1000 0
DWIDTH  10 0
BBX  8 3 1 1
BITMAP
0000000000000030
E0E0E0E0E0E0E0E0
6000000000000060
ENDCHAR
STARTCHAR  5197
ENCODING  20887
SWIDTH  1000 0
DWIDTH  10 0
BBX  9 9 0 -2
BITMAP
000000000000000010
00E0E0E0E0E0E0E0F0
00E0000000001000E0
003000F0E0E0F00030
000000E00000E00000
000000E00000E00000
000040A00000E00000
0040E0100000E000A0
008010000000A0E0A0
ENDCHAR
STARTCHAR  5199
ENCODING  20889
SWIDTH  1000 0
DWIDTH  10 0
BBX  9 9 0 -2
BITMAP
000000000000000020
00F0E0E0E0E0E0E0F0
00E010A000000000E0
000080E0E0E0E0E020
0000E0E0E0E0E0E040
0000000000000000E0
20E0E0E0E0E0E020E0
0000000000000000E0
000000000040E0E080
ENDCHAR
STARTCHAR  519B
ENCODING  20891
SWIDTH  1000 0
DWIDTH  10 0
BBX  9 9 1 -2
BITMAP
000000000000000020
E0E0E0E0E0E0E0E0E0
800060600000000080
60E0F0E0E0E0E0E0E0
00C04000E000000000
10F0E0E0F0E0E0E020
00000000E000000000
E0E0E0E0F0E0E0E0C0
000000001000000000
ENDCHAR
STARTCHAR  519C
ENCODING  20892
SWIDTH  1000 0
DWIDTH  10 0
BBX  10 8 0 -2
BITMAP
0000000000E000002000
00F0E0E0E0F0E0E0F000
00A00000C0400000A000
000010C0608020404000
0060E0400030E0C01000
80A0E000000080800000
0000E0A0E02000A06000
0000A040000000006000
ENDCHAR
STARTCHAR  51A0
ENCODING  20896
SWIDTH  1000 0
DWIDTH  10 0
BBX  9 9 0 -2
BITMAP
000000000000000030
E0E0E0E0E0E0E0E0F0
600000000000002060
00E0E0E0A0E0E0F0E0
30E0E0E0E06010E000
00E000E0003060E000
00E000E00000C0E000
60A000E00000000080
801000E0E0E0E0E0A0
ENDCHAR
STARTCHAR  51A2
ENCODING  20898
SWIDTH  1000 0
DWIDTH  10 0
BBX  10 9 0 -2
BITMAP
00000000000000003000
00F0E0E0E0E0E0E0F000
00A0E0E0E0E0E0E0C000
000030C0F02000000000
00C0C04080E020A04000
002060F0C0E0F0800000
00A0A080A0FF30C00000
003080E060E00060A000
00A06000C0A000006010
ENDCHAR
STARTCHAR  51A4
ENCODING  20900
SWIDTH  1000 0
DWIDTH  10 0
BBX  9 9 1 -2
BITMAP
000000000000000020
F0E0FFE0E0E0E0E0E0
A060FFE0E0E0E020A0
40E000000010E0A000
A0F0E0E0F0E0E0F000
00E0E0E0FFE0E0E000
000020E030E0801000
1080E04000E06060A0
A060100000E0E0E080
ENDCHAR
STARTCHAR  51A5
ENCODING  20901
SWIDTH  1000 0
DWIDTH  10 0
BBX  9 9 1 -2
BITMAP
000000000000000020
F0E0E0E0E0E0E0FFE0
C0E0E0E0E0E0E0E0C0
00E0E0E0E0E0E0E000
00E0E0E0E0E0E0A000
00000020C000000000
E0E0FFE0E0E0FFE080
60E08000000080E030
401000000000003020
ENDCHAR
STARTCHAR  51AB
ENCODING  20907
SWIDTH  1000 0
DWIDTH  10 0
BBX  3 8 3 -2
BITMAP
003000
10E020
003080
000000
0020A0
00A040
30A000
000000
ENDCHAR
STARTCHAR  51AC
ENCODING  20908
SWIDTH  1000 0
DWIDTH  10 0
BBX  10 9 0 -2
BITMAP
00004010000000000000
0020F0E0E0E0E0E0E000
00C06010000020A0A000
003060C0C0A0E0400000
1060A0E0A060A0E08030
20804080C0A060204040
00008060404060300000
00003060A0C0E0A02000
00000000000000200000
ENDCHAR
STARTCHAR  51AF
ENCODING  20911
SWIDTH  1000 0
DWIDTH  10 0
BBX  9 8 0 -2
BITMAP
00400040E0E0E0E060
00A060006000003040
0010A000A000006030
00001020E0E0E0E0E0
0000A03000000000E0
0030C060E0E0E0E0E0
00A0300000000000E0
006000000000C0E0A0
ENDCHAR
STARTCHAR  51B0
ENCODING  20912
SWIDTH  1000 0
DWIDTH  10 0
BBX  10 8 0 -2
BITMAP
103000000000C0000000
10C030C0F000E0C0A020
00204000E000E0F0A000
00001000E000E0E00000
0010E030C000E0E01000
008060A04000E0806000
20C060800000E010E010
4040100000C080003000
ENDCHAR
STARTCHAR  51B1
ENCODING  20913
SWIDTH  1000 0
DWIDTH  10 0
BBX  9 7 0 -1
BITMAP
602000E0F0E0E0E0E0
40E02030A000000000
00402080E0E0E0E000
001020C0100000E000
00A0A0F0E0E0E08000
40E010000000804000
8030C0E0E0E0F0E0E0
ENDCHAR
STARTCHAR  51B2
ENCODING  20914
SWIDTH  1000 0
DWIDTH  10 0
BBX  10 8 0 -2
BITMAP
204000000000E0000010
10E020E0E0E0F0E0E0A0
004080E00000E00030A0
000000E00000E00030A0
0020A0E00000E00030A0
00A040A0E0E0F0E0E060
40C000000000E0000000
202000000000A0000000
ENDCHAR
STARTCHAR  51B3
ENCODING  20915
SWIDTH  1000 0
DWIDTH  10 0
BBX  10 9 0 -2
BITMAP
00000000006000000000
10C0000000E000008000
00608080E0F0E0E0F000
0000300000E00000E000
000010E0E0F0E0E0F060
0030C000806080200000
00A04080A00030E03000
20C060A000000020E010
00101000000000000000
ENDCHAR
STARTCHAR  51B5
ENCODING  20917
SWIDTH  1000 0
DWIDTH  10 0
BBX  9 8 0 -2
BITMAP
208000A0E0E0E0E0F0
00A060E000000000E0
001030E000000000E0
000000A0F0E0E0F0A0
00108000E00000E000
00806030C00000E000
30C040E0200000E0A0
60304010000000E0A0
ENDCHAR
STARTCHAR  51B6
ENCODING  20918
SWIDTH  1000 0
DWIDTH  10 0
BBX  10 8 0 -2
BITMAP
20300000406000000000
20E01020E02000208000
004040E0806080A0F020
00001080606040306030
001040E0E0E0E0E0C000
00A060E000000000E000
30C000E000000000E000
603000A0E0E0E0E08000
ENDCHAR
STARTCHAR  51B7
ENCODING  20919
SWIDTH  1000 0
DWIDTH  10 0
BBX  10 9 0 -2
BITMAP
00000000000000000000
802000A080E0E0E01000
30C020C0208000608000
0020A04000803000C000
000010E0E0E0E0E01000
00A02000000060A00000
30A000606060C0000000
A030002060C0E0400000
10000000000010100000
ENDCHAR
STARTCHAR  51BB
ENCODING  20923
SWIDTH  1000 0
DWIDTH  10 0
BBX  10 8 0 -2
BITMAP
0020000010A000000000
10E020E0FFE0E0E0E060
00306040C00060000000
000000C0E0E0F0E0E000
000080004000E0202000
00608020C000E040A000
10E010C03000E000E010
2040106000E080004020
ENDCHAR
STARTCHAR  51BC
ENCODING  20924
SWIDTH  1000 0
DWIDTH  10 0
BBX  10 9 0 -2
BITMAP
00000000000020000000
20A000606000E0000000
008060E0E0E0F0E0E030
000030600000E0000000
000020E0E0E0E0E0E040
00206000E00000E00000
00A06040A00000E00000
20E030E0200000E000A0
30402020000000E0E080
ENDCHAR
STARTCHAR  51BD
ENCODING  20925
SWIDTH  1000 0
DWIDTH  10 0
BBX  9 9 0 -2
BITMAP
000000000000000000
10A000E0F0E08000E0
00A04000E00020E0E0
00204020F0E0E0E0E0
000000A06000E0E0E0
0020308080C0A0E0E0
00A0400020E020E0E0
30C00060E0300000E0
40302080100000C0A0
ENDCHAR
STARTCHAR  51C0
ENCODING  20928
SWIDTH  1000 0
DWIDTH  10 0
BBX  10 9 0 -2
BITMAP
00000000402000000000
20800010F0E0E0E06000
00A040C0600020E06000
001040A0E0E0F0E0F000
000000E0E0E0F0E0F060
0010C0000000E000E000
00808060E0E0F0E0C000
10E010000000E0000000
2060000040E060000000
ENDCHAR
STARTCHAR  51C4
ENCODING  20932
SWIDTH  1000 0
DWIDTH  10 0
BBX  10 9 0 -2
BITMAP
00000000000060000000
208000E0E0E0F0E0E040
00A060A0E0E0F0E0F000
001020E0E0E0F0E0F060
000000A0E0E0F0E0E000
00204000A02000000000
00C080E0FFF0E0FFE040
30A010E0E0A060A0C030
00000000000000000000
ENDCHAR
STARTCHAR  51C6
ENCODING  20934
SWIDTH  1000 0
DWIDTH  10 0
BBX  9 9 0 -2
BITMAP
000000000000000000
402000A04060800000
20C040FFE0E0F0E0C0
001080E0E0E0F0E0A0
000000E00000E00000
008060E0E0E0F0E0A0
20E000E00000E00000
804000E0E0E0F0E0C0
000000200000000000
ENDCHAR
STARTCHAR  51C7
ENCODING  20935
SWIDTH  1000 0
DWIDTH  10 0
BBX  10 8 0 -2
BITMAP
603000E00060A0E06000
40A0C0FFE0A04040A000
004080FFA0E01000C000
0000A0FFE060C0208000
0080C0E0E020C0000000
40A0E0E0C0A060404000
A060A0E020E080A0A000
60204080008060306000
ENDCHAR
STARTCHAR  51C9
ENCODING  20937
SWIDTH  1000 0
DWIDTH  10 0
BBX  10 9 0 -2
BITMAP
00000000002040000000
10E010E0E0E0F0E0E040
00A06000000000001000
001060E0E0E0E0E0E000
000000E000000000E000
000030A0E0E0F0E08000
0040A0604000E0603000
10E020C00000E020A000
2040204000C080006000
ENDCHAR
STARTCHAR  51CB
ENCODING  20939
SWIDTH  1000 0
DWIDTH  10 0
BBX  9 8 0 -2
BITMAP
106000E0E0E0E0E0E0
00E020E080E0C0E0E0
006060E00000E000E0
000010E0E0E0E0E0E0
0040A0E0C0E0E0F0E0
00A030E0E00000E0E0
20C040A0A0E0E0A0E0
30406020000060E0A0
ENDCHAR
STARTCHAR  51CC
ENCODING  20940
SWIDTH  1000 0
DWIDTH  10 0
BBX  10 9 0 -2
BITMAP
00000000000040000000
10C00080E0E0F0E0E000
00A040000000E0000000
003060E0F0E0E0F0E060
000010A0A0800080C030
0030A060C0E0E0FF1010
00A0406040A080A00000
10E0004080E0A0C08010
10300080401000006020
ENDCHAR
STARTCHAR  51CF
ENCODING  20943
SWIDTH  1000 0
DWIDTH  10 0
BBX  10 9 0 -2
BITMAP
00000000000000000000
10800000000000E0C000
00A040F0E0E0E0F0E060
001030E0E0E080E01010
002040E0E0E060E0C040
008060E0E04080A0C000
00C020C0E04080C0A000
20C06080E0E0C0A0E080
10306030000040103010
ENDCHAR
STARTCHAR  51D1
ENCODING  20945
SWIDTH  1000 0
DWIDTH  10 0
BBX  10 9 0 -2
BITMAP
00000000000040000000
20C000E0E0E0F0E0E010
00C04030E0E0F0E0E010
003020000080A0000000
000010E0FFE0E0F0E010
0060C0A0E0E0F0A0A030
00C02030E0E0F0E0E000
30A01080E0A010A08000
20201060100000003000
ENDCHAR
STARTCHAR  51DB
ENCODING  20955
SWIDTH  1000 0
DWIDTH  10 0
BBX  10 9 0 -2
BITMAP
00000000000030000000
008010E0C0E0F0C0C0A0
006080A0E0E0E0E0E0C0
0000A0C0A0C0C0F000E0
000010C080C0C0A000C0
0010E0FFFFFFFFFFFF60
006080C0C0C0C0C0C080
00C020A0A000C0A0E020
0060208000A060004080
ENDCHAR
STARTCHAR  51DD
ENCODING  20957
SWIDTH  1000 0
DWIDTH  10 0
BBX  10 9 0 -2
BITMAP
00000000000000000000
00C000E0A0A0C0E0E080
00A040F060802060C020
004040FFE0A0E0FFE080
001040F0E0A030E08080
00808040E000E0E0E060
00C040E0FFE0E0E00000
00E000A080C0FFC00000
20806060008060C0E0A0
ENDCHAR
STARTCHAR  51E0
ENCODING  20960
SWIDTH  1000 0
DWIDTH  10 0
BBX  9 9 0 -2
BITMAP
000000000000008000
0000E0E0E0E0E0E000
0000E000000000E000
0000E000000000E000
0010E000000000E000
00608000000000E000
00C02000000000E080
30800000000000F0E0
000000000000000000
ENDCHAR
STARTCHAR  51E1
ENCODING  20961
SWIDTH  1000 0
DWIDTH  10 0
BBX  10 9 0 -2
BITMAP
00000000000000800000
0000F0E0E0E0E0F00000
0000E000000000E00000
0000E010C00000E00000
0020C000808000E00000
00608000008000E00000
00C02000000000E00080
30A00000000000E0E0A0
00100000000000000000
ENDCHAR
STARTCHAR  51E4
ENCODING  20964
SWIDTH  1000 0
DWIDTH  10 0
BBX  11 9 0 -2
BITMAP
0000000000000000200000
00E0E0E0E0E0E0E0E00000
00E040E0E0E0E000E00000
00E000300020E000E00000
00E000C080C04000E00000
00E00020F0C00000E00000
30A040E04080C010E0A010
606030100000400060A000
0000000000000000000000
ENDCHAR
STARTCHAR  51EB
ENCODING  20971
SWIDTH  1000 0
DWIDTH  10 0
BBX  9 9 0 -2
BITMAP
000000100000000000
00A0E0F0E0E0E08000
00E00060600000E000
00E00040A040A08010
00A0E0E0E0E0E0E0E0
0000E0E0E0E0C000E0
0010C0000000E0E080
10C060000000E000A0
606000000000E0E0A0
ENDCHAR
STARTCHAR  51ED
ENCODING  20973
SWIDTH  1000 0
DWIDTH  10 0
BBX  10 9 0 -2
BITMAP
00001010000000001000
0010C040A0E0E0E0E020
00E0E0000000E0000000
0020E0E0E0E0F0E0E080
0000E000E0E0F0E0E0A0
00000000000000100000
000060F0E0E0E0F00000
0030E080000000E000A0
00806000000000A0E080
ENDCHAR
STARTCHAR  51EF
ENCODING  20975
SWIDTH  1000 0
DWIDTH  10 0
BBX  10 9 0 -2
BITMAP
00100080100000000000
00E000E0E000E0E0A000
00F0E0F0E000E000E000
000000008000E000E000
00C0E0E0F000E000E000
00C0E0E0C010C000E000
00E0000010608000E000
00E080E080C02000E060
30A0602000300000E0A0
ENDCHAR
STARTCHAR  51F0
ENCODING  20976
SWIDTH  1000 0
DWIDTH  10 0
BBX  11 9 0 -2
BITMAP
0000000000000000200000
00E0E0E0E0E0E0E0E00000
00E0A0FFE0E0F000E00000
00E0E0E0E0E0F000E00000
00E0E0E0E0E0C000E00000
00E0C0E0E0E0E000E00000
30A060E0F0E0E000E08010
6060E0E0F0E0E04060A000
0000000000000000000000
ENDCHAR
STARTCHAR  51F3
ENCODING  20979
SWIDTH  1000 0
DWIDTH  10 0
BBX  9 9 1 -2
BITMAP
000000000000000000
80E0E0F000C060C010
40F0F0E0E0E0F0C080
A0F0E0E0E0E0E0F0A0
00E0E0E0E0E0E0A000
E0E0FFE0E0E0E0E0C0
0000E0E0E0E0E00000
106030000000E00080
A06000000000A0E080
ENDCHAR
STARTCHAR  51F5
ENCODING  20981
SWIDTH  1000 0
DWIDTH  10 0
BBX  8 7 1 -1
BITMAP
A0000000000000A0
E0000000000000E0
E0000000000000E0
E0000000000000E0
E0000000000000E0
E0000000000000E0
E0E0E0E0E0E0E0A0
ENDCHAR
STARTCHAR  51F6
ENCODING  20982
SWIDTH  1000 0
DWIDTH  10 0
BBX  8 8 1 -2
BITMAP
0040200000206000
A020E01000C040A0
E00040C0A08000E0
E00000A0E00000E0
E00060C0808000E0
E080A00000A060E0
E0100000000010E0
E0E0E0E0E0E0E0A0
ENDCHAR
STARTCHAR  51F8
ENCODING  20984
SWIDTH  1000 0
DWIDTH  10 0
BBX  9 8 1 -2
BITMAP
0000F0E0E0E0C00000
0000E0000000E00000
0000E0000000E00010
F0E0A0000000E0E0E0
E000000000000000E0
E000000000000000E0
E000000000000000E0
E0E0E0E0E0E0E0E080
ENDCHAR
STARTCHAR  51F9
ENCODING  20985
SWIDTH  1000 0
DWIDTH  10 0
BBX  9 8 1 -2
BITMAP
E0E0E0A000C0E0E080
E00000E000E00000E0
E00000E000E00000E0
E00000F0E0C00000E0
E000000000000000E0
E000000000000000E0
E000000000000000E0
E0E0E0E0E0E0E0E080
ENDCHAR
STARTCHAR  51FA
ENCODING  20986
SWIDTH  1000 0
DWIDTH  10 0
BBX  9 8 1 -2
BITMAP
60000000C000006000
E0000000E00000E000
E0000000E00000E000
A0E0E0E0F0E0E0A000
20000000E000000020
E0000000E0000000E0
E0000000E0000000E0
E0E0E0E0E0E0E0E080
ENDCHAR
STARTCHAR  51FB
ENCODING  20987
SWIDTH  1000 0
DWIDTH  10 0
BBX  9 8 1 -2
BITMAP
A0E0E0E0F0E0E0E000
00000000E000000000
00000000E000000000
E0E0E0E0F0E0E0E0C0
00600000E000006000
00E00000E00000E000
00E00000E00000E000
00E0E0E0E0E0E0A000
ENDCHAR
STARTCHAR  51FC
ENCODING  20988
SWIDTH  1000 0
DWIDTH  10 0
BBX  8 9 1 -2
BITMAP
0000000060000000
00000000E0000000
C030E0C0E0C080C0
E00000E0E0E040E0
E00040A0E0C010E0
E020E030E060A0E0
E06040A0A00080FF
E0000000000000E0
E0E0E0E0E0E0E0A0
ENDCHAR
STARTCHAR  51FD
ENCODING  20989
SWIDTH  1000 0
DWIDTH  10 0
BBX  8 8 1 -2
BITMAP
00E0E0E0E0E0FFF0
0000000030E0A030
E0808020E080A0E0
E0004040E06000E0
E040C040E08080E0
E04010C0A00040E0
E0000000000000E0
E0E0E0E0E0E0E0A0
ENDCHAR
STARTCHAR  51FF
ENCODING  20991
SWIDTH  1000 0
DWIDTH  10 0
BBX  9 9 1 -2
BITMAP
000000300030000000
806000E000E000A000
108000E000E0204000
E0E0E0E0E0E0E0E080
8000808000C0308000
E040E0E0F0E0E0E000
E000E0E0F0E0C0E000
E0000000E00000E000
A0E0E0E0E0E0E0A000
ENDCHAR
STARTCHAR  5200
ENCODING  20992
SWIDTH  1000 0
DWIDTH  10 0
BBX  9 8 0 -2
BITMAP
00C0E0E0E0E0E0E0A0
000000E000000000E0
000000E000000000E0
000000E000000000E0
0000408000000000E0
0010E02000000000E0
20E0400000000000E0
103000000000A0E0A0
ENDCHAR
STARTCHAR  5201
ENCODING  20993
SWIDTH  1000 0
DWIDTH  10 0
BBX  8 8 1 -2
BITMAP
A0E0E0E0E0E0E0C0
00000000000000E0
00000000208000E0
00000020E03000E0
000040E0300000E0
0080C020000000E0
A0800000000000E0
0000000020E0E0A0
ENDCHAR
STARTCHAR  5202
ENCODING  20994
SWIDTH  1000 0
DWIDTH  10 0
BBX  3 8 4 -1
BITMAP
0000A0
2000E0
E000E0
E000E0
E000E0
E000E0
E000E0
40E0A0
ENDCHAR
STARTCHAR  5203
ENCODING  20995
SWIDTH  1000 0
DWIDTH  10 0
BBX  9 9 0 -2
BITMAP
000000000000000060
0080E0E0E0E0E0E0F0
00001000E0000000E0
0000C010E0000000E0
00606030C0000000E0
000000C040000000E0
0010A08000000000E0
00C04000000060E0C0
000000000000000000
ENDCHAR
STARTCHAR  5206
ENCODING  20998
SWIDTH  1000 0
DWIDTH  10 0
BBX  10 9 0 -2
BITMAP
00000000000000000000
0010C080E0E0E0E02000
0080200000000020A000
2040E0E0E0E0E0603010
000000E0000000E00000
000010E0000000E00000
0000A060000000E00000
0080C000000000E00000
10A010000060E0A00000
ENDCHAR
STARTCHAR  5207
ENCODING  20999
SWIDTH  1000 0
DWIDTH  10 0
BBX  9 8 0 -2
BITMAP
0000E040E0F0E0E0E0
60E0F0E000E00000E0
0000E00000E00000E0
0000E00000E00000E0
0000E00020C00000E0
0000E03080600000E0
0030F060E0100000E0
00101030400040E0A0
ENDCHAR
STARTCHAR  5208
ENCODING  21000
SWIDTH  1000 0
DWIDTH  10 0
BBX  9 8 0 -2
BITMAP
4060000080208000E0
00C01010E000E000E0
0040C0806000E000E0
0000A0E00000E000E0
0000C0E01000E000E0
006080608000E000E0
40C00000C0200000E0
602000004040C0E0A0
ENDCHAR
STARTCHAR  520A
ENCODING  21002
SWIDTH  1000 0
DWIDTH  10 0
BBX  9 8 1 -2
BITMAP
A0E0E0E0E0002000E0
0000E0000000E000E0
0000E0000000E000E0
E0E0F0E0E0A0E000E0
0000E0000000E000E0
0000E0000000E000E0
0000E00000000000E0
0000A0000000A0E080
ENDCHAR
STARTCHAR  520D
ENCODING  21005
SWIDTH  1000 0
DWIDTH  10 0
BBX  9 8 1 -1
BITMAP
001080000000000000
00C0F0E0E0E0E0E000
40600000000020C030
40E0E0E0E0E0E0E0E0
0000000000000000E0
00C0E0E0E0E0E0E0E0
0000000000000000E0
40E0E0E0E0E0E0E0A0
ENDCHAR
STARTCHAR  520E
ENCODING  21006
SWIDTH  1000 0
DWIDTH  10 0
BBX  9 9 0 -2
BITMAP
006010000000000000
10F0E0E0E0403000C0
8060E000E0E0E000E0
4000E000E0E0E000E0
0040A040A0E0E000E0
20E020C030E0E000E0
6030A08000E0E000E0
0080800000E00000E0
00100080E080C0E080
ENDCHAR
STARTCHAR  5211
ENCODING  21009
SWIDTH  1000 0
DWIDTH  10 0
BBX  9 8 0 -2
BITMAP
40F0E0E0F0E06000E0
00E00000E000E000E0
00E00000E000E000E0
C0F0E0E0F0E0E000E0
00E00000E000E000E0
20C00000E000E000E0
80600000E0000000E0
80000000A000A0E080
ENDCHAR
STARTCHAR  5212
ENCODING  21010
SWIDTH  1000 0
DWIDTH  10 0
BBX  9 8 0 -2
BITMAP
0000E030A0200020E0
0000E020808020E0E0
40E0F0A0A08020E0E0
0000E00010A000E0E0
0000C040E04000E0E0
000080FF400000E0E0
10A0C060E0806000E0
2060000030A020E0A0
ENDCHAR
STARTCHAR  5216
ENCODING  21014
SWIDTH  1000 0
DWIDTH  10 0
BBX  9 8 0 -2
BITMAP
00E0E0E0E0E00060C0
00E0000000E000E0E0
00E0E0E0E0E000E0E0
00E0000000E000E0E0
00E0E0E0E0E000E0E0
00C0000000E000E0E0
30A0000000E00000E0
60300060E08080E0A0
ENDCHAR
STARTCHAR  5217
ENCODING  21015
SWIDTH  1000 0
DWIDTH  10 0
BBX  10 9 0 -2
BITMAP
00000000000000000010
00E0F0E0E0E0804000E0
0010F0E0E0E000E000E0
0080300000E000E000E0
1080602030C000E000E0
000030E0E04000E000E0
000010E0800000E000E0
0040E0600000000000E0
00A02000000000A0E080
ENDCHAR
STARTCHAR  5218
ENCODING  21016
SWIDTH  1000 0
DWIDTH  10 0
BBX  10 9 0 -2
BITMAP
00000000000000000000
000000A02000006000A0
00E0E0E0E0F0E0E000E0
0020200000E000E000E0
0020E030608000E000E0
000020E0C00000E000E0
000040C0E03000E000E0
0060C01030E0200000E0
00801000004060A0E080
ENDCHAR
STARTCHAR  5219
ENCODING  21017
SWIDTH  1000 0
DWIDTH  10 0
BBX  9 9 0 -2
BITMAP
000000000000000010
00F0E0E0E0F00080E0
00E0008000E000E0E0
00E000E000E000E0E0
00E000E000E000E0E0
00A020C000A000E0E0
0000C060A00000E0E0
10C0800060A00000E0
30600000006010E0A0
ENDCHAR
STARTCHAR  521A
ENCODING  21018
SWIDTH  1000 0
DWIDTH  10 0
BBX  9 8 1 -2
BITMAP
F0E0E0E0E0A06000C0
E020000030E0E000E0
E0A0606080E0E000E0
E010E0E010E0E000E0
E010E0E010E0E000E0
E0C06060A0E0E000E0
E020000010E00000E0
A0000020E080A0E080
ENDCHAR
STARTCHAR  521B
ENCODING  21019
SWIDTH  1000 0
DWIDTH  10 0
BBX  9 9 0 -2
BITMAP
000000000000000000
00C0A0E0E0A00040E0
8060000000A040E0E0
20A0E0E0E08030E0E0
00E0000000E000E0E0
00E0000000E000E0E0
00E000A0E08000E0E0
00E0000000C00000E0
00A0E0E0E0A010E0A0
ENDCHAR
STARTCHAR  521D
ENCODING  21021
SWIDTH  1000 0
DWIDTH  10 0
BBX  9 8 0 -2
BITMAP
00A0E080E0F0E0E0F0
60E0E0F000E00000E0
000020E000E00000E0
0000C06000E00000E0
00A0FFC000E00000E0
80A0E0C060800000E0
2000E030E0100000E0
0000A060300040E0A0
ENDCHAR
STARTCHAR  5220
ENCODING  21024
SWIDTH  1000 0
DWIDTH  10 0
BBX  9 9 0 -2
BITMAP
0000008000008000A0
00F0E0E0F0E0E080E0
00E000E0E000E0E0E0
00E000E0E000E0E0E0
80F0E0F0F0E0F0E0E0
00E000E0E000E0E0E0
10C000F0C000E0E0E0
408080FF6080C0A0E0
302000000000000000
ENDCHAR
STARTCHAR  5224
ENCODING  21028
SWIDTH  1000 0
DWIDTH  10 0
BBX  10 9 0 -2
BITMAP
00000040000000000040
00A010E000A0106000E0
004060E0606000E000E0
20E0E0F0E0E010E000E0
000000E0000000E000E0
40E0E0FFE0E020E000E0
0000A040000000E000E0
0080A0000000000000E0
00800000000000E0E080
ENDCHAR
STARTCHAR  5228
ENCODING  21032
SWIDTH  1000 0
DWIDTH  10 0
BBX  9 9 0 -2
BITMAP
006000000000000000
20F0E0E0E0C00060C0
A040000040E000E0E0
40E0E0E0E0E000E0E0
00E00000E0E000E0E0
00E0E0E080E000E0E0
00E000A0E0C000E0E0
00E0000000600000E0
00A0E0E0E0A080E0A0
ENDCHAR
STARTCHAR  5229
ENCODING  21033
SWIDTH  1000 0
DWIDTH  10 0
BBX  9 9 0 -2
BITMAP
000000000020000000
10E0E0F0E0800060E0
000000E0000000E0E0
20E0E0F0E0E000E0E0
004080E0801000E0E0
006060E0804000E0E0
00A030E0608000E0E0
00E000E020C00000E0
206000A0008010E0A0
ENDCHAR
STARTCHAR  522B
ENCODING  21035
SWIDTH  1000 0
DWIDTH  10 0
BBX  10 9 0 -2
BITMAP
00000000002000000030
00F0E0E0E0F0006000E0
00E0000000E000E000E0
00E0E0E0E0A000E000E0
40E0F0E0E0E020E000E0
0000E00000C020E000E0
0060A00000C020E000E0
20E0200000C0200000E0
30400030E0A010E0E080
ENDCHAR
STARTCHAR  522D
ENCODING  21037
SWIDTH  1000 0
DWIDTH  10 0
BBX  9 9 0 -2
BITMAP
000000000010000010
40E0E0E0E0F00060E0
00000060E04000E0E0
2080E0C0E06000E0E0
30601000208020E0E0
00E0E0F0E0A000E0E0
000000E0001000E0E0
104080F0E0E01000E0
30A06040100000E0A0
ENDCHAR
STARTCHAR  522E
ENCODING  21038
SWIDTH  1000 0
DWIDTH  10 0
BBX  9 9 0 -2
BITMAP
000000000020000000
00E0E0E0E0A00040A0
000000E0000000E0E0
80E0E0F0E0E000E0E0
000000E0001000E0E0
00F0E0E0E0E000E0E0
00E0000000E000E0E0
00E0000000E00000E0
00C0E0E0E08000E0A0
ENDCHAR
STARTCHAR  5230
ENCODING  21040
SWIDTH  1000 0
DWIDTH  10 0
BBX  9 8 1 -2
BITMAP
E0E0E0E0E0803000E0
20E020304000E000E0
C0C0A0C0E010E000E0
4040E0103010E000E0
C0E0F0E0E000E000E0
0000E0000000E000E0
2060E0C0E0600000E0
C08060300000C0E080
ENDCHAR
STARTCHAR  5233
ENCODING  21043
SWIDTH  1000 0
DWIDTH  10 0
BBX  10 9 0 -2
BITMAP
00000060000000000060
00E0E0F0E0E0A06000E0
000060A0C06000E000E0
0080E01020C060E000E0
0060E0E0E0E060E000E0
00E0F0E0E0E0A0E000E0
0040F0E0E0E080E000E0
000000000000E00000E0
0000E0E0E0E080C0E080
ENDCHAR
STARTCHAR  5236
ENCODING  21046
SWIDTH  1000 0
DWIDTH  10 0
BBX  10 8 0 -2
BITMAP
008030C00000008000E0
10E0E0F0E0E080E000E0
00E0E0F0E0E0A0E000E0
000000E0000030E000E0
00C0E0F0E0E0E0E000E0
00E000E00000E0E000E0
00E000E00080A00000E0
000000A0000000C0E080
ENDCHAR
STARTCHAR  5237
ENCODING  21047
SWIDTH  1000 0
DWIDTH  10 0
BBX  9 9 0 -2
BITMAP
000000000060100060
00E0E0E0E0F01060E0
00E0E0E0E0E000E0E0
00E00000000000E0E0
00E0A0E0F0F000E0E0
00E0E000E0E000E0E0
10E0E000E0E000E0E0
60A0C000FFC00000E0
30400000C00010E0A0
ENDCHAR
STARTCHAR  5238
ENCODING  21048
SWIDTH  1000 0
DWIDTH  10 0
BBX  10 9 0 -2
BITMAP
00200000600000200000
00608000E00060A00000
00E0F0E0F0E0F0E0A000
000000A0600000101000
C0E0FFE0C0C0F0FFC000
40A0E0E0E0E0E0E04000
0000C020000000E00000
10A0A000000000E00000
208000000000C0800000
ENDCHAR
STARTCHAR  5239
ENCODING  21049
SWIDTH  1000 0
DWIDTH  10 0
BBX  9 9 0 -2
BITMAP
000000000010000000
40A04010A0806000E0
0020E0FFA000E000E0
60C08080A080E000E0
80E0E0F0E0E0E000E0
006020E06020E000E0
00E010E06060E000E0
40A000E010A00000E0
6020A0800080C0E0A0
ENDCHAR
STARTCHAR  523A
ENCODING  21050
SWIDTH  1000 0
DWIDTH  10 0
BBX  9 8 0 -2
BITMAP
A0E0E0F0E0E06000E0
000000E00060E000E0
E0E0E0F0E0E0E000E0
E00010E000E0E000E0
A00060E0A080E000E0
0030C0E0C000E000E0
30A010E060600000E0
601000A00060C0E0A0
ENDCHAR
STARTCHAR  523B
ENCODING  21051
SWIDTH  1000 0
DWIDTH  10 0
BBX  10 9 0 -2
BITMAP
00000000000000000000
000000A04000004000A0
00E0F0E0E0E080E000E0
0030C010804000E000E0
0080E0FFA08040E000E0
0030C06080A000E000E0
00A030A0E01000E000E0
0030C06040C0100000E0
00802000004040A0E080
ENDCHAR
STARTCHAR  523D
ENCODING  21053
SWIDTH  1000 0
DWIDTH  10 0
BBX  9 8 0 -2
BITMAP
0060A0E0E0F020A0E0
40A00000004080E0E0
2030E0E0E0E020E0E0
00000000000000E0E0
20E0F0E0E0E040E0E0
0020E010008000E0E0
00E0C0A0E0F01000E0
00A08060404040E0A0
ENDCHAR
STARTCHAR  523F
ENCODING  21055
SWIDTH  1000 0
DWIDTH  10 0
BBX  10 8 0 -2
BITMAP
00E000E000E0008000E0
00F0C0F0C0F000E000E0
0000E000004000E000E0
0060F0E0E0F000E000E0
20C0602020E000E000E0
000020E0E04000E000E0
0040C0E04000000000E0
20A06000000010E0E080
ENDCHAR
STARTCHAR  5240
ENCODING  21056
SWIDTH  1000 0
DWIDTH  10 0
BBX  10 8 0 -2
BITMAP
00E000E000E0006000E0
00E0C0E0C0F000E000E0
00000000008000E000E0
00E0E0E0E0E000E000E0
00A0E0E0E0C000E000E0
00E00000000000E000E0
00E060A0E0C0000000E0
00C08060200000C0E080
ENDCHAR
STARTCHAR  5241
ENCODING  21057
SWIDTH  1000 0
DWIDTH  10 0
BBX  10 9 0 -2
BITMAP
00000000001000000020
00E0E0E0E0E0006000E0
20E0000000E000E000E0
403000E000E080E000E0
40E0E0F0E0E010E000E0
00A040E0604000E000E0
00E000E030A000E000E0
406000E000A010E0E0A0
00000020000000000000
ENDCHAR
STARTCHAR  5242
ENCODING  21058
SWIDTH  1000 0
DWIDTH  10 0
BBX  10 9 0 -2
BITMAP
00000000000000000000
00E0E0F0E0E080A000C0
0060801040C000E000E0
0010A0F0FF4000E000E0
00A0E06060E060E000E0
0020E00000E020E000E0
0010E00000E000E000E0
0080800000E0000000E0
00800000004000C0E080
ENDCHAR
STARTCHAR  5243
ENCODING  21059
SWIDTH  1000 0
DWIDTH  10 0
BBX  9 8 0 -2
BITMAP
0060600080400060A0
40E0E0F0E0F000E0E0
20E0E0F0E0E000E0E0
40A000E0002000E0E0
60F0E0F0E0F000E0E0
008080E000E000E0E0
40C000E080C00000E0
401000A0000020E0A0
ENDCHAR
STARTCHAR  524A
ENCODING  21066
SWIDTH  1000 0
DWIDTH  10 0
BBX  9 9 0 -2
BITMAP
000000300000000020
00C010E030A00040E0
004040E0604000E0E0
00F0E0E0E0F000E0E0
00F0E0E0E0F000E0E0
00E0000000E000E0E0
00F0E0E0E0F000E0E0
00E0000000E00010E0
00A00030E0A060E0A0
ENDCHAR
STARTCHAR  524C
ENCODING  21068
SWIDTH  1000 0
DWIDTH  10 0
BBX  9 8 0 -2
BITMAP
A0E0E0F0E0E06000E0
000000E00030E000E0
E0E0E0F0E0E0E000E0
E00000E000E0E000E0
A0F0E0F0E080E000E0
10F020E08010E000E0
806000E040800000E0
400000A00060C0E0A0
ENDCHAR
STARTCHAR  524D
ENCODING  21069
SWIDTH  1000 0
DWIDTH  10 0
BBX  9 8 1 -1
BITMAP
000000000000000000
0060A0000040C00000
E0E0E0E0FFE0E0FFA0
E0E0E0E0E06000E000
E0E0E0E0E0E000E000
E0000000E0E000E000
E0E0E0E0E0E000E000
E00010E0A0C0E0C000
ENDCHAR
STARTCHAR  5250
ENCODING  21072
SWIDTH  1000 0
DWIDTH  10 0
BBX  9 9 1 -2
BITMAP
000000000000000010
E0E0E0E0F000A000E0
E0000000E000E000E0
A0E0F0E0A000E000E0
E0E0F0E0E080E000E0
E030C06000E0E000E0
F0E020A080E0E000E0
E010000030E00000E0
A0000000A080C0E080
ENDCHAR
STARTCHAR  5251
ENCODING  21073
SWIDTH  1000 0
DWIDTH  10 0
BBX  10 9 0 -2
BITMAP
00000000000000000000
0030A0E0E0E0206000E0
10E020000030A0E000E0
0080E0E0E0E010E000E0
00102080004020E000E0
008060C010C020E000E0
0010E06060A000E000E0
00108060A0C0600000E0
00A0A080806020A0E080
ENDCHAR
STARTCHAR  5254
ENCODING  21076
SWIDTH  1000 0
DWIDTH  10 0
BBX  9 9 0 -2
BITMAP
000000000040000060
00E0E0E0E0F00040E0
00E0E0E0E0F000E0E0
00E0E0E0E0C000E0E0
00602000002000E0E0
30E0F0E0F0F020E0E0
3040E06080C020E0E0
20E040E010C02000E0
00306030C0A010E0A0
ENDCHAR
STARTCHAR  5256
ENCODING  21078
SWIDTH  1000 0
DWIDTH  10 0
BBX  9 9 0 -2
BITMAP
000000000000000000
20E0E0F0E0E04000C0
004030004030E000E0
00608000A030E000E0
80E0E0E0E0E0E000E0
00F0E0E0E0A0E000E0
00E0000000E0E000E0
00E0000000E00000E0
00E0E0E0E080C0E0A0
ENDCHAR
STARTCHAR  525C
ENCODING  21084
SWIDTH  1000 0
DWIDTH  10 0
BBX  10 9 -1 -2
BITMAP
00000000000000000000
006080C0E080800060C0
00E040404040E000E0E0
0020F0A000E0A000E0E0
00A030E000E0E000E0E0
002040E000E0E000E0E0
0010E08000FFA000E0E0
0060C01000E000A000E0
0080100000E0E080E0A0
ENDCHAR
STARTCHAR  525E
ENCODING  21086
SWIDTH  1000 0
DWIDTH  10 0
BBX  10 9 0 -2
BITMAP
00000040000000000040
00E0E0F0E0E0406000E0
0040C080C04000E000E0
00A0400030A020E000E0
00E0E0E0E0F0C0E000E0
00C0E0E0E0E000E000E0
00E00000E0E000E000E0
00A0E0E0A0E0000000E0
00000030E0A000C0E080
ENDCHAR
STARTCHAR  5261
ENCODING  21089
SWIDTH  1000 0
DWIDTH  10 0
BBX  10 8 0 -2
BITMAP
00A030E040A0006000E0
0020A0A0601000E000E0
0060C030C08010E000E0
308010A0008030E000E0
00C060C060A000E000E0
001080A0801000E000E0
1080C010A0A0000000E0
40801000008030E0E080
ENDCHAR
STARTCHAR  5265
ENCODING  21093
SWIDTH  1000 0
DWIDTH  10 0
BBX  10 9 0 -2
BITMAP
00000000000060000060
00E0E0E0E0E0E06000E0
0020E0E0E0E0E0E000E0
20E0E0E0E0E0C0E000E0
006040E0006080E000E0
002080E040A010E000E0
001080E0408000E000E0
00A080E010C0400000E0
10A080A0000080A0E080
ENDCHAR
STARTCHAR  5267
ENCODING  21095
SWIDTH  1000 0
DWIDTH  10 0
BBX  9 8 0 -2
BITMAP
00F0E0E0E0E000A0C0
00E0000000E000E0E0
00F0E0F0E0A000E0E0
00F0E0F0E0E040E0E0
00E0E0F0E04000E0E0
20C0E00000E000E0E0
6080E00000E00000E0
6020E0E0E08000E0A0
ENDCHAR
STARTCHAR  5269
ENCODING  21097
SWIDTH  1000 0
DWIDTH  10 0
BBX  10 9 0 -2
BITMAP
00000000001010000000
20E0E0F0E0C0606000E0
20E0E0F0E0E0E0E000E0
0000C0E000C040E000E0
10F0F0E000F0E0E000E0
20A0E0F010F0E0E000E0
000080F0F08000E000E0
008080E040F0600000E0
306000A0002060A0E060
ENDCHAR
STARTCHAR  526A
ENCODING  21098
SWIDTH  1000 0
DWIDTH  10 0
BBX  9 9 1 -2
BITMAP
001020000000400000
E0E0E0E0E0E0FFE0A0
00E0E0E0E04000C000
00F0E0E0F0E000E000
00F0E0E0F08000E000
00C020E0C0A0E0C000
C0E0E0E0E0E0E0F000
808040000040E0E000
000000000000000000
ENDCHAR
STARTCHAR  526F
ENCODING  21103
SWIDTH  1000 0
DWIDTH  10 0
BBX  9 7 1 -1
BITMAP
E0E0E0E0FF606000E0
E0E0E0E0F000E000E0
E0E0E0E0C010E000E0
E0E0E0E0E0E0E000E0
E000E00000E0E000E0
F0E0F0E0E0E0E000E0
F0E0F0E0E0A0C0E0A0
ENDCHAR
STARTCHAR  5272
ENCODING  21106
SWIDTH  1000 0
DWIDTH  10 0
BBX  10 9 0 -2
BITMAP
00000010000000000000
00E0E0F0E0E0E06000E0
004000A0000040E000E0
00E0E0F0E0E060E000E0
00A0E0F0E0E000E000E0
20E0E0F0E0E080E000E0
00C0E0E0E0E0A0E000E0
00E000000000E00000E0
00A0E0E0E0E080C0E080
ENDCHAR
STARTCHAR  527D
ENCODING  21117
SWIDTH  1000 0
DWIDTH  10 0
BBX  10 9 0 -2
BITMAP
00000000000000000010
30E0F0E0F0E0FF4000E0
00F0F0E0F0E0E0E000E0
00F0F0E0F0E0A0E000E0
00E0E0E0E0E040E000E0
00000000000000E000E0
20E0E0F0E0E0C0E000E0
00A020E020C0200000E0
206080A0004080A0E060
ENDCHAR
STARTCHAR  527F
ENCODING  21119
SWIDTH  1000 0
DWIDTH  10 0
BBX  10 9 0 -2
BITMAP
00000000000000000000
00A080E040E0404000C0
00406080308060E000E0
00F0E0F0E0E0E0E000E0
00F0E0F0E0E0E0E000E0
00F0E0F0E0E080E000E0
30E0E0F0E0E0E0E000E0
10C040E000E0400000E0
003000A0003060C0E080
ENDCHAR
STARTCHAR  5281
ENCODING  21121
SWIDTH  1000 0
DWIDTH  10 0
BBX  9 9 0 -2
BITMAP
000000000000000000
0080806080000060E0
60FFE0E0F0E060E0E0
00E0E0E0F0E040E0E0
00E0E0E0F0E040E0E0
00E00000E00000E0E0
00C0E0E0E0E060E0E0
2080A040A0606000E0
80303080404080E0A0
ENDCHAR
STARTCHAR  5282
ENCODING  21122
SWIDTH  1000 0
DWIDTH  10 0
BBX  10 8 0 -2
BITMAP
00F0E0E0E0FFE08040E0
00E0C06080F0E060E0E0
00E0E0F0C0A0C040E0E0
00E0F0F080E01000E0E0
00E0F0E080E00000E0E0
10C0FFF080F04000E0E0
6080A040C040C02010E0
6010800030004030C080
ENDCHAR
STARTCHAR  5288
ENCODING  21128
SWIDTH  1000 0
DWIDTH  10 0
BBX  9 9 0 -2
BITMAP
000000006000004000
00E0E0E0F0C0E0E0C0
00E0E0E0C040C030A0
00C0A0A0E0E0E0F0E0
10C0E040E080A0F080
4040E0E0A04040C060
00E0E0F0E0E0E0E0F0
0040C06000000000E0
00A040000010E0E0A0
ENDCHAR
STARTCHAR  5290
ENCODING  21136
SWIDTH  1000 0
DWIDTH  10 0
BBX  10 9 0 -2
BITMAP
00002000002000000020
00A0F080A0F0A08000C0
00A0E0E0F0C0C0C000C0
30F0C0C0F0C0A0C000C0
00C0C0C0F0C0A0C000C0
00A0C0C0C0C0E0C000C0
00C0E0C0C0E0FFC000C0
0040C0F0E0F0400000C0
00A080603060A0A0C060
ENDCHAR
STARTCHAR  5293
ENCODING  21139
SWIDTH  1000 0
DWIDTH  10 0
BBX  9 9 0 -2
BITMAP
000010000000000010
00E0E0C0C0C0C080C0
00FFFFFFFFFFE0C0C0
00F0C0C0C0C0A0C0C0
00C0C0C0C0C0C0C0C0
00F0C0F0C0C0C0C0C0
40FFFFFFFFFFFFC0C0
00A0600000E00000C0
3080000000A000A0A0
ENDCHAR
STARTCHAR  529B
ENCODING  21147
SWIDTH  1000 0
DWIDTH  10 0
BBX  9 8 0 -2
BITMAP
000000E00000000000
10E0E0F0E0E0E0E0E0
000000E000000000E0
000020C000000000E0
0000806000000000E0
0010E01000000000E0
00A0600000000000E0
10800000000060E0A0
ENDCHAR
STARTCHAR  529D
ENCODING  21149
SWIDTH  1000 0
DWIDTH  10 0
BBX  9 9 0 -2
BITMAP
000000000040000000
80E0E0F0A0F0E0E060
000000E000E00000E0
606010E000E00000E0
10E0608010C00000E0
0080F02060800000E0
0080F010C0200000E0
40C060E080000000E0
80100030000060E0A0
ENDCHAR
STARTCHAR  529E
ENCODING  21150
SWIDTH  1000 0
DWIDTH  10 0
BBX  10 9 0 -2
BITMAP
000000A0000000000000
000000E0000000E00000
0060E0F0E0E0E0E00000
001030E0000000E04000
008060C0000000E0A040
20C06080000000E02040
0020E010000000E00000
00A0200000A0E0A00000
00000000000000000000
ENDCHAR
STARTCHAR  529F
ENCODING  21151
SWIDTH  1000 0
DWIDTH  10 0
BBX  10 9 0 -2
BITMAP
000000000000A0000000
001010100000E00000C0
10C0F0A060E0F0E0E0E0
0000E0000000E00000E0
0000E0000040A00000E0
0000E00000C0400000E0
0040F0C060A0000000E0
10804020C01000A0E0A0
00000000000000000000
ENDCHAR
STARTCHAR  52A0
ENCODING  21152
SWIDTH  1000 0
DWIDTH  10 0
BBX  9 9 0 -2
BITMAP
000080000000000000
0000E00000A0E0E0F0
00E0F0E0E0E0E000E0
0000E00000E0E000E0
0010C00000E0E000E0
0040800000E0E000E0
00A0300000E0E000E0
10A00060E0A0F0E0E0
000000000000000000
ENDCHAR
STARTCHAR  52A1
ENCODING  21153
SWIDTH  1000 0
DWIDTH  10 0
BBX  10 9 0 -2
BITMAP
00006000000000000000
0060F0E0E0E0E0E0C000
00A08040101060E06000
002080E0FFE0F0804010
80E0A0C020002060A060
00C0E0F0E0E0E0E06000
000060A000000000E000
0060E01000000000E000
10801000000040E08000
ENDCHAR
STARTCHAR  52A2
ENCODING  21154
SWIDTH  1000 0
DWIDTH  10 0
BBX  10 9 0 -2
BITMAP
00000000000030000000
60F0E0E0E000E0000000
00E000000040F0E0E0A0
00E0E0E08000E00000E0
00E00000E000E00000E0
00E00000E010C00000E0
20A00000E060800000E0
60600000E0E0100000E0
801010E0A0400060E080
ENDCHAR
STARTCHAR  52A3
ENCODING  21155
SWIDTH  1000 0
DWIDTH  10 0
BBX  10 8 1 -1
BITMAP
00000000600000000000
0020A000E00040C02000
30C02000E01060A0C010
10103060F0C080100000
60A08080100000004000
20E0E0F0E0E0E0E0E000
0020C04000000000E000
40A030000000A0E0A000
ENDCHAR
STARTCHAR  52A8
ENCODING  21160
SWIDTH  1000 0
DWIDTH  10 0
BBX  10 9 0 -2
BITMAP
00000000000040000000
00E0E0E06000E0000000
000000000080F0E0E0C0
60E0E0E0E000E00000E0
004080000000E00000E0
008030400020C00000E0
00A000804040800000E0
00C0A0E0A0A0300000E0
0080401040A00020E080
ENDCHAR
STARTCHAR  52A9
ENCODING  21161
SWIDTH  1000 0
DWIDTH  10 0
BBX  10 9 0 -2
BITMAP
00000010000040000000
00E0E0F00000E0000010
00E000E00080F0E0E0E0
00F0E0F00000E00000E0
00E000E00000E00000E0
00F0E0F00010C00000E0
00E000E00040800000E0
00E060F0E0E0300000E0
60C0806040800080E080
ENDCHAR
STARTCHAR  52AA
ENCODING  21162
SWIDTH  1000 0
DWIDTH  10 0
BBX  10 9 0 -2
BITMAP
00104000000000000010
00E0F0E0E080E0E0E0E0
00C08020E000A020A0A0
0080F0FF8000A0FFE010
10A06020C06080206080
10E0E0E0F0E0E0E08000
000010C000000000E000
0040E04000000000E000
00A03000000060E0A000
ENDCHAR
STARTCHAR  52AB
ENCODING  21163
SWIDTH  1000 0
DWIDTH  10 0
BBX  9 8 0 -2
BITMAP
10E0F0E0E000C00080
0000E00040E0F0E0F0
0000E0000000E000E0
80E0F0E0E010C000E0
006040000030A000E0
00A0106060804000E0
00C080E0C0A00000E0
10A06020606000C0A0
ENDCHAR
STARTCHAR  52AC
ENCODING  21164
SWIDTH  1000 0
DWIDTH  10 0
BBX  10 8 0 -2
BITMAP
00A0E0E06000C00000A0
30800000E030F0E0E0E0
00A0E0E0E000E00000E0
00E000E0E000E00000E0
00E000E0E000E00000E0
00E0E0A0E020C00000E0
00000000E060800010E0
000040E0A0602060C060
ENDCHAR
STARTCHAR  52AD
ENCODING  21165
SWIDTH  1000 0
DWIDTH  10 0
BBX  10 9 0 -2
BITMAP
00000000000000000000
00E0F0E0F00000E00000
0010C000E040E0F0E0A0
00A06000E00000E000E0
006000E0A00010C000E0
00E0E0E0E00040A000E0
00E00000E000A04000E0
00E00000E020E00010E0
00C0E0E0A0404060C080
ENDCHAR
STARTCHAR  52B1
ENCODING  21169
SWIDTH  1000 0
DWIDTH  10 0
BBX  10 9 0 -2
BITMAP
00000000000020000000
00F0E0E0E060E0000000
00E0E0E0E060F0E0E0E0
00E0E0000000E00000E0
00E0E0E0E000E00000E0
10E0E000E000E00000E0
30A0C000E030A00000E0
60A0A000E060600000E0
30604060A0602020E080
ENDCHAR
STARTCHAR  52B2
ENCODING  21170
SWIDTH  1000 0
DWIDTH  10 0
BBX  10 9 0 -2
BITMAP
00000000100010000000
40E0E0E0E010F0E0E060
000040E02000E00000E0
30C080C0E030E00000E0
303000006020E00000E0
40E0F0E0E010E00000E0
0000E0000040A00000E0
0030E0A0E0A0600000E0
40A0603000802000E080
ENDCHAR
STARTCHAR  52B3
ENCODING  21171
SWIDTH  1000 0
DWIDTH  10 0
BBX  9 9 1 -2
BITMAP
000000000000000000
6060E0600060E06060
6060E0600060E06080
F0E0E0E0E0E0E0E0E0
800080000000002080
60E0FFE0E0E0E0E000
0040A000000000E000
40E01000000000E000
802000000040E08000
ENDCHAR
STARTCHAR  52BE
ENCODING  21182
SWIDTH  1000 0
DWIDTH  10 0
BBX  10 9 0 -2
BITMAP
00000010000000100000
002040C0202000E00000
00C0F0E0C0A0E0F0E0E0
0040C040800000E000E0
00A0E0F0408020C000E0
0030E040C040608000E0
10E040C06000A03000E0
0040E080E030E00000E0
0080200040804020E080
ENDCHAR
STARTCHAR  52BF
ENCODING  21183
SWIDTH  1000 0
DWIDTH  10 0
BBX  10 9 0 -2
BITMAP
00004000000040000000
20E0F0E020E0F0E0C000
0010E06020A08000E000
20C0F06030E0C020E040
20E0C04060403040E080
20E0E0F0E0E0E0E06000
000060E000000000E000
0080F03000000000E000
108020000000A0E08000
ENDCHAR
STARTCHAR  52C3
ENCODING  21187
SWIDTH  1000 0
DWIDTH  10 0
BBX  9 8 0 -2
BITMAP
40E0F0E0E000C00000
A0E0F0E0F0A0F0E0F0
602020206000E000E0
00E0E0FFC000E000E0
0000A0A01020C000E0
4080F0E0E0608000E0
4060E01000E02000E0
00A0A000108020E0A0
ENDCHAR
STARTCHAR  52C7
ENCODING  21191
SWIDTH  1000 0
DWIDTH  10 0
BBX  9 8 0 -2
BITMAP
00E0E0FFE0E0FFFFA0
00C0E0FFF0FFFFE0F0
00E0E0E0F0E0E0E0F0
00E0E0E0F0E0E0E0F0
00800060800000A0A0
00E0E0F0E0E0E0E0A0
0060E03000000010E0
10A020000000C0E0A0
ENDCHAR
STARTCHAR  52C9
ENCODING  21193
SWIDTH  1000 0
DWIDTH  10 0
BBX  10 9 0 -2
BITMAP
00000000000000000000
0040F0E0E020C0002000
10A00080A040F0E0F000
00F0E0F0E0E0E000E000
00E000E000E0C000E000
00E0E0E0E0C08000E000
0000A0C0008020A0E000
00A040E0000000000080
306000A0E0E0E0E0E080
ENDCHAR
STARTCHAR  52CB
ENCODING  21195
SWIDTH  1000 0
DWIDTH  10 0
BBX  10 9 0 -2
BITMAP
00000000600000800000
00E0E0E0F00000E00020
00E0E0E0E000C0F0E0E0
00E0E0E0E0C000E000E0
00E0008000E010E000E0
00E010E000E030A000E0
001060E02010806000E0
0060E030E020C02000E0
10A010006080A040E080
ENDCHAR
STARTCHAR  52D0
ENCODING  21200
SWIDTH  1000 0
DWIDTH  10 0
BBX  10 8 0 -2
BITMAP
00E0E0E0F03000E00020
000000A08000C0F0E0E0
10E0E0F0E0E000E000E0
0000C0C0000010C000E0
00A0E0E0E06030A000E0
00E0E000E0E0608000E0
00E0E000E0E0A03000E0
10E0E0E0E0E0A010E080
ENDCHAR
STARTCHAR  52D2
ENCODING  21202
SWIDTH  1000 0
DWIDTH  10 0
BBX  10 9 0 -2
BITMAP
00006000600000600000
00E0F0E0F0A000E00000
0000F0E0E010E0F0E0A0
000000E0008000E000E0
00E0E0F0E0E020C000E0
00E0E0F0E0A0608000E0
000000E00000A04000E0
00E0E0F0E0C0E00000E0
000000A000106000E080
ENDCHAR
STARTCHAR  52D6
ENCODING  21206
SWIDTH  1000 0
DWIDTH  10 0
BBX  9 9 0 -2
BITMAP
000000002000200000
E0E0E0E0E000E00000
E0E0E060E0C0F0C0F0
A0E0E060A000E000E0
A0E0E0E0A000E000E0
E0E0E0E0E010C000E0
E0E0E0E0E0408000E0
E0000000E0A02000E0
A0E0E0E0808000C0A0
ENDCHAR
STARTCHAR  52D8
ENCODING  21208
SWIDTH  1000 0
DWIDTH  10 0
BBX  9 9 1 -2
BITMAP
001000001000200000
E0F0E0E0F010E00000
00F0E0E0E0A0F0E0F0
00E00000E000E000E0
00F0E0E0E020A000E0
F0E0E0E0C0608000E0
E010A04060804000E0
E030600060C01000E0
A0E0E0E0808000E0A0
ENDCHAR
STARTCHAR  52DF
ENCODING  21215
SWIDTH  1000 0
DWIDTH  10 0
BBX  9 9 1 -2
BITMAP
000020000000200000
A0C0F0C000C0F0C0A0
00F0E0E0E0E0E0F000
00F0C0C0C0C0C0F000
00E0E0F0E0E0E0A000
E0E0F0F0E0E0E0FFC0
40E0E0F0E0E0E0E0A0
1040E060000000E010
008040000080E08000
ENDCHAR
STARTCHAR  52E4
ENCODING  21220
SWIDTH  1000 0
DWIDTH  10 0
BBX  10 9 0 -2
BITMAP
00400000400000400000
20F0E0E0F0E000E00010
00C0E0F0C030A0F0C0E0
00C0E0F0E0E000E000E0
00E0E0F0E0A000E000E0
00E0E0F0E0C030A000E0
00E0E0F0E040806000E0
00C0E0FFE0C0E02000E0
0020100000006000C080
ENDCHAR
STARTCHAR  52F0
ENCODING  21232
SWIDTH  1000 0
DWIDTH  10 0
BBX  10 9 0 -2
BITMAP
00000000001020200000
30E0E0E0F0E0C0F0E000
0040A000E0E000E0E000
10C010A0C0E0E0F0F000
0080308030E000E0E000
40F0F0FFF0C0E0E0A000
10C0E0E0C060A0C08010
30A0E0E0C0C0E010A040
6060C080A080A0E0A040
ENDCHAR
STARTCHAR  52F9
ENCODING  21241
SWIDTH  1000 0
DWIDTH  10 0
BBX  9 9 0 -2
BITMAP
000000000000000000
0010C0000000000010
00A0E0E0E0E0E0E0F0
30C0000000000000E0
0000000000000000E0
0000000000000000E0
0000000000000000E0
0000000000000000E0
000000000030E0E0A0
ENDCHAR
STARTCHAR  52FA
ENCODING  21242
SWIDTH  1000 0
DWIDTH  10 0
BBX  9 8 0 -2
BITMAP
0030A0000000000020
00A0E0E0E0E0E0E0F0
40A0001000000000E0
100000A040000000E0
00000020E0100000E0
0000000040A00000E0
0000000000100000E0
000000000040E0E0A0
ENDCHAR
STARTCHAR  52FE
ENCODING  21246
SWIDTH  1000 0
DWIDTH  10 0
BBX  9 9 0 -2
BITMAP
001080000000000000
0080F0E0E0E0E0E060
30C0004010000000E0
402010E010000000E0
0000808000402000E0
0010E00000608000E0
0060E0E0E0E0E000E0
0020401000004000E0
000000000030E0E0A0
ENDCHAR
STARTCHAR  52FF
ENCODING  21247
SWIDTH  1000 0
DWIDTH  10 0
BBX  9 9 0 -2
BITMAP
003040000000000000
0080800000000000E0
10E0E0E0F0E0F0E0F0
608000A04000C010E0
000060A00020C000E0
0060A00000A04000E0
2080000060A00000E0
00000040C020E0E0C0
000000A01000000000
ENDCHAR
STARTCHAR  5300
ENCODING  21248
SWIDTH  1000 0
DWIDTH  10 0
BBX  9 8 0 -2
BITMAP
0040F0E0E0E0E0E060
20C0001000000000E0
402020E020000000E0
00000030A0004000E0
0000000030E0A000E0
000010A0E0300000E0
0060E06000000000E0
004010000020E0E0A0
ENDCHAR
STARTCHAR  5305
ENCODING  21253
SWIDTH  1000 0
DWIDTH  10 0
BBX  10 8 0 -1
BITMAP
00006000000000000000
0030FFE0E0E0E0E0F000
00C0300000000010E000
0040F0E0E0E0E0E0E000
0000E000000000E0E000
0000F0E0E0E0E080E000
0000E0000030E0E0C060
0000F0E0E0E0E0E0E0A0
ENDCHAR
STARTCHAR  5306
ENCODING  21254
SWIDTH  1000 0
DWIDTH  10 0
BBX  9 8 0 -2
BITMAP
0060E0E0E0E0E0E060
30A000608000E000E0
602080C02010C000E0
0000A0F040608000E0
0020E040C0F02000E0
10E0400080C0E040E0
00300060C0002030E0
000000801030E0E0A0
ENDCHAR
STARTCHAR  5308
ENCODING  21256
SWIDTH  1000 0
DWIDTH  10 0
BBX  9 9 0 -2
BITMAP
004030000000000000
00E0E0E0E0E0E0E080
8080102000401010E0
40E030E080C010E0E0
00E020A0E08000E0E0
00E06040008020E0E0
00E0E0E0E0E0E0A0E0
0000000000000000E0
000000000000A0E0A0
ENDCHAR
STARTCHAR  530D
ENCODING  21261
SWIDTH  1000 0
DWIDTH  10 0
BBX  9 9 0 -2
BITMAP
000060000000000000
0060FFE0E0E0E0E0F0
20E02000E000A000E0
0080E0E0F0E0E0E0E0
0000E0E0F0E0E0C0E0
0000F0E0F0E0E0E0E0
0000F0E0F0E0E0E0E0
0000E000E00000E0E0
0000A0000000C0E0A0
ENDCHAR
STARTCHAR  530F
ENCODING  21263
SWIDTH  1000 0
DWIDTH  10 0
BBX  10 9 0 -2
BITMAP
00003060001080000000
10E0E0F0E060F0E0E0C0
0030A08060C0200010E0
00E0E0E0E000F0E0E0E0
000000000000E000E0E0
00E0F0E0A000F0E080E0
00E0E0E0C000E080E080
00000000E000E0000060
0040E0E06000E0E0E080
ENDCHAR
STARTCHAR  5310
ENCODING  21264
SWIDTH  1000 0
DWIDTH  10 0
BBX  9 9 0 -2
BITMAP
004000000000000000
00E0E0E0E0E0E0E0E0
80F0E0E0E0E0E000E0
40A0E0E0E0E0F000E0
00E0E0E0E0E0C000E0
00A0E0E0E0E08000E0
00E0E0E0F0E0F010E0
00E00000E000E010E0
00A0C0C0C0C0A08080
ENDCHAR
STARTCHAR  5315
ENCODING  21269
SWIDTH  1000 0
DWIDTH  10 0
BBX  8 8 1 -1
BITMAP
6000000000000000
E000000000108080
E0000040A0C06010
E080E0A030000000
E060100000000000
E000000000000010
E0000000000000E0
E0E0E0E0E0E0E0C0
ENDCHAR
STARTCHAR  5316
ENCODING  21270
SWIDTH  1000 0
DWIDTH  10 0
BBX  10 9 0 -2
BITMAP
00000000000000000000
0000608000E000001000
10A0E01000E00020E020
1060E00000E040E03000
0000E00000E0E0200000
0000E020A0F000000000
0000E08040E000000040
0000E00000E0000000E0
0000A00000A0E0E0E080
ENDCHAR
STARTCHAR  5317
ENCODING  21271
SWIDTH  1000 0
DWIDTH  10 0
BBX  10 8 0 -2
BITMAP
000000E00000E0000000
000000E00000E0108030
40E0E0F00000F0E06000
000000E00000E0100000
000000E00000E0000000
0030A0FF0000E0000000
40C040E00000E000E000
000000800000E0E0A000
ENDCHAR
STARTCHAR  5319
ENCODING  21273
SWIDTH  1000 0
DWIDTH  10 0
BBX  11 9 0 -2
BITMAP
0000000000404000000000
00E0E0E0E0E0E000001000
00E0E0E0E0E0E040E04000
00E0E0E0E080E0A0200000
00E0E0E0E0C0E000000000
004040E00000E00000C000
00A060E0E0C0E0E0E08000
10C080F0E0E0E0E0E0E000
0000000000000000000000
ENDCHAR
STARTCHAR  531A
ENCODING  21274
SWIDTH  1000 0
DWIDTH  10 0
BBX  8 7 1 -1
BITMAP
E0E0E0E0E0E0E080
E000000000000000
E000000000000000
E000000000000000
E000000000000000
E000000000000000
E0E0E0E0E0E0E080
ENDCHAR
STARTCHAR  531D
ENCODING  21277
SWIDTH  1000 0
DWIDTH  10 0
BBX  8 7 1 -1
BITMAP
E0E0E0E0E0E0E0A0
E0000000E0004000
E000F0E0F0E0F000
E000E000E000E000
E000E000E000E000
E000A000E060A000
E0E0E0E0E0E0E0A0
ENDCHAR
STARTCHAR  5320
ENCODING  21280
SWIDTH  1000 0
DWIDTH  10 0
BBX  9 7 1 -1
BITMAP
F0E0E0E0E0E0E0E060
E000E0E0E0E0E0C000
E000E0000000000000
E000F0E0E0E0F0E010
E040A0000000E00000
E0C030000000E00000
F0E0E0E0E0E0F0E060
ENDCHAR
STARTCHAR  5321
ENCODING  21281
SWIDTH  1000 0
DWIDTH  10 0
BBX  9 7 1 -1
BITMAP
F0E0E0E0E0E0E0E060
E080E0E0E0E0E0E000
E0000000E000000000
E020E0E0F0E0E04000
E0000000E000000000
E080E0E0E0E0E0E000
F0E0E0E0E0E0E0E060
ENDCHAR
STARTCHAR  5323
ENCODING  21283
SWIDTH  1000 0
DWIDTH  10 0
BBX  9 7 1 -1
BITMAP
F0E0E0E0E0E0E0FF60
E0C0E0E0E0E0E0E000
E0E00000E00000E000
E0E0E0E0F0E0E0E000
E0E0E0E0F0E0E0A000
E0000000E000000000
F0E0E0E0FFE0E0E060
ENDCHAR
STARTCHAR  5326
ENCODING  21286
SWIDTH  1000 0
DWIDTH  10 0
BBX  9 8 1 -2
BITMAP
F0E0E0E0E0E0E0E080
E0E0E0E060E0E0A000
E0C0E00000E000E000
E0F0F0E020C000E000
E060E08060A000E000
E040E010804000F060
E00000000000000000
E0E0E0E0E0E0E0E080
ENDCHAR
STARTCHAR  532A
ENCODING  21290
SWIDTH  1000 0
DWIDTH  10 0
BBX  9 7 1 -1
BITMAP
F0E0E0E0E0E0E0E080
E0A0E0F000E0E0E030
E00000E000E0000000
E080E0F000E0E0E010
E00000E000E0000000
E0A0E0F000E0E0E030
F0E0E0FFE0FFE0E080
ENDCHAR
STARTCHAR  532E
ENCODING  21294
SWIDTH  1000 0
DWIDTH  10 0
BBX  9 8 1 -2
BITMAP
F0E0E0E0FFE0E0E060
E0E0E0E0F0E0E0E000
E0A0E0E0E0E0E08000
E0E0E0E0E0E0E0F010
E0E0E0E0F0E0E0E000
E08060E060A0608000
E0A08020004080A000
E0E0E0E0E0E0E0E060
ENDCHAR
STARTCHAR  5339
ENCODING  21305
SWIDTH  1000 0
DWIDTH  10 0
BBX  9 8 1 -2
BITMAP
F0E0E0F0E0F0E0E080
E00000E000E0000000
E00000E000E0000000
E00030A000E0000000
E000C04000E000A000
E040800000C0E0A000
E00000000000000000
E0E0E0E0E0E0E0E060
ENDCHAR
STARTCHAR  533A
ENCODING  21306
SWIDTH  1000 0
DWIDTH  10 0
BBX  9 7 1 -1
BITMAP
F0E0E0E0E0E0E0E040
E02060000000A02000
E00080C020A0600000
E0000060FFA0000000
E02080C030A0800000
E03040000000602000
F0E0E0E0E0E0E0E060
ENDCHAR
STARTCHAR  533B
ENCODING  21307
SWIDTH  1000 0
DWIDTH  10 0
BBX  9 8 1 -2
BITMAP
F0E0FFE0E0E0E0E060
E040F0E0E0E0E0A000
E0801000E000000000
E0A0E0E0FFE0E0E000
E00020E030A0400000
E060E0400030E08000
E04010000000108000
E0E0E0E0E0E0E0E060
ENDCHAR
STARTCHAR  533E
ENCODING  21310
SWIDTH  1000 0
DWIDTH  10 0
BBX  9 8 1 -2
BITMAP
F0E0E0E0F0E0E0FF80
E0C0E0E0E0E0E0F000
E0E0E0E0E0E0E0C000
E0E0A0E0E0E0E08000
E0E0E000E000E0E000
E0C0E0E0F0E0F0F000
E060A000A000E0A000
E0E0E0E0E0E0E0E080
ENDCHAR
STARTCHAR  533F
ENCODING  21311
SWIDTH  1000 0
DWIDTH  10 0
BBX  9 8 1 -2
BITMAP
F0E0E0E0E0E0E0E060
E0A0A0F030A0F0A020
E04040E01040804010
E0E0E0F0E0E0E0E040
E060E0F0E0E0E08000
E060E000000000E000
E000A0E0E0E0E08000
E0E0E0E0E0E0E0E060
ENDCHAR
STARTCHAR  5341
ENCODING  21313
SWIDTH  1000 0
DWIDTH  10 0
BBX  9 8 0 -2
BITMAP
00000000E000000000
00000000E000000000
00000000E000000000
60E0E0E0F0E0E0E0E0
00000000E000000000
00000000E000000000
00000000E000000000
00000000A000000000
ENDCHAR
STARTCHAR  5343
ENCODING  21315
SWIDTH  1000 0
DWIDTH  10 0
BBX  9 9 1 -2
BITMAP
000000000000002000
40E0E0E0E0E0E0C010
00000000E000000000
00000000E000000000
E0E0E0E0F0E0E0E0A0
00000000E000000000
00000000E000000000
00000000E000000000
000000006000000000
ENDCHAR
STARTCHAR  5345
ENCODING  21317
SWIDTH  1000 0
DWIDTH  10 0
BBX  10 8 0 -2
BITMAP
0000E00000E00000E000
0000E00000E00000E000
0000E00000E00000E000
00E0F0E0E0F0E0E0F0A0
0000C00000E00000E000
0040800000E00000E000
00C0200000E00000E000
0060000000A00000A000
ENDCHAR
STARTCHAR  5347
ENCODING  21319
SWIDTH  1000 0
DWIDTH  10 0
BBX  9 9 1 -2
BITMAP
000000001000000000
80E0E0E06000E00000
0000E0000000E00000
0000E0000000E00000
E0E0F0E0E0E0F0E0A0
006060000000E00000
00E010000000E00000
808000000000E00000
400000000000600000
ENDCHAR
STARTCHAR  5348
ENCODING  21320
SWIDTH  1000 0
DWIDTH  10 0
BBX  9 9 1 -2
BITMAP
000000000000000000
00A030000000000000
40E0E0E0F0E0E0E030
A0200000E000000000
00000000E000000000
E0E0E0E0F0E0E0E0A0
00000000E000000000
00000000E000000000
000000008000000000
ENDCHAR
STARTCHAR  5349
ENCODING  21321
SWIDTH  1000 0
DWIDTH  10 0
BBX  9 9 1 -2
BITMAP
000000004000000000
80E0E0E0F0E0E0E000
00000000E000000000
0000E000E000E00000
0000E0001000E00000
E0E0F0E0E0E0F0E0C0
00A060000000E00000
60A000000000E00000
300000000000600000
ENDCHAR
STARTCHAR  534A
ENCODING  21322
SWIDTH  1000 0
DWIDTH  10 0
BBX  9 8 0 -2
BITMAP
00200000E000001020
0080A010E00060E040
00003010E000401000
00E0E0E0F0E0E0E0C0
00000000E000000000
C0E0E0E0F0E0E0E0E0
00000000E000000000
00000000A000000000
ENDCHAR
STARTCHAR  534E
ENCODING  21326
SWIDTH  1000 0
DWIDTH  10 0
BBX  9 9 0 -2
BITMAP
000060000080002000
20C0600000E040E020
80E0000010E0C01000
00E00080E0E00000C0
00E0001000E0E0E0C0
001000008000000000
80E0E0E0F0E0E0E0E0
00000000E000000000
000000004000000000
ENDCHAR
STARTCHAR  534F
ENCODING  21327
SWIDTH  1000 0
DWIDTH  10 0
BBX  10 8 0 -2
BITMAP
00E00000E00000200000
80F0A0C0F0E0E0F00000
00E00030E00000E03000
00E020A0E00000E0C010
00E08040C00000E08040
00E00080600000E01010
00E030E0000000E00000
00A060200060E0A00000
ENDCHAR
STARTCHAR  5351
ENCODING  21329
SWIDTH  1000 0
DWIDTH  10 0
BBX  9 9 0 -2
BITMAP
000000400000000000
00E0E0F0E0E0E0E0C0
00E00000E0000000E0
00F0E0E0F0E0E0E0E0
00F0E0E0F0E0E0E0A0
0000A0A01000000000
10C0A000E000000000
A0E0E0E0F0E0E0E0E0
000000008000000000
ENDCHAR
STARTCHAR  5352
ENCODING  21330
SWIDTH  1000 0
DWIDTH  10 0
BBX  9 9 1 -2
BITMAP
000000206000000000
E0E0E0E0FFE0E0E040
000080000000800000
0080C0300040C03000
A0A020E040E030C020
10000010A010001000
E0E0E0E0F0E0E0E0C0
00000000E000000000
000000004000000000
ENDCHAR
STARTCHAR  5353
ENCODING  21331
SWIDTH  1000 0
DWIDTH  10 0
BBX  9 9 0 -2
BITMAP
000000006000000000
00000000F0E0E0E060
00E0E0E0F0E0E0E000
00E00000000000E000
00F0E0E0E0E0E0F000
00F0E0E0E0E0E0E000
00000000E000000000
C0E0E0E0F0E0E0E0E0
000000004000000000
ENDCHAR
STARTCHAR  5355
ENCODING  21333
SWIDTH  1000 0
DWIDTH  10 0
BBX  9 9 1 -2
BITMAP
000010000000100000
0000C0100010C02000
00F0E0E0F0E0E0F000
00E00000E00000E000
00F0E0E0F0E0E0F000
00F0E0E0F0E0E0E000
00000000E000000000
E0E0E0E0F0E0E0E0C0
000000008000000000
ENDCHAR
STARTCHAR  5356
ENCODING  21334
SWIDTH  1000 0
DWIDTH  10 0
BBX  9 8 1 -2
BITMAP
40E0E0E0E0E0E0E020
00000000E000000000
C0E0E0E0E0E0E0E0A0
1040C080E000008040
30A0A030E000000000
E0E0F0FFE0FFE0E0C0
60C0A0200080E0A040
602000000000003040
ENDCHAR
STARTCHAR  5357
ENCODING  21335
SWIDTH  1000 0
DWIDTH  10 0
BBX  9 9 1 -2
BITMAP
000000008000000000
E0E0E0E0F0E0E0E0A0
A0E0E0E0F0E0E06000
E0004000003010E000
E000A06000A040E000
E000E0E0F0E0E0E000
E080E0E0F0E0E0E000
E0000000E00000E000
A0000000A000E0A000
ENDCHAR
STARTCHAR  535A
ENCODING  21338
SWIDTH  1000 0
DWIDTH  10 0
BBX  9 9 0 -2
BITMAP
000000000000002000
00E040E0E0F0E0F0E0
00E000E0E0F0E0E0E0
80F0A0F0E0F0E0E0E0
00E000F0E0F0E0E0E0
00E0008000E0000080
00E0A0E0E0E0E0C0E0
00E00060800000E000
008000008000C08000
ENDCHAR
STARTCHAR  535C
ENCODING  21340
SWIDTH  1000 0
DWIDTH  10 0
BBX  5 8 4 -2
BITMAP
E000000000
E000000000
E080100000
E060C02000
E00030E040
E000001020
E000000000
A000000000
ENDCHAR
STARTCHAR  535E
ENCODING  21342
SWIDTH  1000 0
DWIDTH  10 0
BBX  9 9 1 -2
BITMAP
000000404000000000
00000020A000000000
E0E0E0E0E0E0E0E080
00000000E010000000
00000000E0A0400000
00000000E010C04000
00000000E000103000
00000000E000000000
000000001000000000
ENDCHAR
STARTCHAR  535F
ENCODING  21343
SWIDTH  1000 0
DWIDTH  10 0
BBX  9 8 1 -2
BITMAP
C0E0E000E000000000
E000E000E030000000
E000E000E080C01000
E000E000E00060E020
E000E000E000003020
E000E000E000000000
E0E0E000E000000000
00000000A000000000
ENDCHAR
STARTCHAR  5360
ENCODING  21344
SWIDTH  1000 0
DWIDTH  10 0
BBX  9 9 1 -2
BITMAP
000000300000000000
000000E00000000000
000000E0E0E0E0E020
000000E00000000000
E0E0E0E0E0E0E0A000
E0000000000000E000
E0000000000000E000
E0000000000000E000
C0E0E0E0E0E0E08000
ENDCHAR
STARTCHAR  5361
ENCODING  21345
SWIDTH  1000 0
DWIDTH  10 0
BBX  9 9 1 -2
BITMAP
000000800000000000
000000E00000000000
000000E0E0E0E0E000
E0E0E0F0E0E0E0E080
000000000000000000
000000E03010000000
000000E060E0600000
000000E00010808000
000000800000000000
ENDCHAR
STARTCHAR  5362
ENCODING  21346
SWIDTH  1000 0
DWIDTH  10 0
BBX  10 9 0 -2
BITMAP
00000000200000000000
00000000F0E0E0E0E000
00000000E00000002000
00E0E0E0E0E0E0E0E000
00E0000000000000E000
00E0E0E0E0E0E0E08000
10E00000000000000000
60800000000000000000
30100000000000000000
ENDCHAR
STARTCHAR  5363
ENCODING  21347
SWIDTH  1000 0
DWIDTH  10 0
BBX  9 8 1 -1
BITMAP
000000300000000000
000000F0E0E0E0E040
000000E00000008000
E0E0E0E0E0E0E0E000
E0E0E0E0E0E0A0E000
E00000000000E0E000
E0E0E0E0E0E0A0E000
E0E0E0E0E0E0E0A000
ENDCHAR
STARTCHAR  5364
ENCODING  21348
SWIDTH  1000 0
DWIDTH  10 0
BBX  9 9 1 -2
BITMAP
000020400000000000
000080FFE0E0E0E060
000080FF0000000000
E0E0E0E0E0E0E0A000
E040400010A030E000
E010A0A0E06000E000
E030A0A0E08010E000
E0603000008040E000
A0E0E0E0E0E0E08000
ENDCHAR
STARTCHAR  5366
ENCODING  21350
SWIDTH  1000 0
DWIDTH  10 0
BBX  10 8 0 -2
BITMAP
000000E00000E0000000
00E0E0F0E060E0000000
00E0E0F0E0A0E0803000
000000A00000E010C020
00E0E0F0E060E0002030
000000E00000E0000000
004060F0A0A0E0000000
00A080806030A0000000
ENDCHAR
STARTCHAR  5367
ENCODING  21351
SWIDTH  1000 0
DWIDTH  10 0
BBX  9 8 1 -2
BITMAP
F0E0F0E0C0E0000000
E000E00030E0000000
F0E0E0E0E0E0802000
E0000000E0E040C010
F0E0F0E080E0006030
E000E00000E0000000
E000E00000E0000000
E0E0E0E0C080000000
ENDCHAR
STARTCHAR  5369
ENCODING  21353
SWIDTH  1000 0
DWIDTH  10 0
BBX  3 8 4 -2
BITMAP
F0E0C0
E000E0
E000E0
E000E0
E000E0
E000E0
E08080
600000
ENDCHAR
STARTCHAR  536B
ENCODING  21355
SWIDTH  1000 0
DWIDTH  10 0
BBX  9 9 1 -2
BITMAP
000000000000008000
40E0E0E0F0E0E0F000
00000000E00000E000
00000000E00000E000
00000000E00000E000
00000000E040E0C000
00000000E000000000
00000000E000000000
E0E0E0E0E0E0E0E080
ENDCHAR
STARTCHAR  536E
ENCODING  21358
SWIDTH  1000 0
DWIDTH  10 0
BBX  10 9 0 -2
BITMAP
00000000000000002000
00F0E0E0E0E0E0E0A000
00F0E0E0E0E0E0E0E000
00E0000000000000A000
00E0E0E0E0E0E0E0E000
10E0E00010E0E0E0A000
30A0E00000000000C000
6060E0E0E0E0E0E0A000
00000000000000000000
ENDCHAR
STARTCHAR  536F
ENCODING  21359
SWIDTH  1000 0
DWIDTH  10 0
BBX  9 9 0 -2
BITMAP
000000002000000000
00C0E0E08000F0E0E0
00E00000A000E000E0
00E00000E000E000E0
00E00000E000E000E0
00E080E0C000E000E0
00A060C04000E000E0
0040E0600000F0E0A0
00A020000000600000
ENDCHAR
STARTCHAR  5370
ENCODING  21360
SWIDTH  1000 0
DWIDTH  10 0
BBX  9 9 0 -2
BITMAP
000000004000000000
00C0E0E080C0E0E0E0
00E0000000E00000E0
00E0000000E00000E0
00E0E0E080E00000E0
00E0000000E00000E0
00E0004060E00000E0
20F0C08040E080E0C0
000000000030000000
ENDCHAR
STARTCHAR  5371
ENCODING  21361
SWIDTH  1000 0
DWIDTH  10 0
BBX  10 9 0 -2
BITMAP
00000040000000000000
000080F0E0E0E0E0E010
0060C000000000A0A000
0060F0E0E0E0E0E0E0A0
0000E0C0E0E0E0E0E000
0000E0E000000000E000
0030A0E00060E0E08000
00A040E00000000000C0
008000A0E0E0E0E0E080
ENDCHAR
STARTCHAR  5373
ENCODING  21363
SWIDTH  1000 0
DWIDTH  10 0
BBX  9 9 0 -2
BITMAP
000000006000000060
00F0E0E0F000F0E0F0
00E00000E000E000E0
00F0E0E0F000E000E0
00F0E0E0E000E000E0
00E000202000E000E0
00E00040A000E000E0
20F0C0E0F020E0E0A0
206020004020600000
ENDCHAR
STARTCHAR  5374
ENCODING  21364
SWIDTH  1000 0
DWIDTH  10 0
BBX  10 9 0 -2
BITMAP
00000040000000000030
000000E00000E0E0E0E0
00E0E0F0E060E00000E0
000000E00000E00000E0
20E0F0E0E0E0E00000E0
0010E0001000E00000E0
00806000A020E00000E0
10F080C0E080E030E080
10604010004060000000
ENDCHAR
STARTCHAR  5375
ENCODING  21365
SWIDTH  1000 0
DWIDTH  10 0
BBX  9 9 0 -2
BITMAP
000000003000000000
00A0E0E080C0E0E0E0
00E0000080E00000E0
00E08060E0E08060E0
00E02080E0E040A0E0
00E04080A0E00060E0
00A0A0F030E00000E0
0060E04000E040E080
006010000060000000
ENDCHAR
STARTCHAR  5377
ENCODING  21367
SWIDTH  1000 0
DWIDTH  10 0
BBX  10 9 0 -2
BITMAP
00000010002000000000
000040C000E000A04000
00E0E0E0E0E0E0E0E000
00E0E0E0F0E0E0E0E0C0
000040E0300000E0A000
0080E0F0E0E0E0F0A0A0
006010E00080E0E01010
000000E000000000E000
000000E0E0E0E0E0A000
ENDCHAR
STARTCHAR  5378
ENCODING  21368
SWIDTH  1000 0
DWIDTH  10 0
BBX  9 9 0 -2
BITMAP
003020000000000020
00C0E0E0E080E0E0F0
106000E00000E000E0
00E0E0F0E0A0E000E0
002000E00000E000E0
00E000E0E060E000E0
00E000E00010E000E0
10E0A0F0E0A0E0C0A0
006040100000600000
ENDCHAR
STARTCHAR  537A
ENCODING  21370
SWIDTH  1000 0
DWIDTH  10 0
BBX  10 8 0 -2
BITMAP
0010E0E0E0E0FFFFF000
00E0E0F0E0E0E080A020
10C0A06080E01080E040
00E0E0E0E0E0E0E0E060
0000E0E0E0E0E0600000
0000E000000000E00000
0000E00060E0E0A08000
0000E0E0E0E0E0E0A000
ENDCHAR
STARTCHAR  537F
ENCODING  21375
SWIDTH  1000 0
DWIDTH  10 0
BBX  10 9 0 -2
BITMAP
00000010000000000000
00E0E0A0F0E0C0F0E0E0
00E0A000E000E0E000E0
00E0E000F0E0E0E000E0
00E0E000E000E0E000E0
00E0E000F0E080E000E0
00F0A000E04040E000E0
00A02020F0E0C0E08080
00300020400040600000
ENDCHAR
STARTCHAR  5382
ENCODING  21378
SWIDTH  1000 0
DWIDTH  10 0
BBX  9 8 0 -2
BITMAP
00E0E0E0E0E0E0E0A0
00E000000000000000
00E000000000000000
00E000000000000000
00E000000000000000
20C000000000000000
806000000000000000
401000000000000000
ENDCHAR
STARTCHAR  5384
ENCODING  21380
SWIDTH  1000 0
DWIDTH  10 0
BBX  10 8 0 -2
BITMAP
00E0E0E0E0E0E0E0E030
00E0A0E0E0E0E0E08000
00E0E00000000000E000
00E0E00000000000E000
00E0E0000040E0E08000
20A0E00000000000E000
8060E0E0E0E0E0E0C000
00000000000000000000
ENDCHAR
STARTCHAR  5385
ENCODING  21381
SWIDTH  1000 0
DWIDTH  10 0
BBX  10 8 0 -2
BITMAP
00E0E0E0E0E0E0E0E040
00E00000000000000000
00E080E0E0F0E0E0E000
00E0000000E000000000
00E0000000E000000000
10C0000000E000000000
4080000000E000000000
60300020E0A000000000
ENDCHAR
STARTCHAR  5386
ENCODING  21382
SWIDTH  1000 0
DWIDTH  10 0
BBX  10 8 0 -2
BITMAP
00E0E0E0E0E0E0E0E010
00E00000E00000008000
00E020E0F0E0E0E0E000
00E00000E0000000E000
00E00030A0000000E000
30A010C020000000E000
80406040000060E0A000
00000000000000000000
ENDCHAR
STARTCHAR  5389
ENCODING  21385
SWIDTH  1000 0
DWIDTH  10 0
BBX  10 8 0 -2
BITMAP
00E0E0E0E0E0E0E0E020
00E060E0E0E0E0E0E000
00E00000E00000000000
00E00000F0E0E0A00000
00E00020C00000E00000
10C000A0600000E00000
608040E0000000E00000
802080200020E0A00000
ENDCHAR
STARTCHAR  538B
ENCODING  21387
SWIDTH  1000 0
DWIDTH  10 0
BBX  10 8 0 -2
BITMAP
00E0E0E0E0FFE0E0E010
00E0000000E000000000
00E0000000E000000000
00E000E0E0F0E0E0A000
00E0000000E000801000
20C0000000E000606000
6060C0E0E0F0E0E0E000
00000000000000000000
ENDCHAR
STARTCHAR  538C
ENCODING  21388
SWIDTH  1000 0
DWIDTH  10 0
BBX  10 8 0 -2
BITMAP
00E0E0E0E0E0E0E0E020
00E0000000A020600000
00E0000000E000A01000
00E060E0E0F0E0E0E000
00E0000060A040000000
10C00030E010A0600000
408040E0200000A06000
60308010000000008000
ENDCHAR
STARTCHAR  538D
ENCODING  21389
SWIDTH  1000 0
DWIDTH  10 0
BBX  9 8 0 -2
BITMAP
00E0E0E0E0E0E0E0E0
00E0A0E0FFE0E0E0C0
00E000E02000000000
00E060A000E0000000
00E080E0E0F0E0E080
20C0E0E0E0F0E0E0E0
8080000000E0000000
302000000080000000
ENDCHAR
STARTCHAR  5395
ENCODING  21397
SWIDTH  1000 0
DWIDTH  10 0
BBX  10 8 0 -2
BITMAP
00E0E0E0E0E0E0E0E060
00E0A0E0E0F00040E000
00E0E00040E000E0E000
00E0E000E0E000E0E000
00E0E030A0E000E0E000
00E020C0A06000E0E000
40A0A08030E00000E000
40302000006010C0A000
ENDCHAR
STARTCHAR  5398
ENCODING  21400
SWIDTH  1000 0
DWIDTH  10 0
BBX  10 8 0 -2
BITMAP
00E0E0E0E0E0E0E0E030
00E000E0E0E0E0E0C000
00E000F0E0F0E0E0E000
00E000E000E00000E000
00E000E0E0F0E0E08000
30A060E0E0F0E0E0E000
8060E0E0E0F0E0E0E030
00000000000000000000
ENDCHAR
STARTCHAR  539A
ENCODING  21402
SWIDTH  1000 0
DWIDTH  10 0
BBX  10 8 0 -2
BITMAP
00E0E0E0E0E0E0E0F020
00E000F0E0E0E0E0E000
00E000F0E0E0E0E0E000
00E000F0E0E0E0E0A000
00E010E0E0E0E0E0E000
00E000000060F0E04000
40A0E0E0E0F0E0E0E020
40400000A0A000000000
ENDCHAR
STARTCHAR  539D
ENCODING  21405
SWIDTH  1000 0
DWIDTH  10 0
BBX  10 8 0 -2
BITMAP
00E0E0E0F0E0F0E0E030
00E080E0F0E0F0E0E000
00E00000E000E0000000
00E0E0E0E0E0E0E0F040
00E000F0E0E0E0E0E000
10C000F0E0E0E0E0E000
608000E000000000E000
603000E0E0E0E0E08000
ENDCHAR
STARTCHAR  539F
ENCODING  21407
SWIDTH  1000 0
DWIDTH  10 0
BBX  10 8 0 -2
BITMAP
00E0E0E0E0E0E0E0E040
00E000E0F0E0E0E0A000
00E000E000000000E000
00E000F0E0E0E0E0E000
00E000E0E0F0E0E08000
10E0006020E000803000
408030E000E00030C000
60308030C0A000004000
ENDCHAR
STARTCHAR  53A2
ENCODING  21410
SWIDTH  1000 0
DWIDTH  10 0
BBX  10 8 0 -2
BITMAP
00F0E0E0E0E0E0E0E060
00E0E0F0E020E0E0F000
00E0A0FF8000E000E000
00E0A0FFC000F0E0F000
10C0C0E0C000E000E000
30A0E0E0C010F0E0F000
6080C0E0A020E000E000
404060403010E0E0A000
ENDCHAR
STARTCHAR  53A3
ENCODING  21411
SWIDTH  1000 0
DWIDTH  10 0
BBX  10 8 0 -2
BITMAP
00E0E0E0E0E0E0E0E000
00E0A0E0E0F0E0F0E000
00E060A0A01030C08000
00E030F0E0E0E0E0E000
00E000E000E00000E000
10C000F0E0F0E0E0E000
608000E0E0F0E0E08000
10100000004000000000
ENDCHAR
STARTCHAR  53A5
ENCODING  21413
SWIDTH  1000 0
DWIDTH  10 0
BBX  10 8 0 -2
BITMAP
00E0E0E0E0E0E0E0E060
00E080C03080A0E0E060
00E060E0F0E0C010A040
00E0E000E0E040E04000
00E0E040E0E000E01000
10C080FFA04060A0C000
6080A0A00010E010C030
10103000001040003020
ENDCHAR
STARTCHAR  53A6
ENCODING  21414
SWIDTH  1000 0
DWIDTH  10 0
BBX  10 8 0 -2
BITMAP
00E0FFFFFFFFFFFFFF40
00E0A0E0FFE0E0E0C000
00E0E0C0C0C0C0C0E000
00E0E0C0C0C0C0C0E000
00E0C0F0E0E0E0E08000
10E0C0FFE0E0E0FFC000
40A040E0FFE0FFC03000
4030808060103060A000
ENDCHAR
STARTCHAR  53A8
ENCODING  21416
SWIDTH  1000 0
DWIDTH  10 0
BBX  10 8 0 -2
BITMAP
00E0E0E0E0E0E0E0E040
00E080E0E0E0A0E0F040
00E0A0E0E0C00000E000
00E0E00000E0A040E000
00E0A0E0E0806060E000
10C0806060404080E000
408040A0E0E00000E000
40308080402020E08000
ENDCHAR
STARTCHAR  53A9
ENCODING  21417
SWIDTH  1000 0
DWIDTH  10 0
BBX  10 8 0 -2
BITMAP
00E0E0E0E0E0E0E0E000
00E0E0E0F020E0F0E010
00E0E0E0F010C0E00000
00E0E000E080F0F0A000
00E0E0E0A00010C00000
10E0E010800080800000
40A0E0A0F040C0E00080
6030A030408020A0E060
ENDCHAR
STARTCHAR  53AE
ENCODING  21422
SWIDTH  1000 0
DWIDTH  10 0
BBX  10 8 0 -2
BITMAP
00E0E0FFE0FFE0E0E010
00E0A0F0E0F0E0E0A000
00E000F0E0E0E0000000
00E000E000E0E0E0E000
00E000F0E0E0E000E000
00E0A0F0E0F0E000E000
30A040E040A0C000E000
4060804000606000A000
ENDCHAR
STARTCHAR  53B6
ENCODING  21430
SWIDTH  1000 0
DWIDTH  10 0
BBX  10 9 0 -2
BITMAP
00000000100000000000
00000000804000000000
00000010E00000000000
000000A0600000000000
000030C0000000000000
0010E020000000800000
00A06000104060E06000
00FFC0E0C0A06040E010
00200000000000003000
ENDCHAR
STARTCHAR  53BB
ENCODING  21435
SWIDTH  1000 0
DWIDTH  10 0
BBX  9 9 1 -2
BITMAP
000000003000000000
00000000E000000000
60E0E0E0F0E0E0E010
00000000E000000000
E0E0E0E0E0E0E0E0A0
0010C0300000201000
00A060000000608000
40E0A0C0E0E0C0E010
206030200000003010
ENDCHAR
STARTCHAR  53BF
ENCODING  21439
SWIDTH  1000 0
DWIDTH  10 0
BBX  9 9 1 -2
BITMAP
000000000000004000
00F0E0E0E0E0E0E000
00F0E0E0E0E0E0E000
00E00000000000E000
00F0E0E0E0E0E0E000
E0F0E0E0E0E0E0F0A0
00A080000000604000
60F0A0C0C0E0E0E010
204020100000003000
ENDCHAR
STARTCHAR  53C1
ENCODING  21441
SWIDTH  1000 0
DWIDTH  10 0
BBX  10 9 0 -2
BITMAP
00000020800000100000
000060E0603040E02000
0010E0C0C0C080808000
00E0E0E0E0F0E0E0E080
00003080C030A0A04000
10E0A0FFE0E0E0E0A080
0000E0E0E0E0E0E06000
00000000000000000000
00E0E0E0E0E0E0E0E000
ENDCHAR
STARTCHAR  53C2
ENCODING  21442
SWIDTH  1000 0
DWIDTH  10 0
BBX  10 9 0 -2
BITMAP
00000040000000000000
0020A0A0001060600000
00E0FFE0E0E0C0E02000
C0E0E0E0FFE0E0E0E000
1060E08020C0E0802000
A08080C0E0A08060E000
0010A0C0E0E080A06000
0010A0A0A0C0C0600000
00C0C0A0602000000000
ENDCHAR
STARTCHAR  53C8
ENCODING  21448
SWIDTH  1000 0
DWIDTH  10 0
BBX  9 9 1 -2
BITMAP
000000000000001000
00C0E0E0E0E0E0E000
00000000000020C000
00A080000010E03000
000080C030C0400000
00000060FF80000000
000080C040A0A01000
60E08000000060E030
401000000000002010
ENDCHAR
STARTCHAR  53C9
ENCODING  21449
SWIDTH  1000 0
DWIDTH  10 0
BBX  10 9 0 -2
BITMAP
00000000000000002000
0060E0E0E0E0E0E0E000
0000200060100030C000
0020E04060C010E03000
000010A0A020C0400000
00000000A0FF60000000
00001080C040E0600000
0080E060000000A0A010
00400000000000004000
ENDCHAR
STARTCHAR  53CA
ENCODING  21450
SWIDTH  1000 0
DWIDTH  10 0
BBX  10 9 0 -2
BITMAP
00000000000000002000
0060F0E0E0E0E0E0E000
0000E000000030C06000
0000E0000010FFE0F000
0000E06030000080A000
0010C030C080C0800000
0060801080E0E0600000
00E080E060001080C000
00203000000000001000
ENDCHAR
STARTCHAR  53CB
ENCODING  21451
SWIDTH  1000 0
DWIDTH  10 0
BBX  10 9 0 -2
BITMAP
00008000000000000000
00E0F0E0E0E0E0E0E060
0000E000000000000000
0000E0E0E0E0E0E0C000
0000E01000000040C000
0030A0A0C03060E02000
00A0400060FFF0400000
40A060C0A03030A0C010
10104010000000003000
ENDCHAR
STARTCHAR  53CC
ENCODING  21452
SWIDTH  1000 0
DWIDTH  10 0
BBX  10 9 0 -2
BITMAP
00000000100000001000
10E0E0E0F0E0E0E0F000
00100010E0000000E000
00A04040A0C02060A000
0020E0A04030C0E02000
000080E00000A0A00000
0000C0E03040C0C03000
10C0602080C01020E010
00400000301000003000
ENDCHAR
STARTCHAR  53CD
ENCODING  21453
SWIDTH  1000 0
DWIDTH  10 0
BBX  10 9 0 -2
BITMAP
00000000000000002000
00C0E0E0E0E0E0E08000
00E00000000000003000
00E0E0E0E0E0E0E0E000
00E0003000000060A000
00E010A0C040A0A01000
30A00000A0F0E0200000
806080E0801040C0A000
40206000000000004000
ENDCHAR
STARTCHAR  53D1
ENCODING  21457
SWIDTH  1000 0
DWIDTH  10 0
BBX  10 9 0 -2
BITMAP
00101060000000400000
00A040E0000000808000
10FFE0F0E0E0E0E0E030
000010C0000000003000
000060E0E0E0E0E0E000
0000E040400010A08000
00608020A0E0F0600000
30E040A0E06080E08010
20204040000000006010
ENDCHAR
STARTCHAR  53D4
ENCODING  21460
SWIDTH  1000 0
DWIDTH  10 0
BBX  10 9 0 -2
BITMAP
00008000000000002000
0000E0000080E0E0F000
0000E0E080100000E000
30E0F0E0E0808020C000
000020000000C0A06000
0060E040300060E00000
10A0E060A000A0E03000
6060E020E0608020C000
3080A000308000006010
ENDCHAR
STARTCHAR  53D6
ENCODING  21462
SWIDTH  1000 0
DWIDTH  10 0
BBX  10 8 0 -2
BITMAP
80F0E0F0E080E0E0E000
00E000E000000000E000
00F0E0F000606040A000
00E000E00010E0A04000
00F0E0F0000060E00000
00E000E04000C0E03000
60F0C0F080808030C000
20100080004000004000
ENDCHAR
STARTCHAR  53D7
ENCODING  21463
SWIDTH  1000 0
DWIDTH  10 0
BBX  9 9 1 -2
BITMAP
000000000000002010
A0E0E0E0E0E0E0C030
00A04020C00040A020
F0C0C0C0C0C0C0C0E0
6080E0E0E0E0E0C060
004080300030C0A000
001080F0F0FF800000
80E0C0602040A0E040
100000000000000010
ENDCHAR
STARTCHAR  53D8
ENCODING  21464
SWIDTH  1000 0
DWIDTH  10 0
BBX  10 9 0 -2
BITMAP
00000000604000000000
10E0E0E0E0F0E0E0E020
003060E00000E0A02000
00E020E00000E030C000
00100010000010200000
0080E0E0E0E0E0FF0000
0040C0804040C0A00000
001060E0F0E0E0601000
20C0804000003080A000
ENDCHAR
STARTCHAR  53D9
ENCODING  21465
SWIDTH  1000 0
DWIDTH  10 0
BBX  10 9 0 -2
BITMAP
00000000000000000000
0060C0E0E080E0E0F000
10C0000030400000E000
0080E0F0E040A030A000
20E0E0F0E030C0E04000
002040E0600040F00000
008060E0A000A0E04000
10E010E08040C030C000
3060A080308020008010
ENDCHAR
STARTCHAR  53DB
ENCODING  21467
SWIDTH  1000 0
DWIDTH  10 0
BBX  11 9 0 -2
BITMAP
0000300000000000101000
0060E020A0C0E0E0E04000
0080E08060E00000004000
00C0F0E0C0E0E0E0E0E000
0000E00000E0601030C000
00E0F0E0E0E060E0E04000
0030A00040A010E0E01000
00C03000C060E06060C000
0030000040203000004000
ENDCHAR
STARTCHAR  53DF
ENCODING  21471
SWIDTH  1000 0
DWIDTH  10 0
BBX  10 8 0 -2
BITMAP
10E0E0C030E0E0E0C000
20F0E0E010FFE0E0F000
20E0000000E00000E000
10E0E0E0E0F0E0E0C000
00C0E0E0E0E0E0E0E000
00A0C0806040A0C06000
104080F0F0C0E0804000
40806030000000408010
ENDCHAR
STARTCHAR  53E0
ENCODING  21472
SWIDTH  1000 0
DWIDTH  10 0
BBX  9 8 1 -2
BITMAP
0080F0E0E0F0F00000
10A0E0C0A0E0C08000
C0F0F0E000E0F0FFE0
A0C0A0A030C0A0C0A0
C0C0C0C0C0C0C0E0C0
40C0FFFFFFFFFFC040
00C0C0C0C0C0C0C000
C0C0C0C0C0C0C0C080
ENDCHAR
STARTCHAR  53E3
ENCODING  21475
SWIDTH  1000 0
DWIDTH  10 0
BBX  8 8 1 -1
BITMAP
0000000000000030
E0E0E0E0E0E0E0F0
E0000000000000E0
E0000000000000E0
E0000000000000E0
E0000000000000E0
E0000000000000E0
F0E0E0E0E0E0E0C0
ENDCHAR
STARTCHAR  53E4
ENCODING  21476
SWIDTH  1000 0
DWIDTH  10 0
BBX  9 9 1 -2
BITMAP
000000006000000000
00000000E000000000
E0E0E0E0F0E0E0E0A0
00000000E000000000
00E0E0E0F0E0E0A000
00E00000000000E000
00E00000000000E000
00E00000000000E000
00E0E0E0E0E0E0A000
ENDCHAR
STARTCHAR  53E5
ENCODING  21477
SWIDTH  1000 0
DWIDTH  10 0
BBX  9 8 0 -2
BITMAP
0020A0000000000020
00C0E0E0E0E0E0E0F0
2040A0E0E0E0C000E0
0000E0000000E000E0
0000E0000000E000E0
0000E0E0E0E0C000E0
0000000000000000E0
000000000020E0E0A0
ENDCHAR
STARTCHAR  53E6
ENCODING  21478
SWIDTH  1000 0
DWIDTH  10 0
BBX  9 9 0 -2
BITMAP
000000000000000020
00E0E0E0E0E0E0E0E0
00E0000000000000E0
00C0E0E0E0E0E0E080
000000800000000000
40E0E0F0E0E0E0E0E0
0000808000000000E0
10A0A00000000000E0
406000000000A0E0A0
ENDCHAR
STARTCHAR  53E8
ENCODING  21480
SWIDTH  1000 0
DWIDTH  10 0
BBX  8 9 1 -2
BITMAP
0000100000000060
E0E0F080F0E0E0F0
E000E000E00000E0
E000E000E00000E0
E000E000E00000E0
E000E040A00000E0
F0E0E0C0300000E0
000030A00040E0C0
0000000000000000
ENDCHAR
STARTCHAR  53E9
ENCODING  21481
SWIDTH  1000 0
DWIDTH  10 0
BBX  8 9 1 -2
BITMAP
0000000000000010
E0E0E0A0E0E0E0F0
E00000E0E00000E0
E00000E0E00000E0
E00000E0E00000E0
E00000E0E00000E0
E00000E0E00000E0
E0E0E080E080E0C0
0000000060000000
ENDCHAR
STARTCHAR  53EA
ENCODING  21482
SWIDTH  1000 0
DWIDTH  10 0
BBX  9 9 0 -2
BITMAP
000000000000002000
00E0E0E0E0E0E0F000
00E00000000000E000
00E00000000000E000
00E0E0E0E0E0E0E000
000040100000600000
0040C0100000808000
60C01000000000A060
200000000000000010
ENDCHAR
STARTCHAR  53EB
ENCODING  21483
SWIDTH  1000 0
DWIDTH  10 0
BBX  8 8 1 -2
BITMAP
E0E0A000800000E0
E000E000E00000E0
E000E000E00000E0
E000E000E00000E0
E000E000E01060E0
E000E020F0E080E0
F0E0C010300000E0
00000000000000A0
ENDCHAR
STARTCHAR  53EC
ENCODING  21484
SWIDTH  1000 0
DWIDTH  10 0
BBX  9 8 0 -2
BITMAP
30E0E0F0E0E0E0E0C0
000060A000000000E0
1080C01000000000E0
206000000000C0E080
00E0E0E0E0E0E0E0A0
00E0000000000010E0
00E0000000000010C0
00A0E0E0E0E0E0E080
ENDCHAR
STARTCHAR  53ED
ENCODING  21485
SWIDTH  1000 0
DWIDTH  10 0
BBX  9 9 1 -2
BITMAP
000030008000800000
E0E0F000E000E00000
E000E000E000E00000
E000E000E000E00000
E000E010C000C02000
E000E0408000806000
F0E0C0A0300020C000
000010A0000000A020
000000000000000000
ENDCHAR
STARTCHAR  53EE
ENCODING  21486
SWIDTH  1000 0
DWIDTH  10 0
BBX  9 8 1 -2
BITMAP
E0E0E010E0E0F0E0E0
E000E0000000E00000
E000E0000000E00000
E000E0000000E00000
E000E0000000E00000
E000E0000000E00000
E0E0A0000000E00000
0000000020E0800000
ENDCHAR
STARTCHAR  53EF
ENCODING  21487
SWIDTH  1000 0
DWIDTH  10 0
BBX  9 8 1 -2
BITMAP
E0E0E0E0E0E0E0F080
00E0E0E0E08000E000
00E0000000E000E000
00E0000000E000E000
00E0000000E000E000
00F0E0E0E0A000E000
00000000000000E000
000000000080E08000
ENDCHAR
STARTCHAR  53F0
ENCODING  21488
SWIDTH  1000 0
DWIDTH  10 0
BBX  10 8 0 -1
BITMAP
00000080200000000000
0000A080000000402000
00A08010304060A0A000
20E0E0C0A0808060A020
00000000000000008000
00E0E0E0E0E0E0E0E000
00E0000000000000E000
00E0E0E0E0E0E0E0A000
ENDCHAR
STARTCHAR  53F1
ENCODING  21489
SWIDTH  1000 0
DWIDTH  10 0
BBX  9 9 1 -2
BITMAP
000020006000000000
E0E0F000E00020A000
E000E000E010E04000
E000E000E0C0400000
E000E030F040000000
E000E080E000000000
E000E000E000000080
F0E0C000E0A0A0A0C0
000000002020202000
ENDCHAR
STARTCHAR  53F2
ENCODING  21490
SWIDTH  1000 0
DWIDTH  10 0
BBX  9 9 0 -2
BITMAP
000000004000000000
00A0E0E0F0E0E0A000
00E00000E00000E000
00E00000E00000E000
00E0E0E0F0E0E0E000
006020A02000000000
0060F0E0A060200000
20C080003060A0E040
103000000000000010
ENDCHAR
STARTCHAR  53F3
ENCODING  21491
SWIDTH  1000 0
DWIDTH  10 0
BBX  10 8 0 -1
BITMAP
00000000000000000000
000000E0000000000000
00E0E0F0E0E0E0E0E0A0
000030A0000000004000
0000A0E0E0E0E0E0E000
0060E0E000000000E000
10A010E000000000E000
000000F0E0E0E0E0C000
ENDCHAR
STARTCHAR  53F5
ENCODING  21493
SWIDTH  1000 0
DWIDTH  10 0
BBX  9 7 1 -1
BITMAP
F0E0E0E0E0E0E0E020
E000E0E0E0E0A00000
E000E0000000E00000
E000E0000000E00000
E000E0000000E00000
E000E0E0E0E0A00000
F0E0E0E0E0E0E0E040
ENDCHAR
STARTCHAR  53F6
ENCODING  21494
SWIDTH  1000 0
DWIDTH  10 0
BBX  9 8 1 -2
BITMAP
E0E0E0000000E00000
E000E0000000E00000
E000E040E0E0F0E0E0
E000E0000000E00000
E000E0000000E00000
E000E0000000E00000
F0E0E0000000E00000
000000000000A00000
ENDCHAR
STARTCHAR  53F7
ENCODING  21495
SWIDTH  1000 0
DWIDTH  10 0
BBX  9 9 1 -2
BITMAP
000000000000000000
00F0E0E0E0E0E0F000
00E00000000000E000
00E0E0E0E0E0E0A000
E0E0E0E0E0E0E0E0C0
00C040000000000000
00E0E0E0E0E0E0E000
00000000000000E000
00000020E0E0E08000
ENDCHAR
STARTCHAR  53F8
ENCODING  21496
SWIDTH  1000 0
DWIDTH  10 0
BBX  8 8 1 -1
BITMAP
0000000000000080
E0E0E0E0E0E0E0F0
E0E0E0E0E0E0A0E0
00000000000010E0
00E0E0E0E0E0E0E0
00E000000000E0E0
00F0E0E0E0E0A0E0
0000000000A0E0E0
ENDCHAR
STARTCHAR  53F9
ENCODING  21497
SWIDTH  1000 0
DWIDTH  10 0
BBX  9 9 1 -2
BITMAP
000000101010103000
E0E0E0A0E0E0E0F000
E000E020200000E000
E000E040C000608000
E000E00060A0E01000
E000E00000E0800000
E000E000A060C03000
F0E0C0A0600020E010
000000200000003010
ENDCHAR
STARTCHAR  53FB
ENCODING  21499
SWIDTH  1000 0
DWIDTH  10 0
BBX  8 9 1 -2
BITMAP
0000000020000000
E0E0C060F0A0A0E0
E000E010E02020E0
E000E000E00000E0
E000E000C00000E0
E000E030A00000E0
E000E080400000E0
E0E0A0A00040E0E0
0000000000000000
ENDCHAR
STARTCHAR  53FC
ENCODING  21500
SWIDTH  1000 0
DWIDTH  10 0
BBX  8 8 1 -1
BITMAP
0000000000000010
E0E0F080E0E0E0F0
E000E000000000E0
E000E000006060E0
E000E00060A000E0
E000E060C00000E0
E000E010000000E0
F0E0E0000040E0E0
ENDCHAR
STARTCHAR  53FD
ENCODING  21501
SWIDTH  1000 0
DWIDTH  10 0
BBX  9 9 1 -2
BITMAP
000000000000200000
E0E06000F0E0F00000
E000E000E000E00000
E000E000E000E00000
E000E000E000E00000
E000E040A000E00000
E000E0C04000E00000
E0E0E0A00000E0E0A0
000000000000000000
ENDCHAR
STARTCHAR  5401
ENCODING  21505
SWIDTH  1000 0
DWIDTH  10 0
BBX  9 9 1 -2
BITMAP
000000001010101000
E0E0E080E0F0E0E000
E000E00000E0000000
E000E00000E0000000
E000E0E0E0F0E0E060
E000E00000E0000000
E000E00000E0000000
F0E0C00000E0000000
00000010E0A0000000
ENDCHAR
STARTCHAR  5403
ENCODING  21507
SWIDTH  1000 0
DWIDTH  10 0
BBX  10 9 0 -2
BITMAP
00001000403000000000
A0E0F010E0E0E0E0C000
E000E040400000000000
E000E00080E0E0E06000
E000E00000000060A000
E000E000000060E01000
E000E00010A0E0200000
E0E0C020F0A01000C010
00000020E0E0E0E0A000
ENDCHAR
STARTCHAR  5404
ENCODING  21508
SWIDTH  1000 0
DWIDTH  10 0
BBX  9 9 1 -2
BITMAP
000000000000000000
00A0E0E0E0E0E08000
808030000020A0E000
1020C0E0C0F0800000
60A0E0C060A0E0C060
80FFE0E0E0E0E0A060
00E00000000000E000
00E00000000000E000
00E0E0E0E0E0E0A000
ENDCHAR
STARTCHAR  5406
ENCODING  21510
SWIDTH  1000 0
DWIDTH  10 0
BBX  9 8 1 -2
BITMAP
E0E0800000C0000000
E000E0008060004000
E000E040C04080A000
E000E0A0C0E0E00000
E000E00010E0200000
E000E000C040006000
E000E080A04060E030
E0E080A0A080606060
ENDCHAR
STARTCHAR  5408
ENCODING  21512
SWIDTH  1000 0
DWIDTH  10 0
BBX  9 8 0 -1
BITMAP
000000000000000000
0060A0E0E0E0E0E010
20E0000000000080A0
6060E0E0E0E0E0E040
00000000000000A000
00E0E0E0E0E0E0F000
00E00000000000E000
00E0E0E0E0E0E0C000
ENDCHAR
STARTCHAR  5409
ENCODING  21513
SWIDTH  1000 0
DWIDTH  10 0
BBX  9 9 0 -2
BITMAP
000000006000000000
C0E0E0E0F0E0E0E0E0
00000000E000000000
00E0E0E0F0E0E0E0C0
000000000000000000
00F0E0E0E0E0E0E000
00E00000000000E000
00E00000000000E000
00C0E0E0E0E0E0A000
ENDCHAR
STARTCHAR  540A
ENCODING  21514
SWIDTH  1000 0
DWIDTH  10 0
BBX  8 9 1 -2
BITMAP
0000000000000040
E0E0E0E0E0E0E0E0
E0000000000000E0
A0E0E0E0F0E0E080
E0E0E0E0F0E0E0F0
E0000000E00000E0
E0000000E00000E0
C0000000E000C0C0
0000000060000000
ENDCHAR
STARTCHAR  540C
ENCODING  21516
SWIDTH  1000 0
DWIDTH  10 0
BBX  9 8 1 -2
BITMAP
F0E0E0E0E0E0E0E0A0
E0C0E0E0E0E0E000E0
E000000000006000E0
E000F0E0E0E0E000E0
E000E0000000E000E0
E000F0E0E0E0A000E0
E000000000000000E0
A0000000000020E080
ENDCHAR
STARTCHAR  540D
ENCODING  21517
SWIDTH  1000 0
DWIDTH  10 0
BBX  9 8 0 -1
BITMAP
002080000000000040
00A0F0E0E0E0E0E0E0
60A0106000002080C0
100020A0E0C0C06000
A0E0C0806010000030
00A0E0E0E0E0E0E0E0
00E0000000000000E0
00E0E0E0E0E0E0E0A0
ENDCHAR
STARTCHAR  540E
ENCODING  21518
SWIDTH  1000 0
DWIDTH  10 0
BBX  10 9 0 -2
BITMAP
00000000000000001000
00A0E0E0E0E0E0E08000
00E00000000000000000
00E0E0E0E0E0E0E0E020
00E0000000000000A000
00E0E0E0E0E0E0E0E000
30A0E00000000000E000
6060E0E0E0E0E0E0A000
00000000000000000000
ENDCHAR
STARTCHAR  540F
ENCODING  21519
SWIDTH  1000 0
DWIDTH  10 0
BBX  10 9 0 -2
BITMAP
00000000008000000000
00E0E0E0E0F0E0E0E0C0
0000E0E0E0F0E0E0F000
0000E00000E00000E000
0000F0E0E0F0E0E0E000
00006040C02000000000
000080F0C0C080602000
00C0A01000104080C080
00000000000000000000
ENDCHAR
STARTCHAR  5410
ENCODING  21520
SWIDTH  1000 0
DWIDTH  10 0
BBX  9 8 1 -1
BITMAP
000000000080000000
0000600000E0000000
F0E0F00000E0000000
E000E0C0E0F0E0E000
E000E00000E0000000
E000E00000E0000000
E000E00000E0000000
F0E0C0E0E0F0E0E060
ENDCHAR
STARTCHAR  5411
ENCODING  21521
SWIDTH  1000 0
DWIDTH  10 0
BBX  9 9 1 -2
BITMAP
000000000000000000
0020C0100000000000
F0E0E0E0E0E0E0E0E0
E000E0E0E0E08000E0
E000E0000000E000E0
E000E0000000E000E0
E000F0E0E0E0A000E0
E000000000000000E0
A0000000000010E080
ENDCHAR
STARTCHAR  5412
ENCODING  21522
SWIDTH  1000 0
DWIDTH  10 0
BBX  9 9 1 -2
BITMAP
000000000000003010
E0E0F080E0E0E0C020
E000E00000E0000000
E000E00000E0000000
E000E00020E080A0A0
E000E0C0C0F0603010
E000E00000E0000000
E000E00000E00000E0
E0E0A00000C0E0E080
ENDCHAR
STARTCHAR  5413
ENCODING  21523
SWIDTH  1000 0
DWIDTH  10 0
BBX  9 9 1 -2
BITMAP
000020000000000000
E0E0F0E0E0F0E0E030
E000E00000E0000000
E000E00000E0100000
E000E00000E0C04000
E000E00000E010A000
E000E00000E0000000
F0E0E00000E0000000
000000000060000000
ENDCHAR
STARTCHAR  5415
ENCODING  21525
SWIDTH  1000 0
DWIDTH  10 0
BBX  9 9 1 -2
BITMAP
000000000000006000
00F0E0E0E0E0E0E000
00E00000000000E000
00F0E0E0E0E0E0A000
000000000000000000
F0E0E0E0E0E0E0E0C0
E000000000000000E0
E000000000000000E0
E0E0E0E0E0E0E0E080
ENDCHAR
STARTCHAR  5416
ENCODING  21526
SWIDTH  1000 0
DWIDTH  10 0
BBX  10 9 1 -2
BITMAP
00002030200000004000
E0E0F040E0100040C000
E000E00080A010E02000
E000E000008020600000
E000E0000000E0000000
E000E0000000E0000000
E000E0000000E0000000
F0E0C0000000E0000000
00000000000080000000
ENDCHAR
STARTCHAR  5417
ENCODING  21527
SWIDTH  1000 0
DWIDTH  10 0
BBX  9 9 1 -2
BITMAP
000060000000000000
E0E0E0A0E0E0E0FF40
E000E040A00010FF10
E000E080800030C060
E000E0A0E0E0E0E0E0
E000E00000000000E0
E000E0E0E0E0E000E0
F0E0A000000060C0A0
000000000000101000
ENDCHAR
ENDFONT
